<svg width="24" height="25" viewBox="0 0 24 25" fill="none" xmlns="http://www.w3.org/2000/svg">
<path d="M6.768 9.89276C6.51679 9.21635 5.47711 9.2284 5.24156 9.91019L3.27956 15.0616C2.95607 15.9227 4.263 16.4197 4.5937 15.5621L4.90987 14.732H7.09153L7.40404 15.5601C7.73732 16.4221 9.03979 15.922 8.71973 15.0636L6.77559 9.91193C6.7732 9.90551 6.77067 9.89913 6.768 9.89276ZM5.44547 13.3257L6.00571 11.8548L6.56086 13.3257H5.44547Z" fill="#484848"/>
<path d="M20.0624 10.814C20.4507 10.814 20.7655 10.4992 20.7655 10.1108C20.7655 9.72253 20.4507 9.40771 20.0624 9.40771H17.8809C17.4925 9.40771 17.1777 9.72253 17.1777 10.1108V15.2881C17.1777 15.6764 17.4925 15.9913 17.8809 15.9913H20.0624C20.4507 15.9913 20.7655 15.6764 20.7655 15.2881C20.7655 14.8998 20.4507 14.585 20.0624 14.585H18.584V13.4026H19.9015C20.2898 13.4026 20.6046 13.0878 20.6046 12.6995C20.6046 12.3112 20.2898 11.9963 19.9015 11.9963H18.584V10.814H20.0624Z" fill="#484848"/>
<path d="M12.8703 10.7739C13.253 10.7739 13.622 10.8865 13.9374 11.0996C14.2592 11.3169 14.6962 11.2324 14.9136 10.9106C15.131 10.5888 15.0464 10.1518 14.7246 9.93435C14.1759 9.56361 13.5347 9.36768 12.8703 9.36768C11.042 9.36768 9.55469 10.8551 9.55469 12.6833C9.55469 14.5115 11.042 15.9989 12.8703 15.9989C14.6121 15.9989 15.8286 14.6355 15.8286 12.6833C15.8286 12.295 15.5138 11.9802 15.1255 11.9802H13.5625C13.1741 11.9802 12.8593 12.295 12.8593 12.6833C12.8593 13.0716 13.1741 13.3864 13.5625 13.3864H14.3323C14.1579 14.0333 13.7151 14.5926 12.8703 14.5926C11.8174 14.5926 10.9609 13.7361 10.9609 12.6833C10.9609 11.6304 11.8174 10.7739 12.8703 10.7739Z" fill="#484848"/>
<path d="M23.2969 11.9883C22.9086 11.9883 22.5938 12.3031 22.5938 12.6914C22.5938 15.5211 21.4918 18.1814 19.4909 20.1823C17.49 22.1832 14.8297 23.2852 12 23.2852C9.17034 23.2852 6.51 22.1832 4.50909 20.1823C2.50819 18.1814 1.40625 15.5211 1.40625 12.6914C1.40625 9.8617 2.50819 7.20141 4.50909 5.2005C6.51 3.19959 9.17034 2.09766 12 2.09766C13.419 2.09766 14.7957 2.37323 16.0918 2.9168C16.8318 3.22692 17.5335 3.62067 18.1852 4.0905L17.2531 4.20792C16.3384 4.32778 16.5202 5.71598 17.4289 5.60316L19.9443 5.28628C20.3186 5.2553 20.6161 4.89778 20.5768 4.52395L20.3527 2.00011C20.3183 1.6133 19.9768 1.32741 19.5901 1.36191C19.2033 1.39627 18.9176 1.7377 18.9519 2.12447L19.0264 2.9633C18.2831 2.42517 17.4814 1.97442 16.6355 1.61991C15.1664 1.00378 13.6068 0.691406 12 0.691406C8.79469 0.691406 5.78123 1.93964 3.51473 4.20614C1.24823 6.47264 0 9.48609 0 12.6914C0 15.8967 1.24823 18.9102 3.51473 21.1767C5.78123 23.4432 8.79469 24.6914 12 24.6914C15.2053 24.6914 18.2188 23.4432 20.4853 21.1767C22.7518 18.9102 24 15.8967 24 12.6914C24 12.3031 23.6852 11.9883 23.2969 11.9883Z" fill="#484848"/>
</svg>
