<svg width="26" height="9" viewBox="0 0 26 9" fill="none" xmlns="http://www.w3.org/2000/svg">
<g clip-path="url(#clip0_423_51581)">
<path d="M7.62316 5.85672C7.58423 5.76262 7.54774 5.6637 7.50881 5.57925L7.32876 5.17632L7.32146 5.16908C6.78619 4.01095 6.21443 2.83352 5.6086 1.6754L5.58427 1.62714C5.52345 1.51374 5.46262 1.38828 5.39936 1.27246C5.3215 1.13494 5.24608 0.987757 5.12199 0.847816C5.00104 0.701393 4.84882 0.583422 4.67631 0.502418C4.50381 0.421413 4.31532 0.379395 4.12445 0.379395C3.93358 0.379395 3.74509 0.421413 3.57258 0.502418C3.40007 0.583422 3.24785 0.701393 3.1269 0.847816C3.01255 0.987757 2.92739 1.13494 2.84953 1.27246C2.78871 1.39793 2.72788 1.52098 2.66462 1.63438L2.64029 1.68263C2.0442 2.84076 1.4627 4.01819 0.927429 5.17632L0.91283 5.1908C0.859303 5.31626 0.796044 5.44655 0.735218 5.58649C0.69629 5.67094 0.657361 5.76262 0.618432 5.86396C0.513333 6.12931 0.479771 6.41724 0.521055 6.69938C0.562339 6.98151 0.677044 7.24811 0.853864 7.47289C1.03068 7.69768 1.26352 7.87289 1.52942 7.98127C1.79532 8.08965 2.08511 8.12745 2.37022 8.09094C2.64357 8.05526 2.90678 7.96497 3.14393 7.82554C3.46023 7.64941 3.76436 7.39365 4.10498 7.0245C4.44561 7.39365 4.75704 7.64941 5.06603 7.82795C5.36318 8.00091 5.69968 8.09637 6.04412 8.10542C6.44298 8.10706 6.82897 7.96555 7.13083 7.707C7.43269 7.44846 7.63003 7.09034 7.68642 6.69878C7.75159 6.41739 7.72954 6.12305 7.62316 5.85431V5.85672ZM4.12931 6.25724C3.71083 5.72643 3.43833 5.23905 3.34587 4.82164C3.30757 4.66697 3.29931 4.50648 3.32154 4.34874C3.33857 4.22569 3.3848 4.11712 3.44806 4.02543C3.59404 3.81552 3.84951 3.68523 4.12931 3.68523C4.26219 3.6812 4.394 3.70996 4.5129 3.76892C4.6318 3.82787 4.73409 3.91519 4.81056 4.02302C4.87382 4.11953 4.92005 4.22569 4.93465 4.34874C4.95898 4.48868 4.94925 4.65034 4.91032 4.82164C4.81786 5.23181 4.54536 5.72402 4.12931 6.25724ZM7.22901 6.61433C7.20136 6.81313 7.12167 7.00127 6.99788 7.16002C6.87408 7.31877 6.7105 7.44258 6.52343 7.51912C6.33851 7.59633 6.13414 7.61804 5.93463 7.59633C5.73999 7.5722 5.54534 7.50947 5.34583 7.39365C5.01458 7.19062 4.71671 6.93836 4.46264 6.6457C4.97358 6.01838 5.28257 5.44655 5.39936 4.93746C5.45532 4.69618 5.46262 4.47903 5.43829 4.27877C5.40791 4.08896 5.33653 3.90789 5.22905 3.74796C5.10632 3.57455 4.94252 3.43369 4.75203 3.33776C4.56154 3.24184 4.35021 3.1938 4.13661 3.19785C3.6865 3.19785 3.28505 3.40535 3.04174 3.74555C2.93222 3.90507 2.86143 4.08758 2.83493 4.27877C2.8033 4.48144 2.8106 4.70583 2.87386 4.93746C2.99065 5.44655 3.30694 6.02561 3.81058 6.65052C3.56083 6.94878 3.26226 7.20325 2.92739 7.4033C2.72545 7.51912 2.53324 7.57944 2.33859 7.60356C2.03589 7.64201 1.73013 7.56043 1.48775 7.37655C1.24537 7.19267 1.08598 6.92135 1.04421 6.62157C1.01988 6.42855 1.03692 6.23553 1.11477 6.01838C1.1391 5.94117 1.1756 5.86396 1.21453 5.77227C1.26805 5.64681 1.33131 5.51652 1.39214 5.38623L1.40187 5.36934C1.92741 4.21845 2.50161 3.04343 3.0977 1.89254L3.12203 1.84429C3.18286 1.72848 3.24369 1.60543 3.30694 1.48961C3.3702 1.36656 3.43833 1.24834 3.52592 1.15182C3.60173 1.06207 3.69647 0.989897 3.80345 0.940374C3.91043 0.89085 4.02706 0.865185 4.14513 0.865185C4.26319 0.865185 4.37982 0.89085 4.4868 0.940374C4.59379 0.989897 4.68852 1.06207 4.76434 1.15182C4.84949 1.24834 4.92005 1.36656 4.98331 1.48961C5.04414 1.60543 5.10496 1.73089 5.16822 1.84429L5.19255 1.89254C5.78621 3.04343 6.36041 4.21845 6.89568 5.36934L6.90298 5.37658C6.96624 5.50204 7.01977 5.64198 7.08059 5.76262C7.11952 5.85672 7.15845 5.93152 7.18278 6.01114C7.22901 6.22829 7.25334 6.42131 7.22901 6.61433ZM10.6158 6.20416C10.4325 6.20682 10.2509 6.16851 10.0845 6.09207C9.91813 6.01564 9.77125 5.90304 9.65475 5.76262C9.39297 5.46343 9.25404 5.07766 9.26546 4.6817C9.26146 4.27713 9.40488 3.88473 9.66935 3.57666C9.79168 3.43445 9.94396 3.32057 10.1155 3.24304C10.287 3.1655 10.4735 3.12619 10.662 3.12788C10.8394 3.12307 11.0151 3.16306 11.1725 3.2441C11.33 3.32513 11.4641 3.44456 11.5623 3.59113L11.5866 3.21233H12.297V6.12695H11.5842L11.5598 5.7023C11.4586 5.85881 11.3188 5.98707 11.1536 6.07491C10.9884 6.16274 10.8032 6.20723 10.6158 6.20416ZM10.8007 5.50928C10.9418 5.50928 11.0659 5.47068 11.1827 5.40071C11.2898 5.3235 11.3773 5.22216 11.4455 5.09911C11.5063 4.97606 11.5379 4.82888 11.5379 4.66481C11.5474 4.52231 11.5194 4.37981 11.4567 4.25125C11.3941 4.12268 11.2988 4.01245 11.1803 3.93133C11.0664 3.86097 10.9349 3.82367 10.8007 3.82367C10.6665 3.82367 10.535 3.86097 10.4212 3.93133C10.3141 4.00854 10.2265 4.10988 10.1584 4.23293C10.0941 4.36863 10.0624 4.51731 10.0659 4.66723C10.0564 4.80973 10.0844 4.95223 10.1471 5.08079C10.2098 5.20936 10.3051 5.31959 10.4236 5.40071C10.5379 5.47068 10.662 5.50928 10.8007 5.50928ZM13.5136 2.42577C13.5136 2.51021 13.499 2.58742 13.46 2.65015C13.4211 2.71047 13.3676 2.76597 13.297 2.80457C13.2265 2.84317 13.151 2.85765 13.0732 2.85765C12.9953 2.85765 12.9175 2.84317 12.8469 2.80457C12.7802 2.76773 12.7241 2.71457 12.6839 2.65015C12.6462 2.58142 12.6277 2.50395 12.6304 2.42577C12.6304 2.33891 12.6474 2.2617 12.6839 2.20138C12.7228 2.129 12.7788 2.08557 12.8469 2.04696C12.9175 2.00836 12.9929 1.99147 13.0732 1.99147C13.1506 1.9897 13.2272 2.00789 13.2954 2.04426C13.3637 2.08063 13.4212 2.13393 13.4625 2.19897C13.4979 2.26931 13.5154 2.34717 13.5136 2.42577ZM12.6863 6.1173V3.2075H13.46V6.12213H12.6839L12.6863 6.1173ZM15.5281 3.96994V3.97959C15.4916 3.9627 15.443 3.95546 15.4065 3.94822C15.3578 3.93857 15.3189 3.93857 15.2726 3.93857C15.0561 3.93857 14.8931 4.0013 14.786 4.13159C14.6693 4.26429 14.6157 4.45008 14.6157 4.68894V6.11971H13.8396V3.20509H14.5525L14.5768 3.64663C14.6547 3.49221 14.7471 3.3764 14.8785 3.28954C15.0092 3.20514 15.163 3.16299 15.3189 3.1689C15.3748 3.1689 15.4284 3.17372 15.4746 3.18337C15.4989 3.19061 15.5135 3.19061 15.5281 3.19785V3.96994ZM15.8395 6.1173V2.01077H16.6133V3.57907C16.7227 3.43913 16.8468 3.33055 17.0025 3.24611C17.2491 3.12625 17.5291 3.09225 17.7975 3.14959C18.0659 3.20694 18.307 3.35229 18.4818 3.56218C18.7442 3.86199 18.8832 4.24873 18.8711 4.64551C18.8751 5.05008 18.7317 5.44249 18.4672 5.75056C18.3449 5.89276 18.1926 6.00664 18.0211 6.08418C17.8496 6.16172 17.663 6.20102 17.4746 6.19933C17.2972 6.20415 17.1215 6.16416 16.964 6.08312C16.8066 6.00208 16.6725 5.88266 16.5743 5.73608L16.55 6.11489L15.8395 6.12213V6.1173ZM17.3359 5.50928C17.4746 5.50928 17.5986 5.47068 17.7154 5.40071C17.8225 5.3235 17.9101 5.22216 17.9782 5.09911C18.0415 4.97606 18.0706 4.82888 18.0706 4.66481C18.0706 4.50316 18.0415 4.35598 17.9782 4.23293C17.9143 4.11428 17.8245 4.01125 17.7154 3.93133C17.6015 3.86097 17.47 3.82367 17.3359 3.82367C17.2017 3.82367 17.0702 3.86097 16.9563 3.93133C16.8468 4.00854 16.7617 4.10988 16.6911 4.23293C16.6268 4.36863 16.5951 4.51731 16.5987 4.66723C16.5892 4.80973 16.6171 4.95223 16.6798 5.08079C16.7425 5.20936 16.8378 5.31959 16.9563 5.40071C17.0707 5.47068 17.1948 5.50928 17.3359 5.50928ZM19.1631 6.11971V3.20509H19.876L19.9003 3.58389C19.9899 3.43869 20.117 3.31986 20.2684 3.23969C20.4198 3.15951 20.5901 3.12091 20.7616 3.12788C20.9577 3.12452 21.1505 3.17858 21.3158 3.28329C21.4811 3.388 21.6116 3.53872 21.691 3.7166C21.7762 3.89997 21.8224 4.12677 21.8224 4.38011V6.12695H21.0463V4.48144C21.0463 4.27877 21 4.11953 20.9076 4.0013C20.8151 3.88549 20.6886 3.82276 20.528 3.82276C20.4112 3.82276 20.309 3.84689 20.219 3.89997C20.1339 3.95546 20.0633 4.02543 20.0098 4.12435C19.9557 4.22435 19.9288 4.33663 19.9319 4.45008V6.11971H19.1631ZM22.2093 6.11971V2.00836H22.9854V3.57666C23.0905 3.43593 23.2273 3.32145 23.3848 3.24229C23.5423 3.16314 23.7163 3.12148 23.8929 3.12064C24.0763 3.11798 24.2578 3.15629 24.4242 3.23273C24.5906 3.30916 24.7375 3.42177 24.854 3.56218C25.1145 3.86197 25.2524 4.24754 25.2408 4.6431C25.245 5.04771 25.1016 5.44018 24.8369 5.74815C24.7146 5.89035 24.5623 6.00423 24.3908 6.08177C24.2193 6.1593 24.0327 6.19861 23.8443 6.19692C23.6669 6.20173 23.4912 6.16174 23.3337 6.08071C23.1763 5.99967 23.0422 5.88025 22.944 5.73367L22.9221 6.11247L22.2093 6.11971ZM23.7129 5.50928C23.854 5.50928 23.9781 5.47068 24.0924 5.40071C24.2019 5.3235 24.2871 5.22216 24.3576 5.09911C24.4185 4.97606 24.4501 4.82888 24.4501 4.66481C24.4596 4.52231 24.4316 4.37981 24.3689 4.25125C24.3062 4.12268 24.2109 4.01245 24.0924 3.93133C23.9785 3.86097 23.8471 3.82367 23.7129 3.82367C23.5787 3.82367 23.4472 3.86097 23.3333 3.93133C23.2263 4.00854 23.1387 4.10988 23.0705 4.23293C23.0026 4.36742 22.9708 4.51699 22.9781 4.66723C22.9686 4.80973 22.9966 4.95223 23.0593 5.08079C23.122 5.20936 23.2172 5.31959 23.3357 5.40071C23.4501 5.47068 23.5669 5.50928 23.7129 5.50928Z" fill="#FF385C"/>
</g>
<defs>
<clipPath id="clip0_423_51581">
<rect width="24.817" height="7.72086" fill="white" transform="translate(0.539062 0.384766)"/>
</clipPath>
</defs>
</svg>
