<svg width="20" height="20" viewBox="0 0 20 20" fill="none" xmlns="http://www.w3.org/2000/svg">
<path d="M15.8338 18.9582C14.6672 18.9582 13.5755 18.4499 12.8255 17.5582C12.8172 17.5416 12.7672 17.4999 12.7255 17.4332C12.6339 17.3415 12.5255 17.1749 12.4338 17.0165C12.0672 16.4249 11.8672 15.7249 11.8672 14.9915C11.8672 13.7749 12.4089 12.6499 13.3505 11.8999C14.0505 11.3416 14.9339 11.0332 15.8255 11.0332C16.7922 11.0332 17.6839 11.3666 18.4005 11.9916C18.5005 12.0582 18.6172 12.1832 18.7255 12.2999C19.4005 13.0416 19.7755 13.9915 19.7755 14.9832C19.7755 15.7082 19.5755 16.4165 19.2005 17.0249C19.0005 17.3749 18.7255 17.6915 18.4088 17.9582C17.7338 18.6082 16.8088 18.9582 15.8338 18.9582ZM15.8338 12.2915C15.2172 12.2915 14.6339 12.4999 14.1422 12.8915C13.5005 13.3999 13.1255 14.1749 13.1255 14.9999C13.1255 15.4915 13.2589 15.9749 13.5172 16.3915C13.5839 16.5082 13.6505 16.5999 13.7255 16.6916C13.7422 16.7082 13.7922 16.7582 13.8339 16.8249C14.2922 17.3665 15.0422 17.7166 15.8338 17.7166C16.4922 17.7166 17.1255 17.4749 17.6089 17.0416C17.8255 16.8582 18.0089 16.6415 18.1422 16.4082C18.4089 15.9832 18.5422 15.4999 18.5422 15.0082C18.5422 14.3332 18.2839 13.6749 17.8172 13.1665C17.7589 13.0999 17.6922 13.0332 17.6255 12.9832C17.1005 12.5166 16.4922 12.2915 15.8338 12.2915Z" fill="currentColor"/>
<path d="M17.0757 15.6084H14.584C14.2423 15.6084 13.959 15.3251 13.959 14.9834C13.959 14.6417 14.2423 14.3584 14.584 14.3584H17.0757C17.4173 14.3584 17.7007 14.6417 17.7007 14.9834C17.7007 15.3251 17.4257 15.6084 17.0757 15.6084Z" fill="currentColor"/>
<path d="M15.834 16.8833C15.4923 16.8833 15.209 16.5999 15.209 16.2583V13.7666C15.209 13.4249 15.4923 13.1416 15.834 13.1416C16.1757 13.1416 16.459 13.4249 16.459 13.7666V16.2583C16.459 16.6083 16.1757 16.8833 15.834 16.8833Z" fill="currentColor"/>
<path d="M9.99978 11.0834C9.89145 11.0834 9.78311 11.0584 9.68311 11.0001L2.32478 6.74175C2.02478 6.56675 1.92479 6.18339 2.09979 5.88339C2.27479 5.58339 2.65811 5.48337 2.94978 5.65837L9.99145 9.73339L16.9914 5.6834C17.2914 5.5084 17.6748 5.61675 17.8415 5.90841C18.0165 6.20841 17.9081 6.59172 17.6164 6.76672L10.3081 11.0001C10.2164 11.0501 10.1081 11.0834 9.99978 11.0834Z" fill="currentColor"/>
<path d="M10 18.6335C9.65833 18.6335 9.375 18.3502 9.375 18.0085V10.4502C9.375 10.1085 9.65833 9.8252 10 9.8252C10.3417 9.8252 10.625 10.1085 10.625 10.4502V18.0085C10.625 18.3502 10.3417 18.6335 10 18.6335Z" fill="currentColor"/>
<path d="M9.99908 18.9586C9.26575 18.9586 8.53242 18.8002 7.96575 18.4752L3.51575 16.0086C2.30742 15.3419 1.35742 13.7336 1.35742 12.3503V7.63357C1.35742 6.25024 2.30742 4.65028 3.51575 3.97528L7.96575 1.50859C9.09908 0.866927 10.8824 0.866927 12.0241 1.50859L16.4741 3.97528C17.6824 4.64195 18.6324 6.25024 18.6324 7.63357V12.3503C18.6324 12.4336 18.6324 12.5002 18.6157 12.5836C18.5741 12.8002 18.4158 12.9836 18.2074 13.0502C17.9991 13.1252 17.7658 13.0753 17.5908 12.9336C16.6324 12.1003 15.1491 12.0669 14.1408 12.8753C13.4991 13.3836 13.1241 14.1586 13.1241 14.9836C13.1241 15.4752 13.2574 15.9586 13.5158 16.3753C13.5824 16.4919 13.6491 16.5836 13.7241 16.6753C13.8491 16.8169 13.8991 17.0086 13.8658 17.1919C13.8324 17.3753 13.7157 17.5336 13.5491 17.6253L12.0241 18.4669C11.4574 18.8002 10.7324 18.9586 9.99908 18.9586ZM9.99908 2.29193C9.48242 2.29193 8.95742 2.40027 8.58242 2.6086L4.13242 5.07528C3.32409 5.51695 2.62408 6.71691 2.62408 7.63357V12.3503C2.62408 13.2669 3.33242 14.4669 4.13242 14.9086L8.58242 17.3752C9.34075 17.8002 10.6658 17.8002 11.4241 17.3752L12.3574 16.8586C12.0491 16.3002 11.8824 15.6502 11.8824 14.9836C11.8824 13.7669 12.4241 12.6419 13.3657 11.8919C14.4991 10.9836 16.1241 10.7919 17.3907 11.3336V7.61694C17.3907 6.70027 16.6824 5.50027 15.8824 5.0586L11.4324 2.59192C11.0408 2.40025 10.5158 2.29193 9.99908 2.29193Z" fill="currentColor"/>
</svg>
