<svg width="24" height="25" viewBox="0 0 24 25" fill="none" xmlns="http://www.w3.org/2000/svg">
<g clip-path="url(#clip0_629_35375)">
<g clip-path="url(#clip1_629_35375)">
<path d="M23.6246 5.93925C23.3027 5.54091 22.8242 5.31248 22.3119 5.31248H4.0189L3.85554 4.14174C3.73985 3.31272 3.02136 2.6875 2.18422 2.6875H0.749996C0.335811 2.6875 0 3.02331 0 3.4375C0 3.85168 0.335811 4.18749 0.749996 4.18749H2.18422C2.27722 4.18749 2.3571 4.25696 2.36989 4.34907L4.39436 18.8582C4.51005 19.6872 5.22855 20.3124 6.06568 20.3124H6.87891C6.79566 20.5471 6.74991 20.7995 6.74991 21.0624C6.74991 22.303 7.75927 23.3124 8.9999 23.3124C10.2405 23.3124 11.2499 22.303 11.2499 21.0624C11.2499 20.7995 11.2041 20.5471 11.1209 20.3124H15.1289C15.0456 20.5471 14.9999 20.7995 14.9999 21.0624C14.9999 22.303 16.0092 23.3124 17.2499 23.3124C18.4905 23.3124 19.4998 22.303 19.4998 21.0624C19.4998 20.7995 19.4541 20.5471 19.3708 20.3124H20.9999C21.4141 20.3124 21.7499 19.9766 21.7499 19.5624C21.7499 19.1482 21.4141 18.8124 20.9999 18.8124H6.06573C5.97273 18.8124 5.89286 18.7429 5.88006 18.6508L5.69331 17.3124H20.4636C21.2538 17.3124 21.9478 16.7516 22.1139 15.9785L23.9621 7.35364C24.0695 6.85298 23.9465 6.33745 23.6246 5.93925ZM9.74994 21.0624C9.74994 21.4759 9.41348 21.8124 8.99995 21.8124C8.58642 21.8124 8.24995 21.4759 8.24995 21.0624C8.24995 20.6489 8.58642 20.3124 8.99995 20.3124C9.41348 20.3124 9.74994 20.6488 9.74994 21.0624ZM17.9999 21.0624C17.9999 21.4759 17.6634 21.8124 17.2499 21.8124C16.8364 21.8124 16.4999 21.4759 16.4999 21.0624C16.4999 20.6489 16.8364 20.3124 17.2499 20.3124C17.6634 20.3124 17.9999 20.6488 17.9999 21.0624ZM22.4954 7.03921L20.6472 15.6638C20.6288 15.7499 20.5515 15.8124 20.4636 15.8124H5.48397L4.22819 6.81243H22.3119C22.3861 6.81243 22.4323 6.8503 22.458 6.88208C22.4836 6.91382 22.5109 6.96684 22.4954 7.03921Z" fill="#484848"/>
</g>
</g>
<defs>
<clipPath id="clip0_629_35375">
<rect width="24" height="24" fill="white" transform="translate(0 0.691406)"/>
</clipPath>
<clipPath id="clip1_629_35375">
<rect width="24" height="24" fill="white" transform="translate(0 1)"/>
</clipPath>
</defs>
</svg>
