<svg width="20" height="20" viewBox="0 0 20 20" fill="none" xmlns="http://www.w3.org/2000/svg">
<path d="M10.0013 18.9582C5.05964 18.9582 1.04297 14.9415 1.04297 9.99984C1.04297 5.05817 5.05964 1.0415 10.0013 1.0415C14.943 1.0415 18.9596 5.05817 18.9596 9.99984C18.9596 14.9415 14.943 18.9582 10.0013 18.9582ZM10.0013 2.2915C5.7513 2.2915 2.29297 5.74984 2.29297 9.99984C2.29297 14.2498 5.7513 17.7082 10.0013 17.7082C14.2513 17.7082 17.7096 14.2498 17.7096 9.99984C17.7096 5.74984 14.2513 2.2915 10.0013 2.2915Z" fill="#292D32"/>
<path d="M13.0909 13.275C12.9826 13.275 12.8742 13.25 12.7742 13.1833L10.1909 11.6416C9.54922 11.2583 9.07422 10.4166 9.07422 9.67497V6.2583C9.07422 5.91663 9.35755 5.6333 9.69922 5.6333C10.0409 5.6333 10.3242 5.91663 10.3242 6.2583V9.67497C10.3242 9.97497 10.5742 10.4166 10.8326 10.5666L13.4159 12.1083C13.7159 12.2833 13.8076 12.6666 13.6326 12.9666C13.5076 13.1666 13.2992 13.275 13.0909 13.275Z" fill="#292D32"/>
</svg>
