<svg width="42" height="63" viewBox="0 0 42 63" fill="none" xmlns="http://www.w3.org/2000/svg">
<path d="M31.7634 10.2301L40.058 11.504C40.1106 11.5121 40.1643 11.5161 40.216 11.5161C40.7192 11.5161 41.1607 11.1495 41.2397 10.6362C41.3268 10.0701 40.9379 9.54158 40.3719 9.4545L31.7054 8.12347C31.0514 3.84909 27.354 0.560059 22.8918 0.560059C14.2222 0.560059 7.16961 7.61668 7.16961 16.2904V47.5495C3.44233 48.0568 0.560547 51.2616 0.560547 55.1256C0.560547 59.342 3.99013 62.7726 8.20649 62.7726C12.4188 62.7726 15.8453 59.342 15.8453 55.1256V48.6948C15.8453 45.7593 16.9916 42.998 19.0724 40.9162C21.1441 38.8363 23.9064 37.6911 26.849 37.6911C27.3634 37.6911 27.7998 37.3144 27.8747 36.8061L28.0124 35.8753L36.1252 37.121C36.1778 37.1291 36.2315 37.1332 36.2831 37.1332C36.7864 37.1332 37.2279 36.7666 37.3068 36.2533C37.3939 35.6872 37.0051 35.1587 36.4391 35.0716L28.3157 33.8242L28.5539 32.2133L36.6841 33.4586C36.7378 33.4667 36.7904 33.4707 36.8421 33.4707C37.3453 33.4707 37.7878 33.1042 37.8658 32.5908C37.9529 32.0248 37.564 31.4952 36.998 31.4091L28.8572 30.1622L29.0951 28.5521L37.2491 29.8052C37.3028 29.8133 37.3564 29.8174 37.4081 29.8174C37.9113 29.8174 38.3528 29.4508 38.4318 28.9384C38.5189 28.3724 38.1311 27.8428 37.565 27.7558L29.3985 26.5007L29.6368 24.8892L37.8091 26.1437C37.8617 26.1518 37.9154 26.1559 37.967 26.1559C38.4703 26.1559 38.9118 25.7893 38.9907 25.276C39.0778 24.7099 38.689 24.1814 38.123 24.0943L29.9401 22.8381L30.1793 21.2202L38.366 22.4813C38.4197 22.4894 38.4723 22.4934 38.525 22.4934C39.0282 22.4934 39.4697 22.1269 39.5487 21.6145C39.6358 21.0485 39.2479 20.5189 38.6819 20.4318L30.4826 19.1689L30.7195 17.5669L38.934 18.8279C38.9867 18.836 39.0404 18.84 39.092 18.84C39.5952 18.84 40.0367 18.4735 40.1157 17.9601C40.2028 17.3941 39.814 16.8655 39.2479 16.7784L31.0228 15.5158L31.261 13.905L39.492 15.1664C39.5446 15.1745 39.5983 15.1786 39.6499 15.1786C40.1532 15.1786 40.5957 14.812 40.6736 14.2987C40.7607 13.7326 40.3719 13.203 39.8059 13.117L31.5643 11.8539L31.7235 10.7769C31.7502 10.584 31.7479 10.413 31.7634 10.2301ZM17.6052 39.451C15.1335 41.9227 13.7716 45.2054 13.7716 48.6948V55.1256C13.7716 58.1988 11.2756 60.6988 8.20649 60.6988C5.13434 60.6988 2.6343 58.1988 2.6343 55.1256C2.6343 52.0535 5.13434 49.5534 8.20649 49.5534C8.7796 49.5534 9.24336 49.0897 9.24336 48.5165V16.2904C9.24336 8.75988 15.3664 2.63381 22.8918 2.63381C26.6708 2.63381 29.7449 5.70089 29.7449 9.4707C29.7449 9.7927 29.7206 10.1269 29.671 10.4833L29.3645 12.556C29.364 12.5593 29.3617 12.5618 29.3612 12.5651C29.3607 12.5687 29.3622 12.5718 29.3617 12.5754L28.824 16.2116C28.823 16.217 28.8192 16.2211 28.8184 16.2266C28.8175 16.2324 28.8201 16.2377 28.8192 16.2435L27.1976 27.2105L26.6573 30.8629C26.6567 30.8668 26.6541 30.8696 26.6535 30.8735C26.6529 30.8775 26.6547 30.8811 26.6541 30.8851L26.1168 34.5187C26.1157 34.5246 26.1117 34.529 26.1108 34.5349C26.1098 34.5412 26.1126 34.547 26.1117 34.5532L25.9498 35.6477C22.7906 35.8604 19.8551 37.1919 17.6052 39.451Z" fill="#2563EB"/>
</svg>
