<svg width="45" height="63" viewBox="0 0 45 63" fill="none" xmlns="http://www.w3.org/2000/svg">
<path d="M1.59742 28.8549C1.02431 28.8549 0.560547 29.3192 0.560547 29.8918V30.0097C0.560547 32.4733 2.56544 34.4777 5.02903 34.4777H9.14413L11.0012 59.8796C11.067 60.7342 11.4852 61.5332 12.1494 62.0729C12.7124 62.5311 13.399 62.7731 14.1169 62.7731C14.2556 62.7731 14.3943 62.764 14.5341 62.7457C16.0803 62.5462 17.2467 61.1702 17.2467 59.5445V4.69845C17.2467 2.41661 15.3907 0.560059 13.1084 0.560059H5.02903C2.56544 0.560059 0.560547 2.56445 0.560547 5.02804C0.560547 5.60065 1.02431 6.06491 1.59742 6.06491H10.0514V8.19233H2.00853C1.43541 8.19233 0.971652 8.65659 0.971652 9.2292C0.971652 9.80182 1.43541 10.2661 2.00853 10.2661H10.0514V12.2816H2.00853C1.43541 12.2816 0.971652 12.7459 0.971652 13.3185C0.971652 13.8911 1.43541 14.3554 2.00853 14.3554H10.0514V16.3709H2.00853C1.43541 16.3709 0.971652 16.8351 0.971652 17.4078C0.971652 17.9804 1.43541 18.4446 2.00853 18.4446H10.0514V20.4602H2.00853C1.43541 20.4602 0.971652 20.9244 0.971652 21.497C0.971652 22.0696 1.43541 22.5339 2.00853 22.5339H10.0514V24.5494H2.00853C1.43541 24.5494 0.971652 25.0137 0.971652 25.5863C0.971652 26.1589 1.43541 26.6232 2.00853 26.6232H10.0514V28.8549H1.59742ZM2.87023 3.99116C3.25804 3.1887 4.08025 2.63381 5.02903 2.63381H13.1084C14.2465 2.63381 15.173 3.55981 15.173 4.69845V59.5445C15.173 60.1211 14.7761 60.6239 14.2688 60.6892C13.9771 60.7272 13.6835 60.6477 13.4567 60.4634C13.2299 60.2786 13.0911 60.0148 13.0689 59.7247L11.1419 33.3654C11.1024 32.8232 10.6519 32.404 10.1081 32.404H5.02903C4.03367 32.404 3.17906 31.7939 2.81757 30.9286H11.0883C11.6614 30.9286 12.1251 30.4644 12.1251 29.8918V5.02804C12.1251 4.45543 11.6614 3.99116 11.0883 3.99116H2.87023Z" fill="#2563EB"/>
<path d="M23.846 29.8122C23.3306 29.6988 22.8183 29.994 22.6492 30.4916C22.4801 30.9888 22.7079 31.5336 23.1818 31.7609C24.0566 32.1816 24.8778 32.7472 25.6666 33.4848C27.3313 35.0766 28.194 37.485 27.9743 39.9263L26.6255 54.9179C26.6063 55.1412 26.5962 55.3544 26.5962 55.568C26.5962 59.5434 29.8344 62.7775 33.8148 62.7775C35.8369 62.7775 37.78 61.9209 39.144 60.4268C40.5079 58.9343 41.1853 56.9239 41.0031 54.9119L39.6563 39.942C39.5186 38.4115 39.8376 36.839 40.5778 35.394C48.0749 20.7704 44.7597 6.87642 37.3892 2.39021C31.8788 -0.965961 24.7897 1.03843 21.0584 2.53147C20.5764 2.72436 20.3111 3.24381 20.4377 3.74706C20.5633 4.25031 21.0371 4.58142 21.5596 4.52472C23.3671 4.32119 27.3987 4.17861 31.0337 6.19951H21.4432C20.8701 6.19951 20.4063 6.66378 20.4063 7.23639C20.4063 7.809 20.8701 8.27326 21.4432 8.27326H33.7444C34.55 9.09104 35.2453 10.0425 35.8304 11.0857H21.4432C20.8701 11.0857 20.4063 11.5499 20.4063 12.1226C20.4063 12.6952 20.8701 13.1594 21.4432 13.1594H36.8074C37.1465 14.0611 37.3961 15.0057 37.5711 15.9719H21.4432C20.8701 15.9719 20.4063 16.4361 20.4063 17.0087C20.4063 17.5813 20.8701 18.0456 21.4432 18.0456H37.824C37.8538 18.6337 37.8564 19.2244 37.8205 19.8146C37.7991 20.1675 37.7564 20.5089 37.7121 20.8494H21.4432C20.8701 20.8494 20.4063 21.3137 20.4063 21.8863C20.4063 22.4589 20.8701 22.9232 21.4432 22.9232H37.2756C36.9752 23.9457 36.5699 24.8946 36.0443 25.7356H21.4432C20.8701 25.7356 20.4063 26.1999 20.4063 26.7725C20.4063 27.3451 20.8701 27.8093 21.4432 27.8093H34.28C34.1018 27.9671 33.9281 28.1303 33.7378 28.2736C30.6232 30.6197 26.6397 30.4046 23.846 29.8122ZM36.3118 4.1612C42.8905 8.16593 45.6862 20.8838 38.7329 34.4483C37.8124 36.242 37.4175 38.2059 37.5907 40.1278L38.9374 55.0977C39.0701 56.5527 38.5992 57.9491 37.613 59.0285C36.6267 60.1089 35.277 60.7038 33.8148 60.7038C30.9776 60.7038 28.6699 58.3997 28.6699 55.568C28.6699 55.4111 28.678 55.2546 28.6912 55.0977L30.0399 40.1121C30.3042 37.1706 29.3595 34.3622 27.388 32.2788H27.3991C29.8931 32.2788 32.6159 31.7148 34.9853 29.9302C37.8904 27.744 39.632 24.196 39.8902 19.9401C39.9491 18.9724 39.9033 18.0049 39.806 17.0449C39.8064 17.0321 39.8133 17.0216 39.8133 17.0087C39.8133 16.9719 39.7961 16.9407 39.7923 16.9048C39.5995 15.1381 39.1536 13.4192 38.4824 11.8197C38.4611 11.751 38.4345 11.6886 38.4 11.6268C37.5599 9.68941 36.411 7.93519 34.9712 6.54885C32.7759 4.43409 30.2171 3.34102 27.8528 2.80587C30.6566 2.41451 33.7267 2.58766 36.3118 4.1612Z" fill="#2563EB"/>
</svg>
