<svg width="48" height="49" viewBox="0 0 48 49" fill="none" xmlns="http://www.w3.org/2000/svg">
<g clip-path="url(#clip0_423_49050)">
<path d="M28.4137 1.29475C27.9057 1.20009 27.4168 1.53671 27.3229 2.04535C27.2288 2.5539 27.5648 3.04222 28.0735 3.13623C38.5351 5.07031 46.1283 14.2089 46.1283 24.8659C46.1283 37.051 36.215 46.9643 24.0298 46.9643C11.8447 46.9643 1.93134 37.051 1.93134 24.8659C1.93134 14.2089 9.52451 5.07022 19.9862 3.13632C20.4948 3.04231 20.8308 2.5539 20.7368 2.04545C20.6428 1.53681 20.1542 1.20027 19.6459 1.29485C8.29627 3.39289 0.0585938 13.3059 0.0585938 24.8659C0.0585938 31.2688 2.55207 37.2885 7.07954 41.8161C11.6072 46.3436 17.6269 48.8371 24.0298 48.8371C30.4327 48.8371 36.4524 46.3436 40.9801 41.8161C45.5075 37.2885 48.001 31.2688 48.001 24.8659C48.001 13.3059 39.7634 3.39289 28.4137 1.29475Z" fill="#635BFF" fill-opacity="0.7"/>
<path d="M24.0301 2.76728C24.5473 2.76728 24.9665 2.34805 24.9665 1.83091C24.9665 1.31376 24.5473 0.894531 24.0301 0.894531C23.513 0.894531 23.0938 1.31376 23.0938 1.83091C23.0938 2.34805 23.513 2.76728 24.0301 2.76728Z" fill="#635BFF" fill-opacity="0.7"/>
<path d="M37.2106 9.92682C37.1979 9.66314 37.0745 9.41706 36.8707 9.24926C33.2631 6.27692 28.7028 4.64014 24.0304 4.64014C12.878 4.64014 3.80469 13.7134 3.80469 24.8659C3.80469 29.5383 5.44147 34.0985 8.41381 37.7062C8.74604 38.128 9.42678 38.1612 9.79862 37.7729L12.6032 34.9684C12.8852 35.5358 13.2479 36.0561 13.712 36.509L11.1233 39.0977C10.7353 39.469 10.7681 40.1504 11.1901 40.4825C14.7977 43.4548 19.358 45.0916 24.0304 45.0916C35.1829 45.0916 44.2561 36.0184 44.2561 24.8659C44.2561 20.1934 42.6193 15.6332 39.647 12.0255C39.4792 11.8218 39.2331 11.6983 38.9694 11.6856C38.7051 11.6725 38.4488 11.772 38.2622 11.9588L33.2705 16.9505L33.0756 16.3467C32.9482 15.9518 32.7763 15.494 32.564 15.0075L36.9374 10.634C37.1241 10.4474 37.2234 10.1905 37.2106 9.92682ZM12.0328 27.1212C11.8805 27.4324 11.5614 27.6476 11.1922 27.6476C10.6759 27.6476 10.2558 27.2276 10.2558 26.7113C10.2558 26.1949 10.6759 25.7749 11.1922 25.7749C11.8726 25.7616 12.3381 26.5182 12.0328 27.1212ZM13.516 29.4119C13.5495 27.4511 14.544 25.9014 16.1723 24.6036C17.8845 23.2691 20.1427 22.5038 22.3679 22.5038C24.3554 22.5038 26.2689 23.1217 27.7561 24.2434C28.0207 24.4431 28.3712 24.4879 28.6776 24.3613C28.9839 24.2346 29.2006 23.9556 29.2471 23.6273C29.3559 22.8596 29.6876 22.1789 30.2065 21.6587C30.706 21.2792 30.7479 20.5139 30.2312 20.1305C29.6737 19.7098 29.1152 19.2899 28.5575 18.8706C27.2918 17.9173 26.1068 16.9589 25.5157 15.7181C25.0009 14.6381 24.709 12.7055 25.7174 11.9874C26.3321 11.5497 26.8926 11.4367 27.4809 11.6318C29.1985 12.2007 30.731 15.1785 31.2935 16.9219C31.6162 17.9223 31.9727 19.0281 32.2945 20.0227C32.4109 20.3824 32.732 20.6368 33.1087 20.6678C34.2627 20.7626 35.3854 21.3021 36.2702 22.1875C37.1684 23.0854 37.7095 24.2244 37.7939 25.3947C37.8745 26.5143 37.5224 27.5274 36.8023 28.2476C35.6019 29.4481 33.6302 29.5894 31.896 28.5987C31.6454 28.4557 31.3431 28.4361 31.0763 28.5455C30.8094 28.6549 30.6079 28.8812 30.53 29.1589C30.3411 29.832 30.0991 30.496 29.811 31.1323C29.5335 31.7439 29.2091 32.3398 28.8468 32.9035C28.6617 33.1916 28.6487 33.5578 28.8128 33.8585C28.977 34.1591 29.2921 34.3461 29.6346 34.3461H30.4816C31.0258 34.3466 31.4687 34.7895 31.4692 35.3329C31.4692 35.8767 31.0264 36.3189 30.4823 36.3189H28.4239C27.523 36.3189 26.6515 36.0245 25.9033 35.4671C25.5843 35.2297 25.2612 35.0248 24.9418 34.8574C23.4968 34.1029 21.72 34.4296 19.66 35.8281C18.9369 36.3306 18.4263 36.3214 17.3744 36.3188C16.7455 36.3188 16.0703 35.9318 15.5522 35.5947C13.758 34.4272 13.516 31.814 13.516 29.4119ZM27.4313 20.3669C27.7223 20.5858 28.0135 20.8046 28.3043 21.0235C28.0881 21.3323 27.9061 21.6641 27.7601 22.0148C27.2797 21.745 26.7746 21.5133 26.2514 21.3201L27.3023 20.2692C27.3454 20.3018 27.3882 20.3344 27.4313 20.3669ZM38.8364 14.033C41.1303 17.1643 42.3834 20.9722 42.3834 24.8659C42.3834 34.9857 34.1503 43.2188 24.0304 43.2188C20.1368 43.2188 16.3288 41.9658 13.1976 39.6718L15.2671 37.6023C15.8945 37.9364 16.6488 38.2084 17.4476 38.1917C18.6 38.1921 19.5118 38.1923 20.7117 37.3776C21.7055 36.7031 23.0957 36.0061 24.0736 36.5169C24.3052 36.6382 24.5447 36.7906 24.7849 36.9693C25.8585 37.769 27.1167 38.1918 28.4238 38.1918H30.4821C32.0589 38.1918 33.3417 36.9093 33.3417 35.3323C33.3407 34.0044 32.4289 32.8844 31.1986 32.5648C31.3098 32.3473 31.4158 32.1273 31.5165 31.9054C31.6933 31.5151 31.8547 31.1158 31.9994 30.7108C34.2091 31.5391 36.5673 31.1309 38.1263 29.5719C39.2366 28.4615 39.7819 26.9303 39.6616 25.2602C39.5449 23.6408 38.8106 22.0792 37.5945 20.8635C36.5746 19.843 35.3079 19.1615 33.9692 18.9003L38.8364 14.033ZM31.6667 13.2563C30.7741 11.7607 29.5534 10.3456 28.0698 9.85406C26.9156 9.47165 25.7264 9.68186 24.631 10.462C22.6068 11.9034 23.04 14.8769 23.8251 16.5238C24.3058 17.5327 25.0186 18.3474 25.8395 19.0835L24.1513 20.7717C23.5663 20.6788 22.9696 20.6312 22.368 20.6312C19.7337 20.6312 17.0559 21.5407 15.0212 23.1265C14.3475 23.6516 13.7677 24.2279 13.2877 24.843C12.7729 24.2662 12.0245 23.9021 11.1923 23.9021C9.64336 23.9021 8.38319 25.1623 8.38319 26.7113C8.38319 28.2602 9.64336 29.5204 11.1923 29.5204C11.346 29.5204 11.4965 29.5075 11.6436 29.4837C11.6459 30.6453 11.7053 31.8504 11.9402 32.9829L9.22443 35.6987C6.9305 32.5674 5.67744 28.7595 5.67744 24.8659C5.67744 14.746 13.9105 6.51289 24.0304 6.51289C27.924 6.51289 31.732 7.76595 34.8632 10.0599L31.6667 13.2563Z" fill="#635BFF" fill-opacity="0.7"/>
<path d="M34.077 24.9592C34.5941 24.9592 35.0134 24.5399 35.0134 24.0228C35.0134 23.5057 34.5941 23.0864 34.077 23.0864C33.5599 23.0864 33.1406 23.5057 33.1406 24.0228C33.1406 24.5399 33.5599 24.9592 34.077 24.9592Z" fill="#635BFF" fill-opacity="0.7"/>
</g>
<defs>
<clipPath id="clip0_423_49050">
<rect width="47.9424" height="47.9424" fill="white" transform="translate(0.0585938 0.894531)"/>
</clipPath>
</defs>
</svg>
