<svg width="49" height="49" viewBox="0 0 49 49" fill="none" xmlns="http://www.w3.org/2000/svg">
<path d="M35.0225 35.3567C34.6083 35.3567 34.2734 35.0211 34.2734 34.6076V28.6148C34.2734 28.2013 34.6083 27.8657 35.0225 27.8657C35.4368 27.8657 35.7716 28.2013 35.7716 28.6148V34.6076C35.7716 35.0211 35.4368 35.3567 35.0225 35.3567Z" fill="#635BFF" fill-opacity="0.7"/>
<path d="M41.0153 35.3571H35.0225C34.6083 35.3571 34.2734 35.0215 34.2734 34.608C34.2734 34.1945 34.6083 33.8589 35.0225 33.8589H41.0153C41.4296 33.8589 41.7644 34.1945 41.7644 34.608C41.7644 35.0215 41.4296 35.3571 41.0153 35.3571Z" fill="#635BFF" fill-opacity="0.7"/>
<path d="M20.6317 42.8483C20.5021 42.8483 20.3732 42.8153 20.2571 42.7479L4.68705 33.7587C4.45483 33.6246 4.3125 33.3774 4.3125 33.11V15.1316C4.3125 14.8641 4.45483 14.6162 4.68705 14.4828L20.2571 5.49363C20.4893 5.35954 20.774 5.35954 21.0062 5.49363L36.5763 14.4828C36.8085 14.6169 36.9508 14.8641 36.9508 15.1316V22.6803C36.9508 23.0938 36.616 23.4293 36.2017 23.4293C35.7875 23.4293 35.4526 23.0938 35.4526 22.6803V15.5638L20.6317 7.00757L5.8107 15.5638V32.6777L20.6317 41.234L23.9352 39.3268C24.294 39.1193 24.7517 39.2421 24.9585 39.6009C25.1652 39.9598 25.0424 40.4175 24.6843 40.6242L21.0062 42.7472C20.8901 42.8146 20.7612 42.8483 20.6317 42.8483Z" fill="#635BFF" fill-opacity="0.7"/>
<path d="M34.954 44.3395C34.9533 44.3395 34.954 44.3395 34.954 44.3395C34.0214 44.3395 33.0932 44.2009 32.1936 43.9282C28.7462 42.8825 26.0989 39.9206 25.4472 36.3818C24.7835 32.7794 26.2442 29.0286 29.171 26.8248C30.8355 25.5715 32.921 24.8809 35.0432 24.8809C36.5788 24.8809 38.0995 25.2427 39.4426 25.9281C42.675 27.5761 44.7627 30.983 44.7627 34.6079C44.7627 37.2208 43.7095 39.6801 41.7963 41.5311C39.9535 43.3155 37.459 44.3395 34.954 44.3395ZM35.0432 26.3791C33.2446 26.3791 31.4782 26.9626 30.0721 28.0211C27.5956 29.8864 26.3588 33.0618 26.9207 36.1099C27.4712 39.104 29.7126 41.6098 32.6281 42.4937C35.4349 43.3454 38.6074 42.5319 40.7543 40.4539C42.3739 38.8883 43.2645 36.8118 43.2645 34.6079C43.2645 31.5404 41.4974 28.6571 38.7624 27.2623C37.6298 26.6847 36.3436 26.3791 35.0432 26.3791Z" fill="#635BFF" fill-opacity="0.7"/>
<path d="M11.3514 19.5094C11.0922 19.5094 10.8405 19.3753 10.702 19.1349C10.4952 18.776 10.6181 18.3183 10.9761 18.1116L26.5462 9.12238C26.9028 8.91488 27.362 9.03773 27.5695 9.39655C27.7762 9.75537 27.6534 10.2131 27.2953 10.4198L11.7252 19.409C11.6076 19.4772 11.4788 19.5094 11.3514 19.5094Z" fill="#635BFF" fill-opacity="0.7"/>
<path d="M14.3514 21.2405C14.0922 21.2405 13.8405 21.1064 13.702 20.866C13.4952 20.5071 13.6181 20.0494 13.9761 19.8427L29.5462 10.8535C29.9035 10.6467 30.362 10.7688 30.5695 11.1277C30.7762 11.4865 30.6534 11.9442 30.2953 12.1509L14.7252 21.1401C14.6076 21.2083 14.4788 21.2405 14.3514 21.2405Z" fill="#635BFF" fill-opacity="0.7"/>
<path d="M14.3507 26.4302C13.9372 26.4302 13.6016 26.0946 13.6016 25.6811V20.4913C13.6016 20.0778 13.9372 19.7422 14.3507 19.7422C14.7642 19.7422 15.0998 20.0778 15.0998 20.4913V25.6811C15.0998 26.0946 14.7642 26.4302 14.3507 26.4302Z" fill="#635BFF" fill-opacity="0.7"/>
<path d="M14.3465 26.4295C14.2199 26.4295 14.0903 26.3973 13.9727 26.3291L10.9763 24.5987C10.6175 24.3919 10.4954 23.9335 10.7021 23.5754C10.9089 23.2174 11.3673 23.093 11.7254 23.3013L14.7218 25.0317C15.0806 25.2384 15.2027 25.6969 14.996 26.0549C14.8574 26.2954 14.6057 26.4295 14.3465 26.4295Z" fill="#635BFF" fill-opacity="0.7"/>
<path d="M11.3507 24.6992C10.9372 24.6992 10.6016 24.3636 10.6016 23.9501V18.7603C10.6016 18.3468 10.9372 18.0112 11.3507 18.0112C11.7642 18.0112 12.0998 18.3468 12.0998 18.7603V23.9501C12.0998 24.3644 11.7642 24.6992 11.3507 24.6992Z" fill="#635BFF" fill-opacity="0.7"/>
<path d="M20.6319 42.8477C20.2184 42.8477 19.8828 42.5121 19.8828 42.0986V24.1202C19.8828 23.7067 20.2184 23.3711 20.6319 23.3711C21.0454 23.3711 21.381 23.7067 21.381 24.1202V42.0986C21.381 42.5121 21.0454 42.8477 20.6319 42.8477Z" fill="#635BFF" fill-opacity="0.7"/>
<path d="M20.6311 24.8691C20.5045 24.8691 20.3756 24.8369 20.2573 24.7687L4.68723 15.7795C4.32841 15.5728 4.20631 15.1143 4.41306 14.7562C4.61981 14.3982 5.07751 14.2746 5.43633 14.4821L21.0064 23.4713C21.3652 23.678 21.4873 24.1365 21.2806 24.4946C21.1412 24.735 20.8895 24.8691 20.6311 24.8691Z" fill="#635BFF" fill-opacity="0.7"/>
<path d="M20.6327 24.8693C20.3735 24.8693 20.1218 24.7352 19.9832 24.4947C19.7765 24.1359 19.8993 23.6782 20.2574 23.4714L35.8274 14.4822C36.1848 14.2747 36.6432 14.3976 36.8507 14.7564C37.0575 15.1152 36.9346 15.5729 36.5765 15.7797L21.0065 24.7689C20.8881 24.8371 20.7593 24.8693 20.6327 24.8693Z" fill="#635BFF" fill-opacity="0.7"/>
</svg>
