<svg width="24" height="24" viewBox="0 0 24 24" fill="none" xmlns="http://www.w3.org/2000/svg">
<path fill-rule="evenodd" clip-rule="evenodd" d="M1.25 6C1.25 4.48122 2.48122 3.25 4 3.25H20C21.5188 3.25 22.75 4.48122 22.75 6V16C22.75 17.5188 21.5188 18.75 20 18.75H14.2135L14.9635 20.25H17C17.4142 20.25 17.75 20.5858 17.75 21C17.75 21.4142 17.4142 21.75 17 21.75H7C6.58579 21.75 6.25 21.4142 6.25 21C6.25 20.5858 6.58579 20.25 7 20.25H9.03647L9.78647 18.75H4C2.48122 18.75 1.25 17.5188 1.25 16V6ZM20 17.25H4C3.30964 17.25 2.75 16.6904 2.75 16V6C2.75 5.30964 3.30964 4.75 4 4.75H20C20.6904 4.75 21.25 5.30964 21.25 6V16C21.25 16.6904 20.6904 17.25 20 17.25Z" fill="currentColor"/>
</svg>
