<svg width="47" height="33" viewBox="0 0 47 33" fill="none" xmlns="http://www.w3.org/2000/svg">
<g clip-path="url(#clip0_25_32900)">
<path d="M46.5455 30.0484C46.5455 31.568 45.3136 32.7999 43.7941 32.7999H2.75136C1.23182 32.7999 0 31.5678 0 30.0484V3.45156C0 1.93193 1.23182 0.700107 2.75136 0.700107H43.794C45.3136 0.700107 46.5454 1.93202 46.5454 3.45156L46.5455 30.0484Z" fill="#34495E"/>
<path opacity="0.15" d="M1.95609 30.0484V3.45156C1.95609 1.93193 3.18809 0.700107 4.70764 0.700107H2.75127C1.23182 0.700107 0 1.93211 0 3.45156V30.0484C0 31.568 1.23182 32.7999 2.75136 32.7999H4.70773C3.18818 32.7999 1.95609 31.5678 1.95609 30.0484Z" fill="#202121"/>
<path d="M28.1253 16.7319C28.1291 15.8559 27.8006 14.9786 27.1396 14.3175C26.4772 13.655 25.5977 13.3269 24.7199 13.3321C24.7157 13.3321 24.7116 13.3319 24.7072 13.3319C22.8011 13.3319 21.2891 14.8435 21.2891 16.7502C21.2891 18.6381 22.8197 20.1683 24.7072 20.1683C26.614 20.1683 28.1258 18.6564 28.1258 16.7502C28.1258 16.7439 28.1253 16.738 28.1253 16.7319Z" fill="#F26E21"/>
<path d="M20.6531 18.1963C20.1422 18.7078 19.6707 18.9076 19.1628 18.9184C17.9254 18.9073 17.0157 17.991 17.0157 16.6845C17.0157 16.0269 17.2647 15.4879 17.6591 15.0274C18.029 14.6762 18.5056 14.4493 19.0536 14.4493C19.6451 14.4493 20.1055 14.6465 20.631 15.1724V13.6605C20.1056 13.3977 19.645 13.2662 19.0536 13.2662C18.2179 13.3259 17.43 13.6635 16.8257 14.1937C16.6515 14.3504 16.4846 14.5234 16.343 14.7214C15.9016 15.2936 15.6348 15.9943 15.6348 16.7505C15.6348 18.6566 17.1472 20.1028 19.0535 20.1028C19.0628 20.1028 19.0719 20.102 19.0809 20.1019C19.0938 20.1021 19.1064 20.1028 19.1191 20.1028C19.6449 20.1028 20.1055 19.9716 20.697 19.7086L20.6531 18.1963C20.6309 18.2185 20.6751 18.2392 20.6531 18.2602V18.1963Z" fill="#E7E8E3"/>
<path d="M32.4416 14.2076L30.9528 17.8678L29.2436 13.5288H27.8633L30.5584 20.1683H31.2815L34.1082 13.5288H32.7279L32.4416 14.2076Z" fill="#E7E8E3"/>
<path d="M34.6348 16.4213V19.9714H38.1848H38.2502V18.9192H37.1328H35.9495V17.7362V17.1448H38.1848V16.0269H35.9495V14.6465H38.2502V13.5288H34.6348V16.4213Z" fill="#E7E8E3"/>
<path d="M4.92108 13.5288H3.08008V19.9714H4.92099C5.9069 19.9714 6.6299 19.7082 7.22153 19.2481C7.94453 18.6564 8.4049 17.7363 8.4049 16.7504C8.40499 14.8435 7.02426 13.5288 4.92108 13.5288ZM6.4329 18.3937C6.03844 18.7222 5.51253 18.9192 4.72362 18.9192H4.32917V14.6464H4.65781C5.44671 14.6464 5.97262 14.7779 6.36717 15.1722C6.82726 15.5663 7.09035 16.1583 7.09035 16.7502C7.15608 17.3418 6.89317 17.9989 6.4329 18.3937Z" fill="#E7E8E3"/>
<path d="M10.2451 13.5282H8.99609V19.9707H10.2451V13.5282Z" fill="#E7E8E3"/>
<path d="M13.4012 16.0269C12.6125 15.764 12.415 15.5666 12.415 15.2381C12.415 14.8436 12.8095 14.515 13.3354 14.515C13.7298 14.515 14.0585 14.6465 14.3872 15.041L15.0448 14.1864C14.5187 13.7261 13.8616 13.4634 13.1384 13.4634C12.0206 13.4634 11.1002 14.2523 11.1002 15.3038C11.1002 16.2243 11.495 16.6187 12.6781 17.0789C13.204 17.2758 13.4013 17.3418 13.533 17.4732C13.7955 17.6045 13.9272 17.8677 13.9272 18.1303C13.9272 18.6563 13.533 19.0509 12.941 19.0509C12.3488 19.0509 11.8234 18.7222 11.5604 18.1962L10.7715 18.9852C11.3634 19.8397 12.0865 20.2341 13.0068 20.2341C14.3215 20.2341 15.2414 19.3795 15.2414 18.1303C15.2416 17.0131 14.8475 16.5529 13.4012 16.0269Z" fill="#E7E8E3"/>
<path d="M41.8009 17.2758C42.7866 17.0789 43.3127 16.4212 43.3127 15.4354C43.3127 14.2523 42.458 13.5288 41.012 13.5288H39.1055V19.9714H40.3545V17.4073H40.5519L42.3264 19.9714H43.8386L41.8009 17.2758ZM40.7487 16.4869H40.3546V14.515H40.7487C41.5377 14.515 41.998 14.8435 41.998 15.5013C41.998 16.1584 41.5377 16.4869 40.7487 16.4869Z" fill="#E7E8E3"/>
</g>
<defs>
<clipPath id="clip0_25_32900">
<rect width="46.5455" height="32" fill="white" transform="translate(0 0.75)"/>
</clipPath>
</defs>
</svg>
