<svg width="24" height="25" viewBox="0 0 24 25" fill="none" xmlns="http://www.w3.org/2000/svg">
<path fill-rule="evenodd" clip-rule="evenodd" d="M12 4.44141C7.44365 4.44141 3.75 8.13506 3.75 12.6914C3.75 17.2477 7.44365 20.9414 12 20.9414C16.5563 20.9414 20.25 17.2477 20.25 12.6914C20.25 11.8428 20.1221 11.0255 19.8851 10.2569C19.7631 9.86107 19.985 9.44125 20.3808 9.31919C20.7766 9.19714 21.1965 9.41907 21.3185 9.81489C21.5992 10.7251 21.75 11.6913 21.75 12.6914C21.75 18.0762 17.3848 22.4414 12 22.4414C6.61522 22.4414 2.25 18.0762 2.25 12.6914C2.25 7.30663 6.61522 2.94141 12 2.94141C12.6909 2.94141 13.3659 3.0134 14.0175 3.15054C14.4228 3.23586 14.6822 3.63361 14.5969 4.03894C14.5116 4.44427 14.1138 4.7037 13.7085 4.61838C13.1579 4.50249 12.5865 4.44141 12 4.44141ZM21.8428 3.68342C22.1357 3.97631 22.1357 4.45119 21.8428 4.74408L17.8428 8.74408C17.5499 9.03697 17.0751 9.03697 16.7822 8.74408L14.7822 6.74408C14.4893 6.45119 14.4893 5.97631 14.7822 5.68342C15.0751 5.39053 15.5499 5.39053 15.8428 5.68342L17.3125 7.15309L20.7822 3.68342C21.0751 3.39053 21.5499 3.39053 21.8428 3.68342ZM12 5.94141C12.4142 5.94141 12.75 6.2772 12.75 6.69141V7.96373H12.7768C14.3153 7.96373 15.5625 9.21094 15.5625 10.7494C15.5625 11.1637 15.2267 11.4994 14.8125 11.4994C14.3983 11.4994 14.0625 11.1637 14.0625 10.7494C14.0625 10.0394 13.4869 9.46373 12.7768 9.46373H12.75V11.9548H12.8304C14.3393 11.9548 15.5625 13.178 15.5625 14.6869C15.5625 16.1959 14.3393 17.4191 12.8304 17.4191H12.75V18.6914C12.75 19.1056 12.4142 19.4414 12 19.4414C11.5858 19.4414 11.25 19.1056 11.25 18.6914V17.4191H11.1696C9.66072 17.4191 8.4375 16.1959 8.4375 14.6869C8.4375 14.2727 8.77329 13.9369 9.1875 13.9369C9.60171 13.9369 9.9375 14.2727 9.9375 14.6869C9.9375 15.3674 10.4891 15.9191 11.1696 15.9191H11.25V13.4548H11.183C9.66672 13.4548 8.4375 12.2256 8.4375 10.7093C8.4375 9.19295 9.66672 7.96373 11.183 7.96373H11.25V6.69141C11.25 6.2772 11.5858 5.94141 12 5.94141ZM11.25 9.46373H11.183C10.4951 9.46373 9.9375 10.0214 9.9375 10.7093C9.9375 11.3971 10.4951 11.9548 11.183 11.9548H11.25V9.46373ZM12.75 13.4548V15.9191H12.8304C13.5108 15.9191 14.0625 15.3674 14.0625 14.6869C14.0625 14.0064 13.5109 13.4548 12.8304 13.4548H12.75Z" fill="#484848"/>
</svg>
