<svg width="18" height="16" viewBox="0 0 18 16" fill="none" xmlns="http://www.w3.org/2000/svg">
<path d="M16.9598 10.0625C16.794 10.0625 16.635 10.1283 16.5178 10.2456C16.4006 10.3628 16.3348 10.5217 16.3348 10.6875V12.8219C16.3348 13.325 16.1349 13.8074 15.7792 14.1632C15.4235 14.5189 14.941 14.7188 14.4379 14.7188H3.56289C3.05981 14.7188 2.57733 14.5189 2.2216 14.1632C1.86586 13.8074 1.66602 13.325 1.66602 12.8219V10.6875C1.66602 10.5217 1.60017 10.3628 1.48296 10.2456C1.36575 10.1283 1.20678 10.0625 1.04102 10.0625C0.875255 10.0625 0.716284 10.1283 0.599074 10.2456C0.481864 10.3628 0.416016 10.5217 0.416016 10.6875V12.8219C0.416843 13.6562 0.748653 14.4562 1.33863 15.0461C1.9286 15.6361 2.72854 15.9679 3.56289 15.9688H14.4379C15.2722 15.9679 16.0722 15.6361 16.6622 15.0461C17.2521 14.4562 17.5839 13.6562 17.5848 12.8219V10.6875C17.5848 10.5217 17.5189 10.3628 17.4017 10.2456C17.2845 10.1283 17.1255 10.0625 16.9598 10.0625Z" fill="black"/>
<path d="M8.55738 11.8875C8.61548 11.9461 8.68461 11.9926 8.76077 12.0243C8.83693 12.056 8.91862 12.0724 9.00113 12.0724C9.08364 12.0724 9.16533 12.056 9.24149 12.0243C9.31765 11.9926 9.38678 11.9461 9.44488 11.8875L13.0011 8.33125C13.1004 8.21185 13.1516 8.0598 13.1449 7.9047C13.1381 7.7496 13.0739 7.60256 12.9647 7.4922C12.8556 7.38184 12.7092 7.31607 12.5542 7.30769C12.3992 7.29931 12.2466 7.34893 12.1261 7.44687L9.62613 9.94687V0.65625C9.62613 0.49049 9.56028 0.331518 9.44307 0.214308C9.32586 0.097098 9.16689 0.03125 9.00113 0.03125C8.83537 0.03125 8.6764 0.097098 8.55919 0.214308C8.44198 0.331518 8.37613 0.49049 8.37613 0.65625V9.9375L5.87613 7.4375C5.75885 7.32022 5.59979 7.25434 5.43394 7.25434C5.26809 7.25434 5.10903 7.32022 4.99175 7.4375C4.87448 7.55477 4.80859 7.71383 4.80859 7.87969C4.80859 8.04554 4.87448 8.2046 4.99175 8.32187L8.55738 11.8875Z" fill="black"/>
</svg>
