<svg width="17" height="16" viewBox="0 0 17 16" fill="none" xmlns="http://www.w3.org/2000/svg">
<path d="M4.01754 13.0134C3.61088 13.0134 3.23088 12.8734 2.95754 12.6134C2.61088 12.2868 2.44421 11.7934 2.50421 11.2601L2.75088 9.10011C2.79754 8.69345 3.04421 8.15345 3.33088 7.86011L8.80421 2.06678C10.1709 0.620114 11.5975 0.580114 13.0442 1.94678C14.4909 3.31345 14.5309 4.74011 13.1642 6.18678L7.69088 11.9801C7.41088 12.2801 6.89088 12.5601 6.48421 12.6268L4.33754 12.9934C4.22421 13.0001 4.12421 13.0134 4.01754 13.0134ZM10.9442 1.94011C10.4309 1.94011 9.98421 2.26011 9.53088 2.74011L4.05754 8.54011C3.92421 8.68011 3.77088 9.01345 3.74421 9.20678L3.49754 11.3668C3.47088 11.5868 3.52421 11.7668 3.64421 11.8801C3.76421 11.9934 3.94421 12.0334 4.16421 12.0001L6.31088 11.6334C6.50421 11.6001 6.82421 11.4268 6.95754 11.2868L12.4309 5.49345C13.2575 4.61345 13.5575 3.80011 12.3509 2.66678C11.8175 2.15345 11.3575 1.94011 10.9442 1.94011Z" fill="#6B7280"/>
<path d="M11.8832 7.29998C11.8699 7.29998 11.8499 7.29998 11.8365 7.29998C9.75654 7.09331 8.08321 5.51331 7.76321 3.44665C7.72321 3.17331 7.90987 2.91998 8.18321 2.87331C8.45654 2.83331 8.70987 3.01998 8.75654 3.29331C9.00987 4.90665 10.3165 6.14665 11.9432 6.30665C12.2165 6.33331 12.4165 6.57998 12.3899 6.85331C12.3565 7.10665 12.1365 7.29998 11.8832 7.29998Z" fill="#6B7280"/>
<path d="M14.3242 15.1667H2.32422C2.05089 15.1667 1.82422 14.9401 1.82422 14.6667C1.82422 14.3934 2.05089 14.1667 2.32422 14.1667H14.3242C14.5976 14.1667 14.8242 14.3934 14.8242 14.6667C14.8242 14.9401 14.5976 15.1667 14.3242 15.1667Z" fill="#6B7280"/>
</svg>
