<svg width="20" height="20" viewBox="0 0 20 20" fill="none" xmlns="http://www.w3.org/2000/svg">
<path d="M12.4993 18.9584H7.49935C2.97435 18.9584 1.04102 17.0251 1.04102 12.5001V7.50008C1.04102 2.97508 2.97435 1.04175 7.49935 1.04175H9.16602C9.50768 1.04175 9.79102 1.32508 9.79102 1.66675C9.79102 2.00841 9.50768 2.29175 9.16602 2.29175H7.49935C3.65768 2.29175 2.29102 3.65841 2.29102 7.50008V12.5001C2.29102 16.3417 3.65768 17.7084 7.49935 17.7084H12.4993C16.341 17.7084 17.7077 16.3417 17.7077 12.5001V10.8334C17.7077 10.4917 17.991 10.2084 18.3327 10.2084C18.6744 10.2084 18.9577 10.4917 18.9577 10.8334V12.5001C18.9577 17.0251 17.0243 18.9584 12.4993 18.9584Z" fill="#292D32"/>
<path d="M7.08409 14.7417C6.57576 14.7417 6.10909 14.5584 5.76742 14.225C5.35909 13.8167 5.18409 13.225 5.27576 12.6L5.63409 10.0917C5.70076 9.60838 6.01742 8.98338 6.35909 8.64172L12.9258 2.07505C14.5841 0.416716 16.2674 0.416716 17.9258 2.07505C18.8341 2.98338 19.2424 3.90838 19.1591 4.83338C19.0841 5.58338 18.6841 6.31672 17.9258 7.06672L11.3591 13.6334C11.0174 13.975 10.3924 14.2917 9.90909 14.3584L7.40076 14.7167C7.29242 14.7417 7.18409 14.7417 7.08409 14.7417ZM13.8091 2.95838L7.24242 9.52505C7.08409 9.68338 6.90076 10.05 6.86742 10.2667L6.50909 12.775C6.47576 13.0167 6.52576 13.2167 6.65076 13.3417C6.77576 13.4667 6.97576 13.5167 7.21742 13.4834L9.72576 13.125C9.94242 13.0917 10.3174 12.9084 10.4674 12.75L17.0341 6.18338C17.5758 5.64172 17.8591 5.15838 17.9008 4.70838C17.9508 4.16672 17.6674 3.59172 17.0341 2.95005C15.7008 1.61672 14.7841 1.99172 13.8091 2.95838Z" fill="#292D32"/>
<path d="M16.5423 8.19173C16.484 8.19173 16.4256 8.1834 16.3756 8.16673C14.1839 7.55006 12.4423 5.8084 11.8256 3.61673C11.7339 3.2834 11.9256 2.94173 12.2589 2.84173C12.5923 2.75006 12.934 2.94173 13.0256 3.27506C13.5256 5.05006 14.9339 6.4584 16.7089 6.9584C17.0423 7.05006 17.2339 7.40006 17.1423 7.7334C17.0673 8.01673 16.8173 8.19173 16.5423 8.19173Z" fill="#292D32"/>
</svg>
