<svg width="23" height="8" viewBox="0 0 23 8" fill="none" xmlns="http://www.w3.org/2000/svg">
<g clip-path="url(#clip0_423_51610)">
<path d="M16.543 7.35663L18.3826 5.31908L16.543 3.28125H18.484L19.3952 4.27109L20.2726 3.28125H22.1459L20.315 5.31067L22.171 7.35663H20.222L19.3191 6.35866L18.4247 7.35663H16.543Z" fill="#FF6600"/>
<path d="M16.5447 2.3674H14.4611V3.28095H16.5447V4.65776H14.4611V5.92149H16.5447V7.35634H12.9297V0.936523H16.5447V2.3674Z" fill="#FF6600"/>
<path d="M11.4011 0.936523V3.56382H11.3843C11.0467 3.18131 10.6249 3.04838 10.1355 3.04838C9.13291 3.04838 8.3777 3.72019 8.1126 4.6084C7.81029 3.62972 7.03063 3.03004 5.87451 3.03004C4.93564 3.03004 4.19424 3.44545 3.80734 4.12237V3.28105H1.86667V2.36759H3.98449V0.936523H0.136719V7.35643H1.86667V4.65775H3.59096C3.53955 4.85601 3.51212 5.06825 3.51212 5.29222C3.51212 6.63139 4.54998 7.57104 5.87451 7.57104C6.98833 7.57104 7.72234 7.0556 8.11059 6.11586H6.62809C6.42754 6.39816 6.27542 6.48202 5.87451 6.48202C5.40963 6.48202 5.00882 6.08221 5.00882 5.60827H8.02753C8.15845 6.67195 8.99901 7.58928 10.1525 7.58928C10.6501 7.58928 11.1057 7.34802 11.3843 6.94064H11.4011V7.35624H12.9261V0.936523H11.4011ZM5.05697 4.67695C5.15316 4.26919 5.47399 4.00268 5.87451 4.00268C6.31542 4.00268 6.61994 4.26097 6.70002 4.67695C6.73378 4.67695 5.05697 4.67695 5.05697 4.67695ZM10.4757 6.37888C9.91353 6.37888 9.56422 5.86259 9.56422 5.32351C9.56422 4.74729 9.86807 4.19318 10.4757 4.19318C11.1057 4.19318 11.3567 4.74729 11.3567 5.32351C11.3566 5.86996 11.0906 6.37888 10.4757 6.37888Z" fill="#652C8F"/>
</g>
<defs>
<clipPath id="clip0_423_51610">
<rect width="22.0596" height="6.61788" fill="white" transform="translate(0.167969 0.936035)"/>
</clipPath>
</defs>
</svg>
