<svg width="20" height="20" viewBox="0 0 20 20" fill="none" xmlns="http://www.w3.org/2000/svg">
<path d="M7.84462 2H3.50001C3.22351 2 3 2.22351 3 2.50001V6.50011C3 6.77662 3.22351 7.00013 3.50001 7.00013C3.77652 7.00013 4.00003 6.77662 4.00003 6.50011V3.00003H7.84462C8.12113 3.00003 8.34464 2.77652 8.34464 2.50001C8.34464 2.22351 8.12113 2 7.84462 2Z" fill="#232859"/>
<path d="M7.84462 16.0006H4.00003V12.5005C4.00003 12.224 3.77652 12.0005 3.50001 12.0005C3.22351 12.0005 3 12.224 3 12.5005V16.5006C3 16.7771 3.22351 17.0006 3.50001 17.0006H7.84462C8.12113 17.0006 8.34464 16.7771 8.34464 16.5006C8.34464 16.2241 8.12113 16.0006 7.84462 16.0006Z" fill="#232859"/>
<path d="M17.5007 2H14.1211C13.8446 2 13.6211 2.22351 13.6211 2.50001C13.6211 2.77652 13.8446 3.00003 14.1211 3.00003H17.0007V6.50011C17.0007 6.77662 17.2242 7.00013 17.5007 7.00013C17.7772 7.00013 18.0007 6.77662 18.0007 6.50011V2.50001C18.0007 2.22351 17.7772 2 17.5007 2Z" fill="#232859"/>
<path d="M17.5007 12.0005C17.2242 12.0005 17.0007 12.224 17.0007 12.5005V16.0006H14.1211C13.8446 16.0006 13.6211 16.2241 13.6211 16.5006C13.6211 16.7771 13.8446 17.0006 14.1211 17.0006H17.5007C17.7772 17.0006 18.0007 16.7771 18.0007 16.5006V12.5005C18.0007 12.224 17.7772 12.0005 17.5007 12.0005Z" fill="#232859"/>
</svg>
