<svg width="20" height="20" viewBox="0 0 20 20" fill="none" xmlns="http://www.w3.org/2000/svg">
<path d="M2.1487 15.8419L2.13203 15.8586C1.90703 15.3669 1.76536 14.8086 1.70703 14.1919C1.76536 14.8002 1.9237 15.3502 2.1487 15.8419Z" fill="#6B7280"/>
<path d="M7.49896 8.64977C8.59432 8.64977 9.48229 7.7618 9.48229 6.66644C9.48229 5.57107 8.59432 4.68311 7.49896 4.68311C6.40359 4.68311 5.51562 5.57107 5.51562 6.66644C5.51562 7.7618 6.40359 8.64977 7.49896 8.64977Z" fill="#6B7280"/>
<path d="M13.493 1.6665H6.50964C3.4763 1.6665 1.66797 3.47484 1.66797 6.50817V13.4915C1.66797 14.3998 1.8263 15.1915 2.13464 15.8582C2.8513 17.4415 4.38464 18.3332 6.50964 18.3332H13.493C16.5263 18.3332 18.3346 16.5248 18.3346 13.4915V11.5832V6.50817C18.3346 3.47484 16.5263 1.6665 13.493 1.6665ZM16.9763 10.4165C16.3263 9.85817 15.2763 9.85817 14.6263 10.4165L11.1596 13.3915C10.5096 13.9498 9.45963 13.9498 8.80964 13.3915L8.5263 13.1582C7.93463 12.6415 6.99297 12.5915 6.3263 13.0415L3.20964 15.1332C3.0263 14.6665 2.91797 14.1248 2.91797 13.4915V6.50817C2.91797 4.15817 4.15964 2.9165 6.50964 2.9165H13.493C15.843 2.9165 17.0846 4.15817 17.0846 6.50817V10.5082L16.9763 10.4165Z" fill="#6B7280"/>
</svg>
