<svg width="20" height="20" viewBox="0 0 20 20" fill="none" xmlns="http://www.w3.org/2000/svg">
<g clip-path="url(#clip0_635_35915)">
<path d="M10 5.89844C7.7384 5.89844 5.89844 7.7384 5.89844 10C5.89844 12.2616 7.7384 14.1016 10 14.1016C12.2616 14.1016 14.1016 12.2616 14.1016 10C14.1016 7.7384 12.2616 5.89844 10 5.89844ZM10 12.9297C8.38457 12.9297 7.07031 11.6154 7.07031 10C7.07031 8.38457 8.38457 7.07031 10 7.07031C11.6154 7.07031 12.9297 8.38457 12.9297 10C12.9297 11.6154 11.6154 12.9297 10 12.9297Z" fill="#232859"/>
<path d="M19.554 8.25914L17.262 7.69555C17.1241 7.26078 16.9469 6.8391 16.7327 6.43582C17.0757 5.86418 17.8008 4.65562 17.8008 4.65562C17.9391 4.42508 17.9028 4.12996 17.7127 3.93984L16.0554 2.28258C15.8653 2.09246 15.5702 2.05613 15.3396 2.19445C15.3248 2.20336 14.1374 2.91578 13.5573 3.26301C13.1562 3.05086 12.7372 2.87523 12.3053 2.73824C12.1323 2.03605 11.7408 0.44582 11.7408 0.44582C11.6763 0.184023 11.4415 0 11.1719 0H8.82812C8.55848 0 8.32363 0.184023 8.25918 0.445859C8.09801 1.10055 7.82855 2.19504 7.69473 2.73805C7.23527 2.88375 6.7907 3.07312 6.36656 3.30375C6.11547 3.15312 5.74129 2.92859 5.39512 2.7209L4.5177 2.19445C4.28703 2.05613 3.99203 2.0925 3.80191 2.28258L2.14457 3.93984C1.95445 4.12996 1.91813 4.42508 2.05645 4.65562C2.06426 4.66871 2.75117 5.81359 3.19984 6.56457C3.01578 6.92824 2.86137 7.30621 2.73824 7.69422C1.95691 7.88859 0.463906 8.25477 0.446406 8.25906C0.184297 8.32332 0 8.55828 0 8.82812V11.1719C0 11.4418 0.184336 11.6767 0.446445 11.7409C0.46375 11.7452 1.9457 12.1086 2.73891 12.3048C2.87816 12.7463 3.05859 13.1749 3.27781 13.5853L2.25461 15.2908C2.11629 15.5213 2.15262 15.8165 2.34273 16.0066L4.00004 17.6639C4.19016 17.854 4.48523 17.8903 4.71582 17.752C4.73023 17.7433 5.86672 17.0614 6.42465 16.7275C6.83164 16.9442 7.25719 17.1232 7.69602 17.2623L8.25914 19.5537C8.3234 19.8158 8.55832 20 8.82812 20H11.1719C11.4416 20 11.6764 19.8159 11.7409 19.554L12.3044 17.2622C12.7552 17.1192 13.19 16.9345 13.6035 16.7104C14.1671 17.0485 15.3396 17.752 15.3396 17.752C15.5701 17.8904 15.8653 17.8541 16.0554 17.6639L17.7127 16.0066C17.9028 15.8165 17.9391 15.5214 17.8008 15.2908C17.8008 15.2908 17.0871 14.1013 16.7477 13.5357C16.9551 13.1416 17.1271 12.7297 17.2618 12.3048C17.9581 12.133 19.5349 11.7455 19.5539 11.7409C19.8158 11.6765 20 11.4416 20 11.1719V8.82812C20 8.5584 19.8159 8.32355 19.554 8.25914ZM18.8281 10.7125C18.1516 10.8788 16.9249 11.1804 16.6906 11.239L16.6464 11.2501C16.4421 11.3032 16.2821 11.4622 16.2277 11.6662C16.0795 12.222 15.8568 12.755 15.5659 13.2501C15.4574 13.435 15.4584 13.6644 15.5686 13.8482C15.5991 13.8991 16.2127 14.9218 16.5605 15.5014L15.5503 16.5117C14.9625 16.1591 13.9207 15.534 13.9119 15.5287C13.7254 15.4168 13.4923 15.4173 13.3064 15.5301C12.7986 15.8381 12.2475 16.0727 11.6682 16.2275C11.466 16.2815 11.3079 16.4393 11.2536 16.6414C11.2213 16.7618 11.1894 16.8891 11.1888 16.8913L10.7125 18.8281H9.28758L8.8652 17.1077L8.75129 16.6521C8.69965 16.4454 8.53977 16.283 8.33387 16.2281C7.76617 16.0767 7.22141 15.8473 6.71477 15.5466C6.53082 15.4373 6.30188 15.4371 6.1177 15.5459C5.99152 15.6204 5.05309 16.1831 4.50512 16.5118L3.49477 15.5014L4.45809 13.8958C4.56906 13.7108 4.56941 13.4798 4.45895 13.2945C4.15488 12.7842 3.92437 12.2369 3.77398 11.6678C3.71941 11.4613 3.5568 11.3009 3.34965 11.2491C2.93023 11.1442 1.80418 10.8675 1.17184 10.7123V9.28758C1.8102 9.13074 2.95062 8.85012 3.35004 8.74906C3.55594 8.69695 3.71754 8.53746 3.77238 8.33223C3.9116 7.81086 4.11699 7.3077 4.38293 6.83668C4.48629 6.65363 4.48363 6.42926 4.37602 6.24867C4.09281 5.77344 3.59164 4.93707 3.29664 4.44508L4.30699 3.43469L4.79215 3.72578C5.37684 4.0766 6.04137 4.47531 6.05934 4.48605C6.24559 4.59738 6.47816 4.59668 6.66371 4.48414C7.18484 4.1682 7.74676 3.92859 8.33387 3.77195C8.53949 3.71711 8.69918 3.55508 8.75105 3.34867C8.76207 3.30488 9.10539 1.91059 9.2873 1.17188H10.7127C10.9047 1.95148 11.2448 3.3325 11.2488 3.34852C11.3006 3.55508 11.4604 3.71727 11.6662 3.77215C12.228 3.92199 12.7675 4.14816 13.2697 4.44434C13.4538 4.55297 13.6826 4.55266 13.8664 4.44352C14.0308 4.34594 14.9946 3.76801 15.5502 3.43465L16.5605 4.44496C16.2075 5.03332 15.5793 6.08047 15.5529 6.1243C15.4421 6.30887 15.4415 6.53934 15.5513 6.72457C15.8492 7.22738 16.0767 7.76809 16.2273 8.33164C16.2813 8.53348 16.4386 8.69129 16.6402 8.74586C16.7612 8.77863 16.8892 8.81059 16.8913 8.81113L18.8281 9.28742V10.7125Z" fill="#232859"/>
</g>
<defs>
<clipPath id="clip0_635_35915">
<rect width="20" height="20" fill="white"/>
</clipPath>
</defs>
</svg>
