<svg width="25" height="25" viewBox="0 0 25 25" fill="none" xmlns="http://www.w3.org/2000/svg">
<path d="M4.90843 13.6762L7.69318 10.8914C8.75844 11.6893 10.0864 12.0539 11.4097 11.912C12.7331 11.7701 13.9535 11.1322 14.8254 10.1266C15.6973 9.12102 16.1558 7.82248 16.1087 6.4924C16.0617 5.16231 15.5125 3.89944 14.5717 2.958C13.6309 2.01657 12.3684 1.46648 11.0384 1.41847C9.70834 1.37046 8.40948 1.8281 7.40329 2.69925C6.39709 3.57041 5.75827 4.7904 5.61543 6.11364C5.47259 7.43687 5.83633 8.76508 6.63343 9.83091L3.84793 12.6164L2.78743 11.5552C2.6467 11.4145 2.45587 11.3356 2.25692 11.3356C2.05797 11.3357 1.86719 11.4148 1.72656 11.5555C1.58593 11.6963 1.50696 11.8871 1.50703 12.086C1.5071 12.285 1.5862 12.4758 1.72693 12.6164L2.78743 13.6777L1.30318 15.1612C1.23155 15.2303 1.17442 15.3131 1.13511 15.4046C1.0958 15.4961 1.07511 15.5945 1.07425 15.6941C1.07338 15.7937 1.09236 15.8924 1.13007 15.9846C1.16778 16.0768 1.22347 16.1605 1.29389 16.231C1.36431 16.3014 1.44805 16.3571 1.54022 16.3948C1.63239 16.4325 1.73115 16.4515 1.83074 16.4506C1.93032 16.4497 2.02874 16.429 2.12024 16.3897C2.21174 16.3504 2.2945 16.2933 2.36368 16.2217L3.84793 14.7374L4.90843 15.7979C4.97762 15.8695 5.06038 15.9267 5.15188 15.966C5.24338 16.0053 5.3418 16.026 5.44138 16.0268C5.54097 16.0277 5.63973 16.0087 5.7319 15.971C5.82407 15.9333 5.90781 15.8776 5.97823 15.8072C6.04865 15.7368 6.10434 15.653 6.14205 15.5609C6.17976 15.4687 6.19874 15.3699 6.19787 15.2704C6.19701 15.1708 6.17632 15.0724 6.13701 14.9809C6.0977 14.8893 6.04057 14.8066 5.96894 14.7374L4.90843 13.6762ZM10.8334 2.94141C11.5751 2.94141 12.3001 3.16134 12.9168 3.5734C13.5335 3.98545 14.0142 4.57112 14.298 5.25634C14.5818 5.94157 14.6561 6.69557 14.5114 7.42299C14.3667 8.15042 14.0095 8.81861 13.4851 9.34306C12.9606 9.8675 12.2925 10.2247 11.565 10.3694C10.8376 10.514 10.0836 10.4398 9.39837 10.156C8.71315 9.87213 8.12748 9.39148 7.71542 8.77479C7.30337 8.15811 7.08343 7.43309 7.08344 6.69141C7.08343 5.69684 7.47852 4.74302 8.18178 4.03976C8.88505 3.33649 9.83887 2.94141 10.8334 2.94141Z" fill="#484848"/>
<path d="M22.8343 8.94141H19.0843C18.8854 8.94141 18.6946 9.02042 18.554 9.16108C18.4133 9.30173 18.3343 9.49249 18.3343 9.69141C18.3343 9.89032 18.4133 10.0811 18.554 10.2217C18.6946 10.3624 18.8854 10.4414 19.0843 10.4414H21.0238L16.9738 14.4914C15.9082 13.694 14.5801 13.3299 13.2569 13.4723C11.9336 13.6147 10.7135 14.2531 9.84199 15.259C8.97051 16.2649 8.51245 17.5636 8.56 18.8936C8.60756 20.2237 9.1572 21.4863 10.0983 22.4274C11.0394 23.3685 12.302 23.9181 13.6321 23.9657C14.9621 24.0132 16.2608 23.5552 17.2667 22.6837C18.2726 21.8122 18.911 20.5921 19.0534 19.2688C19.1958 17.9455 18.8317 16.6175 18.0343 15.5519L22.0843 11.5019V13.4414C22.0843 13.6403 22.1633 13.8311 22.304 13.9717C22.4446 14.1124 22.6354 14.1914 22.8343 14.1914C23.0332 14.1914 23.224 14.1124 23.3646 13.9717C23.5053 13.8311 23.5843 13.6403 23.5843 13.4414V9.69141C23.5843 9.49249 23.5053 9.30173 23.3646 9.16108C23.224 9.02042 23.0332 8.94141 22.8343 8.94141ZM13.8343 22.4414C13.0926 22.4414 12.3676 22.2215 11.7509 21.8094C11.1342 21.3974 10.6536 20.8117 10.3697 20.1265C10.0859 19.4412 10.0116 18.6872 10.1563 17.9598C10.301 17.2324 10.6582 16.5642 11.1826 16.0398C11.7071 15.5153 12.3753 15.1582 13.1027 15.0135C13.8301 14.8688 14.5841 14.943 15.2693 15.2269C15.9546 15.5107 16.5402 15.9913 16.9523 16.608C17.3644 17.2247 17.5843 17.9497 17.5843 18.6914C17.5843 19.1839 17.4873 19.6715 17.2988 20.1265C17.1104 20.5814 16.8342 20.9948 16.4859 21.3431C16.1377 21.6913 15.7243 21.9675 15.2693 22.156C14.8144 22.3444 14.3267 22.4414 13.8343 22.4414Z" fill="#484848"/>
</svg>
