<svg width="24" height="9" viewBox="0 0 24 9" fill="none" xmlns="http://www.w3.org/2000/svg">
<g clip-path="url(#clip0_423_51594)">
<path d="M10.6371 4.34382C10.6371 5.41551 9.78641 6.20522 8.74239 6.20522C7.69837 6.20522 6.84766 5.41551 6.84766 4.34382C6.84766 3.26458 7.69837 2.48242 8.74239 2.48242C9.78641 2.48242 10.6371 3.26458 10.6371 4.34382ZM9.8077 4.34382C9.8077 3.67412 9.31464 3.2159 8.74239 3.2159C8.17014 3.2159 7.67708 3.67412 7.67708 4.34382C7.67708 5.00681 8.17014 5.47174 8.74239 5.47174C9.31464 5.47174 9.8077 5.00597 9.8077 4.34382Z" fill="#EA4335"/>
<path d="M14.727 4.34382C14.727 5.41551 13.8763 6.20522 12.8322 6.20522C11.7882 6.20522 10.9375 5.41551 10.9375 4.34382C10.9375 3.26542 11.7882 2.48242 12.8322 2.48242C13.8763 2.48242 14.727 3.26458 14.727 4.34382ZM13.8975 4.34382C13.8975 3.67412 13.4045 3.2159 12.8322 3.2159C12.26 3.2159 11.7669 3.67412 11.7669 4.34382C11.7669 5.00681 12.26 5.47174 12.8322 5.47174C13.4045 5.47174 13.8975 5.00597 13.8975 4.34382Z" fill="#FBBC05"/>
<path d="M18.6443 2.59488V5.93667C18.6443 7.31131 17.8217 7.87275 16.8492 7.87275C15.9338 7.87275 15.3828 7.26935 15.175 6.77589L15.8971 6.47964C16.0257 6.7826 16.3408 7.14011 16.8483 7.14011C17.4708 7.14011 17.8566 6.76162 17.8566 6.04912V5.78141H17.8276C17.642 6.00716 17.2843 6.20438 16.833 6.20438C15.8886 6.20438 15.0234 5.39369 15.0234 4.35053C15.0234 3.29983 15.8886 2.48242 16.833 2.48242C17.2835 2.48242 17.6412 2.67964 17.8276 2.89868H17.8566V2.59572H18.6443V2.59488ZM17.9154 4.35053C17.9154 3.6951 17.4717 3.2159 16.9071 3.2159C16.3348 3.2159 15.8554 3.6951 15.8554 4.35053C15.8554 4.99925 16.3348 5.47174 16.9071 5.47174C17.4717 5.47174 17.9154 4.99925 17.9154 4.35053Z" fill="#4285F4"/>
<path d="M19.9418 0.636719V6.09167H19.1328V0.636719H19.9418Z" fill="#34A853"/>
<path d="M23.0972 4.9568L23.741 5.37977C23.5332 5.68273 23.0325 6.20473 22.1673 6.20473C21.0943 6.20473 20.293 5.38732 20.293 4.34333C20.293 3.2364 21.1011 2.48193 22.0744 2.48193C23.0546 2.48193 23.534 3.25066 23.6907 3.66608L23.7767 3.87756L21.2518 4.90813C21.4451 5.28158 21.7457 5.47209 22.1673 5.47209C22.5896 5.47209 22.8826 5.26732 23.0972 4.9568ZM21.1156 4.2871L22.8034 3.59642C22.7106 3.36396 22.4312 3.20199 22.1025 3.20199C21.681 3.20199 21.0943 3.56873 21.1156 4.2871Z" fill="#EA4335"/>
<path d="M3.78311 3.8601V3.07039H6.48342C6.50982 3.20802 6.52345 3.37083 6.52345 3.54707C6.52345 4.13956 6.35909 4.8722 5.82942 5.3942C5.31422 5.92291 4.65596 6.20489 3.78396 6.20489C2.16769 6.20489 0.808594 4.90745 0.808594 3.3146C0.808594 1.72176 2.16769 0.424316 3.78396 0.424316C4.6781 0.424316 5.31507 0.770076 5.79365 1.22074L5.22822 1.77798C4.88503 1.46076 4.42008 1.21403 3.78311 1.21403C2.60284 1.21403 1.67974 2.15144 1.67974 3.3146C1.67974 4.47777 2.60284 5.41518 3.78311 5.41518C4.54867 5.41518 4.98467 5.11222 5.26398 4.83695C5.4905 4.61372 5.63952 4.29481 5.69828 3.85926L3.78311 3.8601Z" fill="#4285F4"/>
</g>
<defs>
<clipPath id="clip0_423_51594">
<rect width="23.1626" height="7.72086" fill="white" transform="translate(0.8125 0.384766)"/>
</clipPath>
</defs>
</svg>
