<svg width="65" height="65" viewBox="0 0 65 65" fill="none" xmlns="http://www.w3.org/2000/svg">
<path d="M18.9799 53.3776H10.1664C9.91372 53.3778 9.66964 53.2857 9.48004 53.1186C9.29044 52.9516 9.16839 52.721 9.1368 52.4703L5.8188 26.1461C5.78415 25.8728 5.8595 25.5969 6.02829 25.3791C6.19707 25.1613 6.44546 25.0195 6.71881 24.9848C6.99215 24.9502 7.26807 25.0255 7.48585 25.1943C7.70364 25.3631 7.84546 25.6115 7.88011 25.8848L11.0799 51.3017H17.943V27.7802C17.943 27.5052 18.0522 27.2415 18.2467 27.047C18.4411 26.8526 18.7049 26.7434 18.9799 26.7434C19.2548 26.7434 19.5186 26.8526 19.713 27.047C19.9075 27.2415 20.0167 27.5052 20.0167 27.7802V52.3407C20.0167 52.6157 19.9075 52.8794 19.713 53.0739C19.5186 53.2683 19.2548 53.3776 18.9799 53.3776Z" fill="#2563EB"/>
<path d="M14.0405 29.5316C10.8518 29.5273 7.77942 28.3338 5.42402 26.1845C3.87639 24.7741 2.64343 23.0533 1.80552 21.1343C0.967613 19.2153 0.543583 17.1413 0.561079 15.0475C0.543386 12.9538 0.967121 10.8799 1.80466 8.96092C2.6422 7.04197 3.87475 5.32107 5.42195 3.9104C6.76501 2.68167 8.3551 1.75406 10.0857 1.1897C11.8164 0.625344 13.6476 0.43725 15.4568 0.638019L46.0737 6.06813C46.3133 6.11073 46.5304 6.2363 46.6868 6.42284C46.8432 6.60937 46.929 6.84499 46.9291 7.08842V23.0055C46.929 23.2489 46.8432 23.4845 46.6868 23.6711C46.5304 23.8576 46.3133 23.9832 46.0737 24.0258L15.5232 29.4476C15.0309 29.5037 14.5359 29.5318 14.0405 29.5316ZM14.0114 2.62571C11.3413 2.64597 8.77346 3.65523 6.8041 5.45845C5.47483 6.67445 4.41658 8.15678 3.69823 9.80893C2.97988 11.4611 2.61755 13.246 2.63483 15.0475C2.61697 16.8497 2.97912 18.6355 3.69767 20.2885C4.41623 21.9414 5.47506 23.4243 6.80514 24.6406C7.9306 25.6748 9.26455 26.4559 10.7172 26.9313C12.1699 27.4067 13.7075 27.5654 15.2266 27.3966L44.8553 22.1376V7.95732L15.1603 2.68896C14.7788 2.64676 14.3952 2.62564 14.0114 2.62571Z" fill="#2563EB"/>
<path d="M52.4513 26.8779C52.3086 26.8784 52.1674 26.8494 52.0365 26.7929L45.4835 23.9663C45.2983 23.8855 45.1408 23.7524 45.0303 23.5833C44.9197 23.4142 44.861 23.2165 44.8613 23.0145V7.08808C44.861 6.88607 44.9197 6.68836 45.0303 6.51927C45.1408 6.35017 45.2983 6.21704 45.4835 6.13623L52.0407 3.30971C52.1986 3.24079 52.3712 3.21231 52.5428 3.22684C52.7145 3.24137 52.8799 3.29845 53.024 3.39293C53.1681 3.48741 53.2863 3.6163 53.3681 3.76796C53.4498 3.91962 53.4925 4.08926 53.4923 4.26156V25.841C53.4923 26.116 53.383 26.3797 53.1886 26.5742C52.9941 26.7686 52.7304 26.8779 52.4554 26.8779H52.4513ZM46.9309 22.3322L51.4144 24.265V5.83761L46.9309 7.77138V22.3322Z" fill="#2563EB"/>
<path d="M12.9601 20.931C11.7973 20.9308 10.6608 20.5858 9.69412 19.9397C8.72744 19.2936 7.97407 18.3753 7.52925 17.301C7.08444 16.2268 6.96816 15.0447 7.19513 13.9043C7.42209 12.764 7.9821 11.7165 8.80434 10.8944C9.62659 10.0723 10.6741 9.51251 11.8145 9.28574C12.9549 9.05898 14.137 9.17547 15.2112 9.62047C16.2854 10.0655 17.2035 10.819 17.8495 11.7858C18.4954 12.7526 18.8402 13.8892 18.8402 15.0519C18.8383 16.6108 18.2181 18.1052 17.1158 19.2073C16.0134 20.3095 14.5189 20.9294 12.9601 20.931ZM12.9601 11.2466C12.2075 11.2468 11.4719 11.4702 10.8462 11.8884C10.2206 12.3067 9.73301 12.9011 9.44515 13.5964C9.15729 14.2918 9.08208 15.0569 9.22903 15.795C9.37597 16.533 9.73848 17.211 10.2707 17.7431C10.8029 18.2752 11.481 18.6375 12.2191 18.7842C12.9572 18.931 13.7223 18.8556 14.4176 18.5675C15.1129 18.2795 15.7071 17.7917 16.1252 17.166C16.5433 16.5402 16.7664 15.8045 16.7664 15.0519C16.7651 14.0429 16.3636 13.0757 15.65 12.3623C14.9364 11.6489 13.9691 11.2477 12.9601 11.2466Z" fill="#2563EB"/>
<path d="M20.8559 36.8755H18.9802C18.7052 36.8755 18.4415 36.7663 18.2471 36.5718C18.0526 36.3774 17.9434 36.1136 17.9434 35.8386V30.4998C17.9434 30.2248 18.0526 29.961 18.2471 29.7666C18.4415 29.5721 18.7052 29.4629 18.9802 29.4629H20.8559C21.5153 29.4648 22.1472 29.7276 22.6135 30.1939C23.0797 30.6601 23.3425 31.292 23.3444 31.9514V34.387C23.3425 35.0464 23.0797 35.6783 22.6135 36.1445C22.1472 36.6108 21.5153 36.8736 20.8559 36.8755ZM20.0171 34.8018H20.8559C20.9654 34.8002 21.07 34.7559 21.1474 34.6785C21.2249 34.6011 21.2691 34.4965 21.2707 34.387V31.9555C21.2693 31.846 21.2252 31.7412 21.1477 31.6638C21.0702 31.5863 20.9655 31.5421 20.8559 31.5408H20.0171V34.8018Z" fill="#2563EB"/>
<path d="M13.7901 64.871C13.5873 64.8713 13.389 64.8121 13.2195 64.7008C13.0501 64.5896 12.917 64.4311 12.8367 64.2449C12.7563 64.0588 12.7323 63.8532 12.7676 63.6536C12.8029 63.454 12.8959 63.2691 13.0352 63.1218C13.3731 62.6721 13.5588 62.1265 13.5653 61.5641C13.5718 61.0017 13.3988 60.4519 13.0715 59.9946C11.4301 57.0592 13.0363 52.4928 13.225 51.9816C13.3201 51.7235 13.5139 51.5138 13.7637 51.3986C14.0134 51.2834 14.2987 51.2721 14.5568 51.3672C14.8149 51.4624 15.0246 51.6562 15.1398 51.9059C15.2551 52.1557 15.2663 52.441 15.1712 52.6991C14.7564 53.8397 13.8844 57.1971 14.8829 58.9815C15.4297 59.8232 15.6919 60.8181 15.6309 61.8199C15.5698 62.8217 15.1888 63.7774 14.5439 64.5464C14.4469 64.649 14.3301 64.7307 14.2004 64.7865C14.0708 64.8423 13.9312 64.871 13.7901 64.871Z" fill="#2563EB"/>
<path d="M58.1167 10.054C56.8512 9.98142 55.6511 9.46779 54.725 8.60234C54.5259 8.41513 54.4088 8.1569 54.3991 7.88379C54.3894 7.61068 54.4879 7.34478 54.6732 7.1439C54.8585 6.94303 55.1156 6.82343 55.3886 6.81112C55.6616 6.7988 55.9284 6.89476 56.131 7.07813C56.1435 7.09057 57.8066 8.58056 58.8694 7.70025C61.191 5.781 64.2135 7.53228 64.34 7.60693C64.5776 7.74677 64.7499 7.97526 64.819 8.24215C64.8882 8.50903 64.8484 8.79245 64.7086 9.03005C64.6394 9.14769 64.5476 9.25055 64.4386 9.33274C64.3296 9.41494 64.2055 9.47486 64.0734 9.50909C63.8065 9.57821 63.5231 9.53849 63.2855 9.39865C63.2575 9.38206 61.3818 8.31823 60.1925 9.30326C59.6125 9.79356 58.8761 10.0599 58.1167 10.054Z" fill="#2563EB"/>
<path d="M58.1145 16.1597C56.8491 16.0868 55.6492 15.5732 54.7229 14.708C54.5206 14.5216 54.4007 14.2624 54.3895 13.9876C54.3783 13.7127 54.4768 13.4447 54.6633 13.2424C54.8497 13.0402 55.1089 12.9202 55.3837 12.9091C55.6586 12.8979 55.9266 12.9963 56.1289 13.1828C56.1413 13.1963 57.8045 14.6863 58.8673 13.8049C61.1888 11.8857 64.2113 13.6369 64.3378 13.7116C64.4551 13.7808 64.5576 13.8725 64.6395 13.9814C64.7214 14.0902 64.781 14.2141 64.815 14.3461C64.849 14.478 64.8567 14.6153 64.8376 14.7501C64.8185 14.885 64.7731 15.0148 64.7038 15.1321C64.6346 15.2494 64.5429 15.3519 64.4341 15.4338C64.3252 15.5157 64.2013 15.5753 64.0694 15.6093C63.9375 15.6433 63.8002 15.651 63.6653 15.6319C63.5304 15.6128 63.4006 15.5674 63.2833 15.4981C63.2553 15.4805 61.3796 14.4177 60.1903 15.4027C59.611 15.895 58.8747 16.1635 58.1145 16.1597Z" fill="#2563EB"/>
<path d="M58.1145 22.2675C56.8491 22.1946 55.6492 21.681 54.7229 20.8159C54.5206 20.6294 54.4007 20.3702 54.3895 20.0954C54.3783 19.8205 54.4768 19.5525 54.6633 19.3502C54.8497 19.148 55.1089 19.0281 55.3837 19.0169C55.6586 19.0057 55.9266 19.1042 56.1289 19.2906C56.1413 19.3041 57.8045 20.793 58.8673 19.9127C61.1909 17.9873 64.2103 19.7437 64.3389 19.8194C64.5755 19.9595 64.7468 20.1879 64.815 20.4543C64.8833 20.7207 64.8429 21.0033 64.7028 21.2399C64.5627 21.4766 64.3343 21.6479 64.0679 21.7161C63.8015 21.7844 63.5189 21.744 63.2823 21.6039C63.2315 21.5738 61.3713 20.5276 60.1903 21.5106C59.6111 22.0029 58.8747 22.2715 58.1145 22.2675Z" fill="#2563EB"/>
</svg>
