<svg width="58" height="58" viewBox="0 0 58 58" fill="none" xmlns="http://www.w3.org/2000/svg">
<path d="M52.695 37.1662C50.6952 34.4401 49.0631 28.1359 49.8881 20.1458C50.1661 17.5093 50.0495 15.0073 49.5384 12.7296C48.0677 6.06667 44.5165 3.63646 43.0638 2.90112C42.8306 2.78454 42.5885 2.61416 42.3105 2.37203C40.795 1.04483 39.3333 0.444007 37.9613 0.57852C36.8224 0.686131 35.7911 1.31386 34.9571 2.38997C34.6791 2.75764 34.2038 2.91906 33.7465 2.80248C32.0875 2.4079 29.2089 2.41687 26.9939 6.07564C26.9401 6.12048 26.8953 6.17428 26.8594 6.24602C26.8235 6.31776 23.2544 12.8462 12.5023 17.877L12.4754 16.2628C12.7534 15.9669 12.9059 15.5813 12.9059 15.1688L12.879 13.5905C12.87 13.169 12.6996 12.7834 12.4126 12.4964L12.2692 5.07127C12.2423 3.57369 10.9958 2.34513 9.48922 2.34513C7.98267 2.34513 6.73618 3.56472 6.70928 5.07127L6.54786 13.5636C6.26987 13.8416 6.09948 14.2182 6.09052 14.6307L6.04568 16.9443C6.03671 17.3568 6.18916 17.7335 6.46715 18.0294L6.42231 20.5045C6.18019 20.7824 6.02774 21.1322 6.02774 21.5178V22.5222C6.02774 22.8719 6.15329 23.2127 6.36851 23.4817L6.234 30.3867C5.42691 30.4495 4.78125 31.1221 4.78125 31.9471V39.9461C4.78125 40.5559 5.13099 41.0761 5.64214 41.3361V55.6304C5.64214 56.9038 6.67341 57.9351 7.9468 57.9351H11.0227C12.2961 57.9351 13.3273 56.9038 13.3273 55.6304V50.77C13.695 50.77 13.9999 50.4651 13.9999 50.0974V48.6536C13.9999 48.286 13.695 47.9811 13.3273 47.9811V47.165C13.695 47.165 13.9999 46.8601 13.9999 46.4925V43.6049C13.9999 43.2372 13.695 42.9323 13.3273 42.9323V41.3451C13.8385 41.085 14.1882 40.5649 14.1882 39.9551V31.956C14.1882 31.131 13.5515 30.4585 12.7355 30.3957L12.601 23.4279C17.7035 22.3966 21.5954 20.5134 24.4292 18.6123C24.474 19.3118 24.5368 20.0202 24.6534 20.7466C25.0121 22.9795 25.0838 24.5668 24.4651 26.5307C24.2409 27.2301 23.918 28.3331 23.5504 29.6065C22.8419 32.0188 21.9183 35.1933 21.1829 37.2469L21.0305 37.3814C17.838 40.1434 16.0086 44.1519 16.0086 48.3667V57.2894C16.0086 57.6571 16.3135 57.962 16.6812 57.962C17.0489 57.962 17.3538 57.6571 17.3538 57.2894V48.3487C17.3538 45.3087 18.4209 42.4033 20.3041 40.0717C19.6405 44.1699 22.3039 46.905 22.4294 47.0395C22.6177 47.2278 22.9047 47.2906 23.1558 47.1919C23.4069 47.0933 23.5683 46.8512 23.5773 46.5821C23.5862 46.1786 23.649 45.3805 23.8463 44.5644C23.9718 46.4387 24.5637 48.9137 26.4917 51.1646C26.6262 51.317 26.8056 51.3977 27.0029 51.3977C27.0926 51.3977 27.1822 51.3798 27.2719 51.3439C27.5409 51.2273 27.7024 50.9493 27.6755 50.6534C27.6665 50.5996 27.1553 45.5598 28.9847 42.7351C30.563 40.3048 30.0877 37.4263 29.6124 35.1844C29.8815 35.1844 30.1684 35.1754 30.3568 35.1754C30.5092 36.8703 31.2535 38.3768 32.491 39.4798C33.7017 40.5559 35.2979 41.1478 36.9748 41.1478C40.5349 41.1478 43.2701 38.6279 43.5929 35.1844C50.7849 35.274 56.6048 41.1388 56.6048 48.3487V57.2715C56.6048 57.6391 56.9097 57.944 57.2774 57.944C57.6451 57.944 57.9589 57.6391 57.9589 57.2715V48.3487C57.9589 43.856 55.9054 39.8385 52.695 37.1662ZM33.4416 4.10277C34.4101 4.33593 35.4324 3.9862 36.0332 3.19705C36.4457 2.659 37.1452 1.9954 38.1047 1.90572C39.0912 1.80708 40.2031 2.30029 41.4317 3.3764C41.7994 3.69923 42.1222 3.92342 42.463 4.09381C43.4673 4.59599 46.8481 6.73924 48.2291 13.0165C48.7044 15.1598 48.812 17.5093 48.5519 20.0023C47.8345 26.8894 48.8568 32.2161 50.2827 35.5431C48.2381 34.449 45.9155 33.8213 43.4404 33.8213H40.4991V29.7859C43.9337 27.9386 46.3728 23.4996 46.3728 18.3074C46.3728 17.4106 46.3011 16.5408 46.1666 15.7337C46.1666 15.7247 46.1666 15.7158 46.1666 15.7158C46.1666 15.6978 46.1666 15.6799 46.1576 15.662C46.1576 15.6351 46.1397 15.6171 46.1307 15.5992C46.1128 15.5454 46.0948 15.4916 46.0679 15.4467C46.05 15.4109 46.0231 15.384 45.9962 15.3571C45.9693 15.3302 45.9603 15.2943 45.9334 15.2764C43.0459 12.8013 40.7591 10.6043 39.8803 6.84685C39.6203 5.73487 39.0822 4.85605 38.2841 4.22832C37.9882 3.99516 37.5667 4.04897 37.3425 4.3449C37.1183 4.64083 37.1631 5.0623 37.4591 5.28649C37.764 5.51965 38.0061 5.81558 38.1944 6.16531C37.2169 6.19222 36.2395 6.63163 35.5221 7.42974C34.9392 8.07541 33.9438 8.9901 32.4821 9.67163C30.8858 10.4159 29.7828 11.6086 29.0654 12.6399C28.5184 13.3214 27.4513 14.5231 25.8012 15.8682C26.0344 11.788 27.2271 8.6852 27.245 8.64933C29.0206 4.09381 31.5943 3.66336 33.4416 4.10277ZM30.5361 33.8303C30.3478 33.8303 29.7828 33.8303 29.3434 33.8392C29.2896 33.5523 29.2448 33.2922 29.2179 33.068C28.8861 30.1805 29.2986 27.7951 29.6124 26.0374C30.6258 27.7054 31.953 29.0147 33.4775 29.8128V33.8213H30.5361V33.8303ZM30.5809 12.8641C31.1728 12.1377 31.9889 11.3934 33.047 10.8912C34.715 10.111 35.8628 9.07081 36.5175 8.3265C37.1004 7.67187 37.9254 7.3849 38.6787 7.53735C39.692 11.3486 42.0594 13.707 44.8483 16.1103C44.956 16.8008 45.0187 17.5362 45.0187 18.3074C45.0187 24.3964 41.4048 29.3554 36.9569 29.3554C32.509 29.3554 28.8861 24.3964 28.8861 18.3074C28.8861 17.2044 29.0116 16.1014 29.2537 15.0342C29.3165 14.8818 29.5766 14.2541 30.0877 13.5008C30.3388 13.2049 30.5002 12.9807 30.5809 12.8641ZM34.8226 30.3688C35.5131 30.584 36.2215 30.7006 36.9659 30.7006C37.7191 30.7006 38.4545 30.5661 39.1539 30.3508V34.4939C39.1539 35.9914 38.0689 36.655 36.9928 36.655C35.9166 36.655 34.8316 35.9825 34.8316 34.4939V30.3688H34.8226ZM25.2363 10.5863C24.8417 12.1736 24.4292 14.4065 24.4023 16.9354C20.8691 19.4732 15.3809 22.1635 7.60603 22.7463C7.52533 22.7643 7.47152 22.7105 7.44462 22.6836C7.41772 22.6567 7.37288 22.6029 7.37288 22.5132V21.5088C7.37288 21.4191 7.43565 21.3295 7.53429 21.3026C9.18433 20.7466 10.7088 20.1458 12.1257 19.518C12.1347 19.518 12.1347 19.518 12.1436 19.5091C18.7258 16.6215 22.8419 13.16 25.2363 10.5863ZM11.1931 13.429C11.2289 13.4021 11.2738 13.3932 11.3007 13.3932C11.3276 13.3932 11.3365 13.4021 11.3545 13.4111C11.3903 13.438 11.4352 13.4739 11.48 13.4918C11.498 13.5187 11.5159 13.5636 11.5249 13.6174L11.5518 15.1957C11.5518 15.2584 11.5249 15.3212 11.489 15.3571C10.9599 15.8054 9.76722 16.6484 7.66881 17.2044C7.57913 17.2313 7.50739 17.1865 7.47152 17.1596C7.43565 17.1326 7.38185 17.0699 7.38185 16.9802L7.42668 14.6666C7.42668 14.55 7.51636 14.4603 7.62397 14.4513C9.00497 14.3527 10.2066 14.0119 11.1931 13.429ZM7.77642 19.796L7.80332 18.5316C7.87506 18.5226 7.9468 18.5226 8.01854 18.5047C9.37265 18.146 10.4039 17.6707 11.1482 17.2313L11.1751 18.4778C10.108 18.9351 8.9691 19.3745 7.77642 19.796ZM9.48922 3.69923C10.2604 3.69923 10.9061 4.32696 10.924 5.10714L11.0585 12.0839C10.8702 12.1198 10.6909 12.1646 10.5205 12.2722C9.80309 12.6937 8.9153 12.9627 7.91093 13.0793L8.06338 5.11611C8.07235 4.32696 8.70904 3.69923 9.48922 3.69923ZM11.9822 55.6394C11.9822 56.1685 11.5518 56.5989 11.0227 56.5989H7.9468C7.41771 56.5989 6.98727 56.1685 6.98727 55.6394V41.5155H11.9822V55.6394ZM12.8521 31.9471V39.9461C12.8521 40.0717 12.7534 40.1703 12.6279 40.1703H6.35057C6.22503 40.1703 6.12639 40.0717 6.12639 39.9461V31.9471C6.12639 31.8215 6.22503 31.7229 6.35057 31.7229H12.6279C12.7445 31.7229 12.8521 31.8215 12.8521 31.9471ZM11.3993 30.3777H7.57016L7.68674 24.0915H7.70468C8.95117 24.0018 10.1349 23.8494 11.2648 23.661L11.3993 30.3777ZM27.8727 41.9997C26.6442 43.9008 26.3213 46.5194 26.2765 48.4115C24.6354 45.1742 25.3439 41.9549 25.3529 41.91C25.4156 41.641 25.308 41.363 25.0749 41.2016C24.8507 41.0402 24.5458 41.0402 24.3216 41.1926C23.1917 41.9459 22.6715 43.4883 22.4384 44.7258C21.73 43.4166 21.0484 41.2554 22.1066 38.6279C22.9047 36.655 23.9808 32.9425 24.8507 29.9652C25.2183 28.7008 25.5412 27.6157 25.7564 26.9252C26.4559 24.7192 26.3752 22.8988 25.9985 20.5224C25.8461 19.5539 25.7743 18.5944 25.7564 17.6707C26.5097 17.0968 27.1643 16.5408 27.7382 16.0207C27.6306 16.7829 27.5499 17.5452 27.5499 18.3164C27.5499 20.2892 27.9086 22.1545 28.5363 23.8135C28.5812 24.1632 28.4556 24.8896 28.3032 25.7236C27.9893 27.4633 27.523 30.0997 27.8817 33.2205C27.9355 33.7226 28.07 34.3145 28.2045 34.9512C28.6529 37.0137 29.2627 39.8475 27.8727 41.9997ZM36.9838 39.8027C35.6387 39.8027 34.3653 39.3274 33.3968 38.4665C32.4552 37.6235 31.8723 36.4757 31.7198 35.1664H33.5313C33.6927 36.126 34.168 36.7537 34.5805 37.1214C35.2172 37.6863 36.0691 38.0002 36.9748 38.0002C38.5352 38.0002 40.1045 37.0227 40.4184 35.1664H42.2388C41.9339 37.8567 39.7817 39.8027 36.9838 39.8027Z" fill="#2563EB"/>
<path d="M9.482 35.4888C8.4328 35.4888 7.58984 36.3407 7.58984 37.3989C7.58984 38.4481 8.44176 39.291 9.482 39.291C10.5312 39.291 11.3921 38.4391 11.3921 37.3989C11.3921 36.3407 10.5402 35.4888 9.482 35.4888ZM9.482 37.9459C9.1771 37.9459 8.93498 37.7038 8.93498 37.3989C8.93498 37.085 9.1771 36.8339 9.482 36.8339C9.79587 36.8339 10.047 37.085 10.047 37.3989C10.047 37.7038 9.79587 37.9459 9.482 37.9459Z" fill="#2563EB"/>
<path d="M9.47921 34.7991C9.84688 34.7991 10.1518 34.4942 10.1518 34.1265V33.1042C10.1518 32.7365 9.84688 32.4316 9.47921 32.4316C9.11154 32.4316 8.80664 32.7365 8.80664 33.1042V34.1355C8.80664 34.5031 9.11154 34.7991 9.47921 34.7991Z" fill="#2563EB"/>
<path d="M1.69771 11.6443C2.02054 11.3484 2.20886 11.3484 2.53169 11.6443C2.95317 12.0389 3.41051 12.2272 3.85889 12.2272C4.30727 12.2272 4.76462 12.0299 5.18609 11.6443C5.45512 11.3932 5.47305 10.9628 5.22196 10.6938C4.97087 10.4247 4.54043 10.4068 4.2714 10.6579C3.94857 10.9538 3.76025 10.9538 3.43742 10.6579C2.59446 9.87771 1.62597 9.87771 0.774048 10.6579C0.505021 10.909 0.487086 11.3305 0.738178 11.6084C0.998237 11.8775 1.41971 11.8954 1.69771 11.6443Z" fill="#2563EB"/>
<path d="M1.69771 14.7923C2.02054 14.4963 2.20886 14.4963 2.53169 14.7923C2.95317 15.1779 3.41051 15.3752 3.85889 15.3752C4.30727 15.3752 4.76462 15.1779 5.18609 14.7923C5.45512 14.5412 5.47305 14.1197 5.22196 13.8417C4.97087 13.5637 4.54939 13.5547 4.2714 13.8058C3.94857 14.1018 3.76025 14.1018 3.43742 13.8058C2.59446 13.0257 1.62597 13.0257 0.774048 13.8058C0.505021 14.0569 0.487086 14.4784 0.738178 14.7564C0.998237 15.0344 1.41971 15.0523 1.69771 14.7923Z" fill="#2563EB"/>
<path d="M1.69771 17.9397C2.02054 17.6438 2.20886 17.6438 2.53169 17.9397C2.95317 18.3343 3.41051 18.5226 3.85889 18.5226C4.30727 18.5226 4.76462 18.3253 5.18609 17.9397C5.45512 17.6886 5.47305 17.2582 5.22196 16.9892C4.97087 16.7201 4.54043 16.7022 4.2714 16.9533C3.94857 17.2492 3.76025 17.2492 3.43742 16.9533C2.59446 16.1731 1.62597 16.1731 0.774048 16.9533C0.505021 17.2044 0.487086 17.6259 0.738178 17.9039C0.998237 18.1819 1.41971 18.1998 1.69771 17.9397Z" fill="#2563EB"/>
<path d="M5.23173 20.1459C4.98064 19.8769 4.55019 19.8589 4.28117 20.11C3.95833 20.406 3.77001 20.406 3.44718 20.11C2.60423 19.3299 1.63573 19.3299 0.783814 20.11C0.514787 20.3611 0.496852 20.7826 0.747943 21.0606C0.999035 21.3296 1.42948 21.3476 1.69851 21.0965C2.02134 20.7916 2.20966 20.8005 2.53249 21.0965C2.95397 21.491 3.41131 21.6794 3.85969 21.6794C4.30807 21.6794 4.76541 21.4821 5.18689 21.0965C5.46488 20.8454 5.48282 20.4149 5.23173 20.1459Z" fill="#2563EB"/>
</svg>
