<svg width="67" height="56" viewBox="0 0 67 56" fill="none" xmlns="http://www.w3.org/2000/svg">
<path d="M65.8072 29.9594H62.4896V27.7476C62.4896 27.3353 62.2601 26.9572 61.8944 26.7668L12.7804 1.18648C10.0721 -0.224131 6.73274 0.82786 5.32213 3.53639C5.31255 3.55485 5.30298 3.57331 5.29368 3.59177L4.5942 4.97212C4.32232 5.50867 4.52911 6.16415 5.05982 6.44755L4.53896 7.42307C3.676 9.03936 4.28651 11.0491 5.90281 11.9122L27.364 23.3718C28.9803 24.235 30.9902 23.6243 31.8533 22.0081C31.8533 22.0081 31.8533 22.0081 31.8533 22.008L32.3741 21.0326L48.802 29.8048C48.3515 30.5118 48.1125 31.3328 48.1132 32.1711H32.631V31.0653C32.6289 29.2339 31.1448 27.7498 29.3134 27.7476H4.98405C3.15264 27.7497 1.66861 29.2339 1.66639 31.0653V32.1711C1.05559 32.1711 0.560547 32.6663 0.560547 33.2769V35.4886C0.564017 38.5411 3.03759 41.0146 6.08989 41.018H56.9602C59.5869 41.0149 61.8502 39.1673 62.3789 36.5945H64.6703C64.4077 41.1849 62.499 42.7782 60.7997 44.1938C59.4557 45.3138 58.0659 46.4718 58.0659 48.7591C58.0659 51.0149 59.4245 52.8866 61.9948 54.1717C63.1453 54.7352 64.3665 55.1414 65.6253 55.3793V55.3782C66.2263 55.4833 66.7987 55.0811 66.9036 54.48C67.0085 53.8789 66.6065 53.3066 66.0054 53.2016C65.9997 53.2007 65.9942 53.1997 65.9885 53.1989V53.1977C65.9314 53.1882 60.2776 52.151 60.2776 48.7591C60.2776 47.5608 60.9067 46.9835 62.2153 45.8929C64.1976 44.2407 66.9128 41.9782 66.9128 35.4886V31.0651C66.9132 30.4545 66.418 29.9594 65.8072 29.9594ZM64.7014 32.1711V34.3828H62.4896V32.1711H64.7014ZM7.26665 4.5913C8.0945 2.95669 10.0908 2.30273 11.7254 3.13072C11.7368 3.13641 11.748 3.14224 11.7593 3.14821L60.2312 28.3939C60.0801 29.2345 59.4434 30.4466 56.7858 30.9417C56.1093 28.597 53.6602 27.2444 51.3154 27.9208C51.0482 27.9978 50.789 28.1 50.5411 28.2257L7.05639 5.00613L7.26665 4.5913ZM52.5367 29.9594C53.7583 29.9594 54.7485 30.9497 54.7485 32.1712C54.7485 33.3927 53.7583 34.3829 52.5367 34.3829C51.3153 34.3829 50.325 33.3927 50.325 32.1712C50.3264 30.9502 51.3158 29.9608 52.5367 29.9594ZM29.9024 20.9664C29.6147 21.5052 28.9448 21.7086 28.406 21.4209L6.94467 9.96131C6.4059 9.67361 6.2023 9.00369 6.49001 8.46493L7.01073 7.48941L30.4232 19.9912L29.9024 20.9664ZM3.87821 31.0653C3.8789 30.4547 4.37367 29.9601 4.98405 29.9594H29.3134C29.9239 29.9601 30.4185 30.4549 30.4192 31.0653V32.1711H3.87821V31.0653ZM56.9602 38.8064H6.08989C4.25848 38.8043 2.77445 37.3202 2.77223 35.4888V34.3829H48.7083C49.9285 36.4979 52.6321 37.2233 54.747 36.0031C55.8075 35.3913 56.5668 34.3671 56.8439 33.1747C58.3449 32.935 59.4583 32.4949 60.2777 31.9481V35.4888C60.2758 37.3202 58.7916 38.8042 56.9602 38.8064Z" fill="#2563EB"/>
</svg>
