<svg width="20" height="20" viewBox="0 0 20 20" fill="none" xmlns="http://www.w3.org/2000/svg">
<path d="M15.4546 6.78585H13.7974L14.3446 4.7016C14.4226 4.40463 14.2502 4.0988 13.9589 4.01912C13.6677 3.93945 13.3682 4.11604 13.2908 4.413L12.6684 6.78585H8.79455L9.34167 4.7016C9.41967 4.40463 9.24728 4.0988 8.95605 4.01912C8.66471 3.94006 8.36588 4.11604 8.28838 4.413L7.66545 6.78585H5.63637C5.33524 6.78585 5.09095 7.03487 5.09095 7.34295C5.09095 7.65114 5.33524 7.90015 5.63637 7.90015H7.37251L6.4949 11.243H4.54542C4.2444 11.243 4 11.492 4 11.8001C4 12.1081 4.2444 12.3572 4.54542 12.3572H6.20257L5.65544 14.4414C5.57744 14.7384 5.74983 15.0442 6.04107 15.1239C6.08801 15.1367 6.13545 15.1429 6.18179 15.1429C6.42239 15.1429 6.64332 14.979 6.70824 14.73L7.33166 12.3572H11.2055L10.6583 14.4414C10.5804 14.7384 10.7527 15.0442 11.0441 15.1239C11.0909 15.1367 11.1383 15.1429 11.1853 15.1429C11.4259 15.1429 11.6467 14.979 11.7116 14.73L12.3346 12.3572H14.3636C14.6648 12.3572 14.9092 12.1081 14.9092 11.8001C14.9092 11.492 14.6648 11.243 14.3636 11.243H12.6275L13.5051 7.90015H15.4546C15.7557 7.90015 16 7.65114 16 7.34295C16 7.03487 15.7557 6.78585 15.4546 6.78585ZM11.4978 11.243H7.624L8.50161 7.90015H12.3755L11.4978 11.243Z" fill="#6B7280"/>
</svg>
