<svg width="24" height="8" viewBox="0 0 24 8" fill="none" xmlns="http://www.w3.org/2000/svg">
<path d="M2.48104 2.03174V3.89846H0.780165V2.03174H-0.0273438V6.48779H0.780165V4.68168H2.48104V6.48779H3.28855V2.03174H2.48104Z" fill="#33475B"/>
<path d="M5.87159 5.04727C5.87159 5.22585 5.8012 5.39712 5.67592 5.5234C5.55064 5.64968 5.38072 5.72062 5.20354 5.72062C5.02637 5.72062 4.85645 5.64968 4.73116 5.5234C4.60588 5.39712 4.5355 5.22585 4.5355 5.04727V3.13867H3.76953V5.04727C3.76953 5.43024 3.92047 5.79753 4.18914 6.06834C4.45781 6.33914 4.8222 6.49128 5.20216 6.49128C5.58211 6.49128 5.94651 6.33914 6.21518 6.06834C6.48385 5.79753 6.63478 5.43024 6.63478 5.04727V3.13867H5.87159V5.04727Z" fill="#33475B"/>
<path d="M11.5464 3.33537C11.5464 2.94416 11.8032 2.82014 12.0845 2.82014C12.3112 2.82014 12.6107 2.99401 12.8065 3.20497L13.3082 2.60918C13.0578 2.26782 12.5498 2.03174 12.1339 2.03174C11.3031 2.03174 10.7021 2.52225 10.7021 3.33537C10.7021 4.84399 12.5316 4.36544 12.5316 5.20967C12.5316 5.47008 12.2807 5.70018 11.9935 5.70018C11.5405 5.70018 11.3937 5.47686 11.1856 5.24078L10.6289 5.82421C10.985 6.26487 11.4242 6.48859 11.9504 6.48859C12.7397 6.48859 13.3747 5.9921 13.3747 5.21606C13.3747 3.54115 11.5452 4.06157 11.5452 3.33537" fill="#33475B"/>
<path d="M22.8618 5.77575C22.4091 5.77575 22.2806 5.57835 22.2806 5.27607V3.93814H22.984V3.2602H22.2806V2.36572L21.5039 2.71705V5.44237C21.5039 6.13945 21.9811 6.49078 22.6354 6.49078C22.7381 6.49266 22.8406 6.48438 22.9417 6.46605L23.1312 5.76299C23.0457 5.76897 22.9476 5.77496 22.8618 5.77496" fill="#33475B"/>
<path d="M8.78834 3.16075C8.40891 3.16075 8.14423 3.27162 7.88825 3.52485V2.05811H7.12109V4.77664C7.12109 5.79434 7.85106 6.49142 8.67123 6.49142C9.58121 6.49142 10.3816 5.78198 10.3816 4.82649C10.3816 3.88296 9.64491 3.16115 8.78834 3.16115V3.16075ZM8.78359 5.71339C8.61144 5.71339 8.44315 5.66194 8.30001 5.56553C8.15687 5.46913 8.04531 5.33211 7.97943 5.1718C7.91355 5.01149 7.89631 4.83508 7.9299 4.6649C7.96348 4.49471 8.04638 4.33839 8.16811 4.21569C8.28984 4.09299 8.44493 4.00944 8.61378 3.97558C8.78262 3.94173 8.95763 3.95911 9.11668 4.02551C9.27573 4.09191 9.41167 4.20436 9.50731 4.34864C9.60296 4.49291 9.654 4.66254 9.654 4.83606C9.654 5.06874 9.5623 5.29189 9.39907 5.45643C9.23583 5.62096 9.01444 5.71339 8.78359 5.71339Z" fill="#33475B"/>
<path d="M17.1199 4.78603C17.1199 3.82894 16.3211 3.12109 15.4095 3.12109C14.5893 3.12109 13.8594 3.81817 13.8594 4.83588V7.55601H14.6265V6.08727C14.8821 6.3401 15.1472 6.45136 15.5262 6.45136C16.3828 6.45136 17.1195 5.72996 17.1195 4.78603H17.1199ZM16.3935 4.77646C16.3935 4.94998 16.3424 5.1196 16.2468 5.26388C16.1511 5.40815 16.0152 5.5206 15.8561 5.58701C15.6971 5.65341 15.5221 5.67078 15.3532 5.63693C15.1844 5.60308 15.0293 5.51952 14.9076 5.39683C14.7858 5.27413 14.7029 5.1178 14.6694 4.94762C14.6358 4.77743 14.653 4.60103 14.7189 4.44072C14.7848 4.28041 14.8963 4.14339 15.0395 4.04698C15.1826 3.95058 15.3509 3.89913 15.5231 3.89913C15.7539 3.89913 15.9753 3.99156 16.1385 4.15609C16.3018 4.32062 16.3935 4.54378 16.3935 4.77646Z" fill="#33475B"/>
<path d="M19.5903 3.0839V2.30707C19.6921 2.2591 19.7784 2.18296 19.839 2.0875C19.8996 1.99205 19.932 1.88122 19.9325 1.76791V1.74996C19.9325 1.59131 19.87 1.43916 19.7587 1.32698C19.6474 1.2148 19.4964 1.15178 19.3391 1.15178H19.3212C19.1639 1.15178 19.0129 1.2148 18.9016 1.32698C18.7903 1.43916 18.7278 1.59131 18.7278 1.74996V1.76791C18.7283 1.88122 18.7607 1.99205 18.8213 2.0875C18.8819 2.18296 18.9682 2.2591 19.07 2.30707V3.0839C18.7773 3.12904 18.5016 3.25135 18.2708 3.43843L16.1573 1.77907C16.1722 1.72435 16.1802 1.66793 16.181 1.61118C16.1813 1.47787 16.1423 1.34748 16.069 1.23651C15.9957 1.12554 15.8914 1.03897 15.7693 0.987757C15.6472 0.936541 15.5127 0.922977 15.383 0.948782C15.2532 0.974586 15.134 1.0386 15.0403 1.13273C14.9466 1.22685 14.8828 1.34686 14.8568 1.47758C14.8308 1.60829 14.8439 1.74383 14.8943 1.86707C14.9448 1.9903 15.0303 2.09568 15.1402 2.16988C15.2501 2.24409 15.3793 2.28378 15.5116 2.28394C15.6273 2.28342 15.7407 2.25234 15.8408 2.19381L17.9223 3.82605C17.7352 4.11077 17.6376 4.44569 17.6422 4.78713C17.6468 5.12858 17.7534 5.46071 17.948 5.74023L17.3149 6.37829C17.2637 6.36181 17.2104 6.35307 17.1567 6.35236C17.0481 6.35244 16.942 6.38496 16.8517 6.44582C16.7615 6.50667 16.6912 6.59312 16.6497 6.69424C16.6081 6.79537 16.5973 6.90663 16.6185 7.01396C16.6397 7.1213 16.692 7.21989 16.7688 7.29728C16.8455 7.37466 16.9434 7.42737 17.0498 7.44874C17.1563 7.47011 17.2667 7.45919 17.367 7.41734C17.4674 7.37549 17.5531 7.30461 17.6135 7.21365C17.6739 7.12268 17.7062 7.01572 17.7062 6.90628C17.7056 6.85212 17.6969 6.79836 17.6805 6.74677L18.3068 6.11548C18.511 6.27389 18.7485 6.38308 19.0011 6.4347C19.2536 6.48631 19.5146 6.47898 19.7639 6.41326C20.0132 6.34755 20.2443 6.22519 20.4394 6.05556C20.6346 5.88593 20.7886 5.67354 20.8897 5.43464C20.9909 5.19574 21.0364 4.93668 21.0229 4.6773C21.0094 4.41792 20.9371 4.16509 20.8117 3.9382C20.6863 3.7113 20.511 3.51635 20.2993 3.36827C20.0876 3.22019 19.8451 3.12292 19.5903 3.0839ZM19.3307 5.63854C19.1594 5.63838 18.992 5.58703 18.8496 5.49099C18.7072 5.39495 18.5963 5.25852 18.5308 5.09895C18.4654 4.93937 18.4483 4.76382 18.4818 4.59447C18.5153 4.42512 18.5978 4.26958 18.719 4.1475C18.8402 4.02543 18.9945 3.9423 19.1625 3.90862C19.3306 3.87494 19.5047 3.89222 19.663 3.95829C19.8213 4.02435 19.9566 4.13623 20.0518 4.27978C20.1471 4.42333 20.1979 4.59211 20.198 4.76479C20.198 4.99642 20.1067 5.21856 19.9442 5.38234C19.7817 5.54612 19.5613 5.63814 19.3315 5.63814" fill="#FF7A59"/>
</svg>
