<svg width="15" height="15" viewBox="0 0 15 15" fill="none" xmlns="http://www.w3.org/2000/svg">
<path d="M12.7731 6.89892V9.84669C12.8025 10.0956 12.7742 10.3478 12.6901 10.5845C12.606 10.8211 12.4684 11.0361 12.2875 11.2133C12.1067 11.3905 11.8873 11.5253 11.6458 11.6077C11.4043 11.6901 11.1469 11.7179 10.8928 11.689H4.87593C4.62189 11.7179 4.36448 11.6901 4.12295 11.6077C3.88142 11.5253 3.66204 11.3905 3.4812 11.2133C3.30036 11.0361 3.16275 10.8211 3.07867 10.5845C2.99459 10.3478 2.96621 10.0956 2.99566 9.84669V4.93375C2.96621 4.68483 2.99459 4.43261 3.07867 4.19595C3.16275 3.9593 3.30036 3.74433 3.4812 3.56714C3.66204 3.38995 3.88142 3.25512 4.12295 3.17273C4.36448 3.09035 4.62189 3.06254 4.87593 3.09139H8.38578C8.48552 3.09139 8.58117 3.13021 8.65169 3.19931C8.72222 3.26842 8.76184 3.36214 8.76184 3.45986C8.76184 3.55759 8.72222 3.65131 8.65169 3.72041C8.58117 3.78951 8.48552 3.82833 8.38578 3.82833H4.87593C4.08521 3.82833 3.74777 4.15898 3.74777 4.93375V9.47822L5.02134 8.23033C5.11601 8.13829 5.24397 8.08664 5.37734 8.08664C5.51071 8.08664 5.63867 8.13829 5.73334 8.23033L6.20466 8.69215C6.25152 8.73716 6.31453 8.76237 6.38015 8.76237C6.44578 8.76237 6.50878 8.73716 6.55565 8.69215L9.0326 6.26515C9.12727 6.17311 9.25523 6.12146 9.3886 6.12146C9.52196 6.12146 9.64993 6.17311 9.74459 6.26515L12.021 8.49563V6.89892C12.021 6.8012 12.0606 6.70748 12.1311 6.63838C12.2017 6.56927 12.2973 6.53045 12.397 6.53045C12.4968 6.53045 12.5924 6.56927 12.6629 6.63838C12.7335 6.70748 12.7731 6.8012 12.7731 6.89892ZM5.87524 5.30222C5.70876 5.30267 5.54928 5.36785 5.43181 5.48343C5.31434 5.59901 5.2485 5.75555 5.24873 5.91867C5.24896 6.08178 5.31526 6.23814 5.43305 6.3534C5.55085 6.46866 5.71052 6.5334 5.87699 6.5334C6.04346 6.5334 6.20313 6.46866 6.32093 6.3534C6.43873 6.23814 6.50502 6.08178 6.50525 5.91867C6.50549 5.75555 6.43964 5.59901 6.32217 5.48343C6.2047 5.36785 6.04522 5.30267 5.87875 5.30222H5.87524ZM10.3914 4.31963H11.0182V4.93375C11.0182 5.03147 11.0578 5.12519 11.1283 5.19429C11.1988 5.2634 11.2945 5.30222 11.3942 5.30222C11.494 5.30222 11.5896 5.2634 11.6601 5.19429C11.7307 5.12519 11.7703 5.03147 11.7703 4.93375V4.31963H12.397C12.4968 4.31963 12.5924 4.28081 12.6629 4.21171C12.7335 4.1426 12.7731 4.04888 12.7731 3.95116C12.7731 3.85343 12.7335 3.75971 12.6629 3.69061C12.5924 3.62151 12.4968 3.58269 12.397 3.58269H11.7703V2.96857C11.7703 2.87084 11.7307 2.77712 11.6601 2.70802C11.5896 2.63892 11.494 2.6001 11.3942 2.6001C11.2945 2.6001 11.1988 2.63892 11.1283 2.70802C11.0578 2.77712 11.0182 2.87084 11.0182 2.96857V3.58269H10.3914C10.2917 3.58269 10.196 3.62151 10.1255 3.69061C10.055 3.75971 10.0154 3.85343 10.0154 3.95116C10.0154 4.04888 10.055 4.1426 10.1255 4.21171C10.196 4.28081 10.2917 4.31963 10.3914 4.31963Z" fill="white"/>
</svg>
