<svg width="20" height="20" viewBox="0 0 20 20" fill="none" xmlns="http://www.w3.org/2000/svg">
<path d="M16.9839 9.14118V13.3523C17.0259 13.7079 16.9854 14.0682 16.8653 14.4063C16.7452 14.7443 16.5486 15.0514 16.2903 15.3046C16.0319 15.5577 15.7185 15.7503 15.3735 15.868C15.0284 15.9857 14.6607 16.0254 14.2978 15.9842H5.70222C5.33931 16.0254 4.97157 15.9857 4.62654 15.868C4.2815 15.7503 3.96809 15.5577 3.70975 15.3046C3.45141 15.0514 3.25483 14.7443 3.13471 14.4063C3.01459 14.0682 2.97405 13.7079 3.01611 13.3523V6.33378C2.97405 5.97819 3.01459 5.61787 3.13471 5.27979C3.25483 4.94171 3.45141 4.63462 3.70975 4.38149C3.96809 4.12836 4.2815 3.93575 4.62654 3.81805C4.97157 3.70036 5.33931 3.66063 5.70222 3.70185H10.7163C10.8588 3.70185 10.9954 3.75731 11.0962 3.85602C11.1969 3.95474 11.2535 4.08863 11.2535 4.22824C11.2535 4.36784 11.1969 4.50173 11.0962 4.60045C10.9954 4.69916 10.8588 4.75462 10.7163 4.75462H5.70222C4.57263 4.75462 4.09056 5.22697 4.09056 6.33378V12.8259L5.90995 11.0432C6.04519 10.9117 6.228 10.8379 6.41852 10.8379C6.60905 10.8379 6.79185 10.9117 6.92709 11.0432L7.60041 11.7029C7.66736 11.7672 7.75737 11.8032 7.85111 11.8032C7.94486 11.8032 8.03487 11.7672 8.10182 11.7029L11.6403 8.2358C11.7756 8.1043 11.9584 8.03052 12.1489 8.03052C12.3394 8.03052 12.5222 8.1043 12.6575 8.2358L15.9094 11.4222V9.14118C15.9094 9.00157 15.966 8.86769 16.0668 8.76897C16.1675 8.67025 16.3042 8.61479 16.4467 8.61479C16.5891 8.61479 16.7258 8.67025 16.8265 8.76897C16.9273 8.86769 16.9839 9.00157 16.9839 9.14118ZM7.1298 6.86017C6.89198 6.86082 6.66415 6.95393 6.49634 7.11905C6.32853 7.28416 6.23446 7.50779 6.23479 7.74081C6.23512 7.97384 6.32983 8.1972 6.49811 8.36186C6.66639 8.52652 6.89449 8.619 7.13231 8.619C7.37013 8.619 7.59823 8.52652 7.76651 8.36186C7.93479 8.1972 8.02949 7.97384 8.02983 7.74081C8.03016 7.50779 7.93609 7.28416 7.76828 7.11905C7.60047 6.95393 7.37263 6.86082 7.13482 6.86017H7.1298ZM13.5815 5.45647H14.4768V6.33378C14.4768 6.47339 14.5334 6.60728 14.6342 6.706C14.7349 6.80471 14.8716 6.86017 15.0141 6.86017C15.1566 6.86017 15.2932 6.80471 15.3939 6.706C15.4947 6.60728 15.5513 6.47339 15.5513 6.33378V5.45647H16.4467C16.5891 5.45647 16.7258 5.40101 16.8265 5.3023C16.9273 5.20358 16.9839 5.06969 16.9839 4.93009C16.9839 4.79048 16.9273 4.65659 16.8265 4.55787C16.7258 4.45916 16.5891 4.4037 16.4467 4.4037H15.5513V3.52639C15.5513 3.38678 15.4947 3.25289 15.3939 3.15418C15.2932 3.05546 15.1566 3 15.0141 3C14.8716 3 14.7349 3.05546 14.6342 3.15418C14.5334 3.25289 14.4768 3.38678 14.4768 3.52639V4.4037H13.5815C13.439 4.4037 13.3024 4.45916 13.2016 4.55787C13.1009 4.65659 13.0443 4.79048 13.0443 4.93009C13.0443 5.06969 13.1009 5.20358 13.2016 5.3023C13.3024 5.40101 13.439 5.45647 13.5815 5.45647Z" fill="#232859"/>
</svg>
