<svg width="13" height="10" viewBox="0 0 13 10" fill="none" xmlns="http://www.w3.org/2000/svg">
<path d="M12.6096 0H0.39039C0.175676 0 0 0.166667 0 0.37037C0 0.574074 0.175676 0.740741 0.39039 0.740741H12.6096C12.8243 0.740741 13 0.574074 13 0.37037C13 0.166667 12.8243 0 12.6096 0Z" fill="#6B7280"/>
<path d="M8.97898 3.07422H0.39039C0.175676 3.07422 0 3.24089 0 3.44459C0 3.64829 0.175676 3.81496 0.39039 3.81496H8.97898C9.19369 3.81496 9.36937 3.64829 9.36937 3.44459C9.36937 3.24089 9.19369 3.07422 8.97898 3.07422Z" fill="#6B7280"/>
<path d="M12.6096 6.18506H0.39039C0.175676 6.18506 0 6.35173 0 6.55543C0 6.75913 0.175676 6.9258 0.39039 6.9258H12.6096C12.8243 6.9258 13 6.75913 13 6.55543C13 6.35173 12.8243 6.18506 12.6096 6.18506Z" fill="#6B7280"/>
<path d="M5.8949 9.25928H0.39039C0.175676 9.25928 0 9.42594 0 9.62965C0 9.83335 0.175676 10 0.39039 10H5.8949C6.10961 10 6.28529 9.83335 6.28529 9.62965C6.28529 9.42594 6.10961 9.25928 5.8949 9.25928Z" fill="#6B7280"/>
</svg>
