<svg width="13" height="12" viewBox="0 0 13 12" fill="none" xmlns="http://www.w3.org/2000/svg">
<g clip-path="url(#clip0_463_35737)">
<path d="M9.69922 4.5H9.32422V3C9.32422 1.34546 7.97876 0 6.32422 0C4.66968 0 3.32422 1.34546 3.32422 3V4.5H2.94922C2.32922 4.5 1.82422 5.00446 1.82422 5.625V10.875C1.82422 11.4955 2.32922 12 2.94922 12H9.69922C10.3192 12 10.8242 11.4955 10.8242 10.875V5.625C10.8242 5.00446 10.3192 4.5 9.69922 4.5ZM4.32425 3C4.32425 1.89697 5.22119 1.00003 6.32422 1.00003C7.42725 1.00003 8.32419 1.89697 8.32419 3V4.5H4.32425V3Z" fill="white"/>
</g>
<defs>
<clipPath id="clip0_463_35737">
<rect width="12" height="12" fill="white" transform="translate(0.324219)"/>
</clipPath>
</defs>
</svg>
