<svg width="20" height="20" viewBox="0 0 20 20" fill="none" xmlns="http://www.w3.org/2000/svg">
<path d="M6.56589 10.0587C6.56589 9.71699 6.84922 9.43366 7.19088 9.43366H11.7576V2.38366C11.7492 1.98366 11.4326 1.66699 11.0326 1.66699C6.12422 1.66699 2.69922 5.09199 2.69922 10.0003C2.69922 14.9087 6.12422 18.3337 11.0326 18.3337C11.4242 18.3337 11.7492 18.017 11.7492 17.617V10.6753H7.19088C6.84088 10.6837 6.56589 10.4003 6.56589 10.0587Z" fill="#232859"/>
<path d="M17.1186 9.61683L14.752 7.2418C14.5103 7.00013 14.1103 7.00013 13.8686 7.2418C13.627 7.48346 13.627 7.88346 13.8686 8.12513L15.1686 9.42516H11.752V10.6752H15.1603L13.8603 11.9752C13.6186 12.2168 13.6186 12.6168 13.8603 12.8585C13.9853 12.9835 14.1436 13.0418 14.302 13.0418C14.4603 13.0418 14.6186 12.9835 14.7436 12.8585L17.1103 10.4835C17.3603 10.2502 17.3603 9.8585 17.1186 9.61683Z" fill="#232859"/>
</svg>
