<svg width="32" height="32" viewBox="0 0 32 32" fill="none" xmlns="http://www.w3.org/2000/svg">
<path fill-rule="evenodd" clip-rule="evenodd" d="M18.9987 5.3335C18.9987 4.78122 19.4464 4.3335 19.9987 4.3335H23.9987C26.0238 4.3335 27.6654 5.97512 27.6654 8.00016V24.0002C27.6654 26.0252 26.0238 27.6668 23.9987 27.6668H19.9987C19.4464 27.6668 18.9987 27.2191 18.9987 26.6668C18.9987 26.1146 19.4464 25.6668 19.9987 25.6668H23.9987C24.9192 25.6668 25.6654 24.9207 25.6654 24.0002V8.00016C25.6654 7.07968 24.9192 6.3335 23.9987 6.3335H19.9987C19.4464 6.3335 18.9987 5.88578 18.9987 5.3335ZM11.3725 9.95972C11.763 10.3502 11.763 10.9834 11.3725 11.3739L7.74624 15.0002H21.332C21.8843 15.0002 22.332 15.4479 22.332 16.0002C22.332 16.5524 21.8843 17.0002 21.332 17.0002H7.74624L11.3725 20.6264C11.763 21.017 11.763 21.65 11.3725 22.0406C10.982 22.4311 10.3488 22.4311 9.95826 22.0406L4.62492 16.7072C4.43739 16.5198 4.33203 16.2654 4.33203 16.0002C4.33203 15.735 4.43739 15.4806 4.62492 15.2931L9.95826 9.95972C10.3488 9.5692 10.982 9.5692 11.3725 9.95972Z" fill="#6B7280"/>
</svg>
