<svg width="25" height="25" viewBox="0 0 25 25" fill="none" xmlns="http://www.w3.org/2000/svg">
<g clip-path="url(#clip0_629_35317)">
<path d="M12.666 0.691406C7.70252 0.691406 3.66602 4.72791 3.66602 9.69141C3.66602 15.9299 11.79 24.1259 12.135 24.4724C12.282 24.6179 12.474 24.6914 12.666 24.6914C12.858 24.6914 13.05 24.6179 13.197 24.4724C13.542 24.1259 21.666 15.9299 21.666 9.69141C21.666 4.72791 17.6295 0.691406 12.666 0.691406ZM12.666 22.8569C10.875 20.9399 5.16602 14.4569 5.16602 9.69141C5.16602 5.55591 8.53052 2.19141 12.666 2.19141C16.8015 2.19141 20.166 5.55591 20.166 9.69141C20.166 14.4524 14.457 20.9399 12.666 22.8569Z" fill="#484848"/>
<path d="M12.666 5.19141C10.185 5.19141 8.16602 7.21041 8.16602 9.69141C8.16602 12.1724 10.185 14.1914 12.666 14.1914C15.147 14.1914 17.166 12.1724 17.166 9.69141C17.166 7.21041 15.147 5.19141 12.666 5.19141ZM12.666 12.6914C11.0115 12.6914 9.66602 11.3459 9.66602 9.69141C9.66602 8.03691 11.0115 6.69141 12.666 6.69141C14.3205 6.69141 15.666 8.03691 15.666 9.69141C15.666 11.3459 14.3205 12.6914 12.666 12.6914Z" fill="#484848"/>
</g>
<defs>
<clipPath id="clip0_629_35317">
<rect width="24" height="24" fill="white" transform="translate(0.666016 0.691406)"/>
</clipPath>
</defs>
</svg>
