<svg width="35" height="8" viewBox="0 0 35 8" fill="none" xmlns="http://www.w3.org/2000/svg">
<g clip-path="url(#clip0_423_51601)">
<path d="M12.4656 4.7891L12.265 5.35598H12.2483C12.2149 5.22815 12.1537 5.03364 12.0534 4.80022L10.9785 2.10476H9.92578V6.40082H10.622V3.74982C10.622 3.58309 10.622 3.39413 10.6164 3.16071C10.6109 3.044 10.5997 2.95508 10.5941 2.88838H10.6109C10.6443 3.05511 10.6833 3.17738 10.7111 3.25519L12.0033 6.3897H12.4934L13.7744 3.2274C13.8023 3.15515 13.8301 3.01065 13.858 2.88838H13.8747C13.858 3.20517 13.8468 3.48861 13.8413 3.6609V6.38415H14.582V2.09364H13.5684L12.4656 4.7891ZM15.2838 3.30521H16.0079V6.38415H15.2838V3.30521ZM15.6514 2.00472C15.5289 2.00472 15.4286 2.04918 15.3451 2.12699C15.2615 2.20479 15.217 2.30483 15.217 2.4271C15.217 2.54381 15.2615 2.64385 15.3451 2.72166C15.4286 2.79946 15.5289 2.83837 15.6514 2.83837C15.7739 2.83837 15.8798 2.7939 15.9577 2.72166C16.0413 2.64385 16.0858 2.54381 16.0858 2.4271C16.0858 2.31039 16.0413 2.21035 15.9577 2.12699C15.8853 2.04918 15.7795 2.00472 15.6514 2.00472ZM18.5755 3.27742C18.4418 3.24963 18.3026 3.23296 18.1689 3.23296C17.8403 3.23296 17.5395 3.30521 17.2889 3.44971C17.0383 3.59421 16.8378 3.79428 16.7097 4.04438C16.576 4.30003 16.5091 4.59458 16.5091 4.9336C16.5091 5.22815 16.576 5.48936 16.7041 5.72834C16.8322 5.96176 17.0104 6.15072 17.2499 6.27855C17.4783 6.40638 17.7456 6.47307 18.0464 6.47307C18.3917 6.47307 18.6869 6.40082 18.9208 6.26744L18.9264 6.26188V5.59496L18.8985 5.61719C18.7927 5.695 18.6702 5.76169 18.5476 5.80059C18.4195 5.84505 18.3026 5.86728 18.2023 5.86728C17.9127 5.86728 17.6843 5.78392 17.5228 5.60052C17.3557 5.42267 17.2722 5.17814 17.2722 4.87247C17.2722 4.55568 17.3557 4.30558 17.5284 4.12218C17.7011 3.93878 17.9294 3.8443 18.2079 3.8443C18.4418 3.8443 18.6813 3.92211 18.8985 4.07772L18.9264 4.09995V3.39413L18.9208 3.38857C18.8261 3.34967 18.7203 3.30521 18.5755 3.27742ZM20.9649 3.25519C20.7867 3.25519 20.6196 3.31077 20.4748 3.42748C20.3522 3.52751 20.2687 3.67201 20.1963 3.8443H20.1907V3.30521H19.4666V6.38415H20.1907V4.81133C20.1907 4.54456 20.2464 4.32226 20.3689 4.16109C20.4915 3.99436 20.6474 3.91099 20.8368 3.91099C20.9036 3.91099 20.9705 3.92767 21.054 3.93878C21.132 3.96101 21.1877 3.98324 21.2267 4.01103L21.2545 4.03326V3.31077L21.2378 3.30521C21.1877 3.27186 21.0874 3.25519 20.9649 3.25519ZM22.9366 3.23852C22.4297 3.23852 22.0231 3.38857 21.7391 3.68313C21.4494 3.97768 21.3102 4.38339 21.3102 4.8947C21.3102 5.37265 21.455 5.76169 21.7335 6.04513C22.012 6.32301 22.3907 6.46751 22.8641 6.46751C23.3598 6.46751 23.7553 6.31745 24.0393 6.01734C24.329 5.71723 24.4682 5.31708 24.4682 4.82245C24.4682 4.33337 24.3345 3.94434 24.0616 3.6609C23.7999 3.37746 23.4155 3.23852 22.9366 3.23852ZM23.5158 5.60607C23.3821 5.77836 23.1705 5.86173 22.9087 5.86173C22.6469 5.86173 22.4353 5.77836 22.2849 5.59496C22.1345 5.42267 22.0621 5.17258 22.0621 4.85579C22.0621 4.52789 22.1401 4.2778 22.2849 4.09995C22.4353 3.92211 22.6414 3.83319 22.9031 3.83319C23.1593 3.83319 23.3598 3.91655 23.5047 4.08884C23.6495 4.26112 23.7274 4.51122 23.7274 4.83912C23.7163 5.17258 23.655 5.43379 23.5158 5.60607ZM26.0834 4.58347C25.8551 4.48899 25.7103 4.41674 25.6434 4.3556C25.5877 4.30003 25.5599 4.22222 25.5599 4.12218C25.5599 4.03882 25.5933 3.95545 25.6768 3.89988C25.7604 3.8443 25.8551 3.81651 25.9943 3.81651C26.1168 3.81651 26.2449 3.83874 26.3675 3.87209C26.49 3.90543 26.6014 3.95545 26.6905 4.02215L26.7184 4.04438V3.36634L26.7017 3.36079C26.6181 3.32744 26.5067 3.29409 26.373 3.26631C26.2394 3.24407 26.1168 3.23296 26.0166 3.23296C25.6713 3.23296 25.3872 3.31632 25.1644 3.49973C24.9416 3.67201 24.8358 3.90543 24.8358 4.17776C24.8358 4.32226 24.8581 4.45008 24.9082 4.55568C24.9583 4.66127 25.0308 4.76131 25.131 4.84468C25.2313 4.92248 25.3761 5.01141 25.5766 5.09477C25.7437 5.16702 25.8718 5.2226 25.9497 5.26706C26.0277 5.31152 26.0779 5.36154 26.1168 5.40044C26.1447 5.4449 26.1614 5.50048 26.1614 5.57273C26.1614 5.77836 26.0054 5.8784 25.688 5.8784C25.5654 5.8784 25.4373 5.85617 25.287 5.80615C25.1366 5.75613 24.9973 5.68388 24.8804 5.60052L24.8525 5.57829V6.28411L24.8692 6.28967C24.9751 6.33968 25.1032 6.37303 25.2591 6.41193C25.4151 6.43972 25.5543 6.46195 25.6768 6.46195C26.05 6.46195 26.3563 6.37859 26.5736 6.19519C26.7963 6.01734 26.9133 5.78948 26.9133 5.49492C26.9133 5.28929 26.8576 5.10589 26.7351 4.96695C26.5736 4.83356 26.373 4.69462 26.0834 4.58347ZM28.8237 3.23852C28.3169 3.23852 27.9103 3.38857 27.6262 3.68313C27.3422 3.97768 27.1974 4.38339 27.1974 4.8947C27.1974 5.37265 27.3422 5.76169 27.6207 6.04513C27.8991 6.32301 28.2779 6.46751 28.7513 6.46751C29.247 6.46751 29.6424 6.31745 29.9265 6.01734C30.2161 5.71723 30.3554 5.31708 30.3554 4.82245C30.3554 4.33337 30.2217 3.94434 29.9488 3.6609C29.687 3.37746 29.3027 3.23852 28.8237 3.23852ZM29.3974 5.60607C29.2637 5.77836 29.0521 5.86173 28.7903 5.86173C28.5229 5.86173 28.3169 5.77836 28.1665 5.59496C28.0161 5.42267 27.9437 5.17258 27.9437 4.85579C27.9437 4.52789 28.0217 4.2778 28.1665 4.09995C28.3169 3.92211 28.5229 3.83319 28.7847 3.83319C29.0354 3.83319 29.2414 3.91655 29.3862 4.08884C29.5311 4.26112 29.609 4.51122 29.609 4.83912C29.609 5.17258 29.5366 5.43379 29.3974 5.60607ZM34.2263 3.89988V3.30521H33.4967V2.39375L33.4744 2.39931L32.7837 2.60494L32.767 2.6105V3.30521H31.6754V2.91617C31.6754 2.73833 31.7199 2.59939 31.7979 2.51046C31.8759 2.42154 31.9929 2.37708 32.1377 2.37708C32.2379 2.37708 32.3437 2.39931 32.4607 2.44933L32.4886 2.466V1.83799L32.4718 1.83243C32.3716 1.79909 32.2379 1.77686 32.0653 1.77686C31.848 1.77686 31.6587 1.82687 31.486 1.91024C31.3134 2.00472 31.1852 2.13254 31.0906 2.30483C30.9959 2.47156 30.9458 2.66052 30.9458 2.87727V3.30521H30.4389V3.89432H30.9458V6.38415H31.6754V3.89988H32.767V5.48381C32.767 6.13405 33.0734 6.46195 33.686 6.46195C33.7863 6.46195 33.8921 6.44528 33.9924 6.42861C34.0982 6.40638 34.1762 6.37859 34.2207 6.35636L34.2263 6.3508V5.75613L34.1984 5.77836C34.1539 5.80615 34.1149 5.82838 34.0481 5.84505C33.9924 5.86173 33.9422 5.86728 33.9032 5.86728C33.7584 5.86728 33.6582 5.83394 33.5858 5.75057C33.5189 5.67277 33.4855 5.54494 33.4855 5.35598V3.89988H34.2263Z" fill="#737373"/>
<path d="M0.59375 0.660156H4.00796V4.06699H0.59375V0.660156Z" fill="#F25022"/>
<path d="M4.36328 0.660156H7.7775V4.06699H4.36328V0.660156Z" fill="#7FBA00"/>
<path d="M0.59375 4.42285H4.00796V7.82969H0.59375V4.42285Z" fill="#00A4EF"/>
<path d="M4.36328 4.42285H7.7775V7.82969H4.36328V4.42285Z" fill="#FFB900"/>
</g>
<defs>
<clipPath id="clip0_423_51601">
<rect width="33.6409" height="7.16936" fill="white" transform="translate(0.625 0.660156)"/>
</clipPath>
</defs>
</svg>
