<svg width="14" height="22" viewBox="0 0 14 22" fill="none" xmlns="http://www.w3.org/2000/svg">
<path fill-rule="evenodd" clip-rule="evenodd" d="M0.25 3C0.25 1.48122 1.48122 0.25 3 0.25H11C12.5188 0.25 13.75 1.48122 13.75 3V19C13.75 20.5188 12.5188 21.75 11 21.75H3C1.48122 21.75 0.25 20.5188 0.25 19V3ZM3 1.75C2.30964 1.75 1.75 2.30964 1.75 3V19C1.75 19.6904 2.30964 20.25 3 20.25H11C11.6904 20.25 12.25 19.6904 12.25 19V3C12.25 2.30964 11.6904 1.75 11 1.75H3Z" fill="#928FC0"/>
<path fill-rule="evenodd" clip-rule="evenodd" d="M4 0.25C3.58579 0.25 3.25 0.58579 3.25 1V2C3.25 2.9665 4.0335 3.75 5 3.75H9C9.9665 3.75 10.75 2.9665 10.75 2V1C10.75 0.58579 10.4142 0.25 10 0.25H4Z" fill="#928FC0"/>
</svg>
