<svg width="19" height="18" viewBox="0 0 19 18" fill="none" xmlns="http://www.w3.org/2000/svg">
<path d="M9.32583 10.45C10.1271 10.45 10.7767 9.80044 10.7767 8.99917C10.7767 8.1979 10.1271 7.54834 9.32583 7.54834C8.52456 7.54834 7.875 8.1979 7.875 8.99917C7.875 9.80044 8.52456 10.45 9.32583 10.45Z" fill="#6B7280"/>
<path d="M3.52505 10.45C4.32632 10.45 4.97588 9.80044 4.97588 8.99917C4.97588 8.1979 4.32632 7.54834 3.52505 7.54834C2.72378 7.54834 2.07422 8.1979 2.07422 8.99917C2.07422 9.80044 2.72378 10.45 3.52505 10.45Z" fill="#6B7280"/>
<path d="M15.1305 10.45C15.9318 10.45 16.5813 9.80044 16.5813 8.99917C16.5813 8.1979 15.9318 7.54834 15.1305 7.54834C14.3292 7.54834 13.6797 8.1979 13.6797 8.99917C13.6797 9.80044 14.3292 10.45 15.1305 10.45Z" fill="#6B7280"/>
</svg>
