<svg width="24" height="24" viewBox="0 0 24 24" fill="none" xmlns="http://www.w3.org/2000/svg">
<g opacity="0.99">
<path d="M2.82422 18.3516V20.4726C2.82422 20.861 3.13903 21.1758 3.52734 21.1758H20.4726C20.8609 21.1758 21.1757 20.861 21.1757 20.4726V18.3516H2.82422Z" fill="#FFC300"/>
<path d="M23.6766 5.75975C23.4227 5.59686 23.0932 5.61407 22.8576 5.8025L17.7385 9.89772C17.4902 10.0964 17.4061 10.4369 17.5334 10.7283C17.6116 10.9073 17.6513 11.0976 17.6513 11.2939C17.6513 12.0742 17.0165 12.7089 16.2363 12.7089C15.4561 12.7089 14.8212 12.0742 14.8212 11.2939C14.8212 10.8348 15.0461 10.4023 15.4226 10.1367C15.7067 9.93644 15.8017 9.55858 15.6463 9.24766L12.6289 3.2129C12.5098 2.97469 12.2663 2.82422 11.9999 2.82422C11.7336 2.82422 11.4901 2.97469 11.371 3.2129L8.3536 9.24771C8.19817 9.55858 8.29323 9.93644 8.57729 10.1368C8.95384 10.4023 9.17865 10.8349 9.17865 11.2939C9.17865 12.0742 8.54387 12.709 7.76359 12.709C6.98331 12.709 6.34853 12.0742 6.34853 11.2939C6.34853 11.0976 6.38819 10.9073 6.46642 10.7283C6.59374 10.437 6.50964 10.0964 6.26135 9.89777L1.14243 5.8025C0.906883 5.61402 0.577353 5.59691 0.323432 5.75975C0.0695578 5.92269 -0.0521292 6.22939 0.0210424 6.52208L2.62681 16.9453H21.3732L23.979 6.52208C24.0521 6.22939 23.9304 5.92269 23.6766 5.75975Z" fill="#FFC300"/>
</g>
</svg>
