<svg width="24" height="24" viewBox="0 0 24 24" fill="none" xmlns="http://www.w3.org/2000/svg">
<g clip-path="url(#clip0_466_32960)">
<path d="M0.348522 7.16513C0.713011 6.91668 1.2095 7.01057 1.45796 7.37484L3.08634 9.76244C3.50938 7.79149 4.48927 5.98044 5.94733 4.52248C7.94521 2.5246 10.6015 1.42432 13.427 1.42432C16.2525 1.42432 18.9089 2.5246 20.9067 4.52248C25.0311 8.64683 25.0311 15.3576 20.9067 19.4819C18.8446 21.5441 16.1358 22.5751 13.427 22.5751C10.7183 22.5751 8.00951 21.5441 5.94733 19.4819C5.63554 19.1701 5.63554 18.6645 5.94733 18.3527C6.25913 18.041 6.76467 18.041 7.07635 18.3527C10.5782 21.8545 16.2758 21.8545 19.7775 18.3527C23.2792 14.851 23.2792 9.15322 19.7775 5.6515C18.0812 3.9553 15.8259 3.02109 13.4269 3.02109C11.0279 3.02109 8.77255 3.9553 7.07635 5.65161C5.76711 6.96075 4.9138 8.60574 4.59178 10.3916L7.42584 8.45863C7.79011 8.21017 8.28681 8.30406 8.53527 8.66833C8.78373 9.03261 8.68984 9.52931 8.32556 9.77777L4.09795 12.6612C4.09774 12.6613 4.09753 12.6615 4.09731 12.6618C4.03046 12.7073 3.95914 12.7408 3.88579 12.7637C3.88356 12.7645 3.88143 12.7656 3.87919 12.7663C3.86674 12.7701 3.85407 12.7716 3.84151 12.7748C3.77764 12.7908 3.71292 12.8006 3.6482 12.8006C3.39314 12.8006 3.14244 12.6786 2.98788 12.452L0.138813 8.27468C-0.109646 7.91029 -0.0157547 7.41359 0.348522 7.16513Z" fill="#6B7280"/>
</g>
<defs>
<clipPath id="clip0_466_32960">
<rect width="24" height="24" fill="white" transform="matrix(-1 0 0 1 24 0)"/>
</clipPath>
</defs>
</svg>
