<svg width="24" height="24" viewBox="0 0 24 24" fill="none" xmlns="http://www.w3.org/2000/svg">
<g clip-path="url(#clip0_466_32962)">
<path d="M23.6515 7.16513C23.287 6.91668 22.7905 7.01057 22.542 7.37484L20.9137 9.76244C20.4906 7.79149 19.5107 5.98044 18.0527 4.52248C16.0548 2.5246 13.3985 1.42432 10.573 1.42432C7.74753 1.42432 5.09114 2.5246 3.09326 4.52248C-1.03109 8.64683 -1.03109 15.3576 3.09326 19.4819C5.15544 21.5441 7.8642 22.5751 10.573 22.5751C13.2817 22.5751 15.9905 21.5441 18.0527 19.4819C18.3645 19.1701 18.3645 18.6645 18.0527 18.3527C17.7409 18.041 17.2353 18.041 16.9236 18.3527C13.4218 21.8545 7.72422 21.8545 4.2225 18.3527C0.720782 14.851 0.720782 9.15322 4.2225 5.6515C5.9188 3.9553 8.17408 3.02109 10.5731 3.02109C12.9721 3.02109 15.2274 3.9553 16.9236 5.65161C18.2329 6.96075 19.0862 8.60574 19.4082 10.3916L16.5742 8.45863C16.2099 8.21017 15.7132 8.30406 15.4647 8.66833C15.2163 9.03261 15.3102 9.52931 15.6744 9.77777L19.902 12.6612C19.9023 12.6613 19.9025 12.6615 19.9027 12.6618C19.9695 12.7073 20.0409 12.7408 20.1142 12.7637C20.1164 12.7645 20.1186 12.7656 20.1208 12.7663C20.1333 12.7701 20.1459 12.7716 20.1585 12.7748C20.2224 12.7908 20.2871 12.8006 20.3518 12.8006C20.6069 12.8006 20.8576 12.6786 21.0121 12.452L23.8612 8.27468C24.1096 7.91029 24.0158 7.41359 23.6515 7.16513Z" fill="#6B7280"/>
</g>
<defs>
<clipPath id="clip0_466_32962">
<rect width="24" height="24" fill="white"/>
</clipPath>
</defs>
</svg>
