<svg width="14" height="14" viewBox="0 0 14 14" fill="none" xmlns="http://www.w3.org/2000/svg">
<path fill-rule="evenodd" clip-rule="evenodd" d="M2.80156 1.40039C3.18816 1.40039 3.50156 1.71379 3.50156 2.10039V3.57127C4.39063 2.66381 5.62993 2.10039 7.00156 2.10039C9.13615 2.10039 10.9502 3.46492 11.6226 5.36712C11.7514 5.73162 11.5603 6.13155 11.1958 6.26038C10.8313 6.38921 10.4314 6.19816 10.3026 5.83366C9.82178 4.47333 8.52439 3.50039 7.00156 3.50039C5.85711 3.50039 4.83999 4.0499 4.20111 4.90039H6.30156C6.68816 4.90039 7.00156 5.21379 7.00156 5.60039C7.00156 5.98699 6.68816 6.30039 6.30156 6.30039H2.80156C2.41496 6.30039 2.10156 5.98699 2.10156 5.60039V2.10039C2.10156 1.71379 2.41496 1.40039 2.80156 1.40039ZM2.80728 7.7404C3.17178 7.61157 3.57171 7.80262 3.70054 8.16712C4.18135 9.52745 5.47873 10.5004 7.00156 10.5004C8.14601 10.5004 9.16314 9.95088 9.80201 9.10039L7.70156 9.10039C7.31496 9.10039 7.00156 8.78699 7.00156 8.40039C7.00156 8.01379 7.31496 7.70039 7.70156 7.70039H11.2016C11.3872 7.70039 11.5653 7.77414 11.6965 7.90542C11.8278 8.03669 11.9016 8.21474 11.9016 8.40039V11.9004C11.9016 12.287 11.5882 12.6004 11.2016 12.6004C10.815 12.6004 10.5016 12.287 10.5016 11.9004V10.4295C9.6125 11.337 8.3732 11.9004 7.00156 11.9004C4.86698 11.9004 3.0529 10.5359 2.38056 8.63366C2.25173 8.26916 2.44278 7.86924 2.80728 7.7404Z" fill="white"/>
</svg>
