<svg width="13" height="13" viewBox="0 0 13 13" fill="none" xmlns="http://www.w3.org/2000/svg">
<g clip-path="url(#clip0_463_35687)">
<path d="M12.2243 5.197L11.2843 5.0775C11.2068 4.839 11.1113 4.609 10.9998 4.3905L11.5803 3.643C11.8153 3.3405 11.7878 2.9135 11.5193 2.6535L10.7318 1.866C10.4693 1.595 10.0423 1.568 9.73931 1.8025L8.99281 2.383C8.77431 2.2715 8.54431 2.176 8.30531 2.0985L8.18581 1.16C8.14081 0.7835 7.82131 0.5 7.44281 0.5H6.32281C5.94431 0.5 5.62481 0.7835 5.57981 1.1585L5.46031 2.0985C5.22131 2.176 4.99131 2.271 4.77281 2.383L4.02581 1.8025C3.72381 1.568 3.29681 1.595 3.03631 1.8635L2.24881 2.6505C1.97781 2.9135 1.95031 3.3405 2.18531 3.6435L2.76581 4.3905C2.65381 4.609 2.55881 4.839 2.48131 5.0775L1.54281 5.197C1.16631 5.242 0.882812 5.5615 0.882812 5.94V7.06C0.882812 7.4385 1.16631 7.758 1.54131 7.803L2.48131 7.9225C2.55881 8.161 2.65431 8.391 2.76581 8.6095L2.18531 9.357C1.95031 9.6595 1.97781 10.0865 2.24631 10.3465L3.03381 11.134C3.29681 11.4045 3.72331 11.4315 4.02631 11.197L4.77331 10.6165C4.99181 10.7285 5.22181 10.824 5.46031 10.901L5.57981 11.839C5.62481 12.2165 5.94431 12.5 6.32281 12.5H7.44281C7.82131 12.5 8.14081 12.2165 8.18581 11.8415L8.30531 10.9015C8.54381 10.824 8.77381 10.7285 8.99231 10.617L9.73981 11.1975C10.0423 11.4325 10.4693 11.405 10.7293 11.1365L11.5168 10.349C11.7878 10.086 11.8153 9.6595 11.5803 9.3565L10.9998 8.6095C11.1118 8.391 11.2073 8.161 11.2843 7.9225L12.2223 7.803C12.5988 7.758 12.8823 7.4385 12.8823 7.06V5.94C12.8828 5.5615 12.5993 5.242 12.2243 5.197ZM6.88281 9C5.50431 9 4.38281 7.8785 4.38281 6.5C4.38281 5.1215 5.50431 4 6.88281 4C8.26131 4 9.38281 5.1215 9.38281 6.5C9.38281 7.8785 8.26131 9 6.88281 9Z" fill="white"/>
</g>
<defs>
<clipPath id="clip0_463_35687">
<rect width="12" height="12" fill="white" transform="translate(0.882812 0.5)"/>
</clipPath>
</defs>
</svg>
