<svg width="14" height="14" viewBox="0 0 14 14" fill="none" xmlns="http://www.w3.org/2000/svg">
<path fill-rule="evenodd" clip-rule="evenodd" d="M3.50039 1.3999C3.88699 1.3999 4.20039 1.7133 4.20039 2.0999V2.7999H4.90039C5.28699 2.7999 5.60039 3.1133 5.60039 3.4999C5.60039 3.8865 5.28699 4.1999 4.90039 4.1999H4.20039V4.8999C4.20039 5.2865 3.88699 5.5999 3.50039 5.5999C3.11379 5.5999 2.80039 5.2865 2.80039 4.8999V4.1999H2.10039C1.71379 4.1999 1.40039 3.8865 1.40039 3.4999C1.40039 3.1133 1.71379 2.7999 2.10039 2.7999H2.80039V2.0999C2.80039 1.7133 3.11379 1.3999 3.50039 1.3999ZM3.50039 8.3999C3.88699 8.3999 4.20039 8.7133 4.20039 9.0999V9.7999H4.90039C5.28699 9.7999 5.60039 10.1133 5.60039 10.4999C5.60039 10.8865 5.28699 11.1999 4.90039 11.1999H4.20039V11.8999C4.20039 12.2865 3.88699 12.5999 3.50039 12.5999C3.11379 12.5999 2.80039 12.2865 2.80039 11.8999V11.1999H2.10039C1.71379 11.1999 1.40039 10.8865 1.40039 10.4999C1.40039 10.1133 1.71379 9.7999 2.10039 9.7999H2.80039V9.0999C2.80039 8.7133 3.11379 8.3999 3.50039 8.3999Z" fill="white"/>
<path fill-rule="evenodd" clip-rule="evenodd" d="M8.40035 1.3999C8.71797 1.3999 8.99577 1.61374 9.07705 1.92078L9.9025 5.03915L12.2502 6.39357C12.4669 6.51859 12.6004 6.74974 12.6004 6.9999C12.6004 7.25007 12.4669 7.48122 12.2502 7.60623L9.9025 8.96065L9.07705 12.079C8.99577 12.3861 8.71797 12.5999 8.40035 12.5999C8.08274 12.5999 7.80493 12.3861 7.72366 12.079L6.89821 8.96065L4.55058 7.60623C4.33389 7.48122 4.20039 7.25007 4.20039 6.9999C4.20039 6.74974 4.33389 6.51859 4.55058 6.39357L6.89821 5.03916L7.72366 1.92078C7.80493 1.61374 8.08274 1.3999 8.40035 1.3999Z" fill="white"/>
</svg>
