<svg width="24" height="25" viewBox="0 0 24 25" fill="none" xmlns="http://www.w3.org/2000/svg">
<path d="M9.98076 10.211L8.29889 10.5377C8.07604 10.5809 7.8712 10.6837 7.70657 10.8348C7.55226 10.9765 7.43615 11.1576 7.37086 11.3586C7.30556 11.5596 7.293 11.7744 7.33458 11.9797C7.37897 12.1987 7.48425 12.4022 7.63907 12.5683L8.80776 13.8211C8.84353 13.8595 8.8604 13.9114 8.85398 13.9634L8.64492 15.664C8.61722 15.8893 8.65167 16.1159 8.74448 16.3191C8.83153 16.5097 8.96789 16.676 9.13889 16.8003C9.30989 16.9245 9.51028 17.0028 9.71836 17.0267C9.76373 17.0319 9.80929 17.0345 9.85481 17.0345C10.032 17.0345 10.2085 16.9953 10.3722 16.9189L11.9249 16.1946C11.9724 16.1724 12.027 16.1724 12.0745 16.1946L13.6272 16.9189C13.8329 17.0149 14.059 17.0521 14.281 17.0267C14.4891 17.0028 14.6895 16.9245 14.8605 16.8003C15.0314 16.6761 15.1678 16.5097 15.2549 16.3191C15.3477 16.1159 15.3821 15.8893 15.3544 15.664L15.1454 13.9635C15.1389 13.9114 15.1558 13.8595 15.1916 13.8212L16.3603 12.5683C16.5151 12.4023 16.6204 12.1988 16.6648 11.9797C16.7064 11.7744 16.6939 11.5597 16.6285 11.3587C16.5632 11.1577 16.4471 10.9765 16.2928 10.8349C16.1282 10.6837 15.9234 10.581 15.7005 10.5377L14.0186 10.2111C13.9672 10.2011 13.923 10.169 13.8976 10.1231L13.0672 8.62453C12.9571 8.42596 12.7961 8.26289 12.6015 8.15306C12.4192 8.05007 12.211 7.99561 11.9997 7.99561C11.7884 7.99561 11.5802 8.05003 11.3978 8.15306C11.2032 8.26293 11.0422 8.42596 10.9321 8.62453L10.1017 10.1232C10.0764 10.169 10.0323 10.201 9.98076 10.211ZM11.0145 10.6289L11.8449 9.13022C11.8889 9.05086 11.9608 9.039 11.9998 9.039C12.0387 9.039 12.1106 9.05086 12.1545 9.13017L12.9849 10.6288C13.1603 10.9453 13.4646 11.1663 13.8197 11.2353L15.5017 11.562C15.5907 11.5793 15.6242 11.644 15.6362 11.6811C15.6483 11.7181 15.6592 11.7901 15.5973 11.8565L14.4287 13.1093C14.1819 13.3739 14.0657 13.7316 14.1098 14.0907L14.3189 15.7912C14.3299 15.8813 14.2787 15.9331 14.2472 15.956C14.2157 15.9789 14.1506 16.0116 14.0684 15.9732L12.5157 15.249C12.1878 15.096 11.8117 15.096 11.4838 15.249L9.93112 15.9733C9.8489 16.0116 9.78379 15.9789 9.75229 15.9561C9.72079 15.9332 9.66961 15.8813 9.68067 15.7913L9.88973 14.0908C9.93389 13.7317 9.81764 13.3739 9.57084 13.1094L8.40215 11.8565C8.34028 11.7902 8.3512 11.7181 8.36325 11.6811C8.37529 11.6441 8.40876 11.5794 8.49783 11.562L10.1797 11.2354C10.5349 11.1664 10.8392 10.9453 11.0145 10.6289Z" fill="#484848"/>
<path d="M2.72668 11.1134C2.76554 11.1222 2.80436 11.1264 2.84261 11.1264C3.08087 11.1264 3.29598 10.9621 3.35092 10.72C4.10125 7.41343 6.72264 4.79209 10.0292 4.04185C10.3102 3.9781 10.4863 3.69859 10.4225 3.41762C10.3588 3.1366 10.0793 2.96049 9.79829 3.02429C7.9795 3.43698 6.31722 4.35601 4.99117 5.68206C3.66512 7.00806 2.74609 8.67034 2.33336 10.4891C2.26961 10.7701 2.44572 11.0496 2.72668 11.1134Z" fill="#484848"/>
<path d="M10.0293 21.3413C6.72259 20.591 4.1012 17.9695 3.35097 14.6628C3.28722 14.3818 3.00775 14.2056 2.72673 14.2694C2.44572 14.3331 2.26961 14.6126 2.33336 14.8936C2.74604 16.7125 3.66507 18.3749 4.99112 19.701C6.31717 21.0271 7.9795 21.9462 9.79839 22.3589C9.83725 22.3677 9.87606 22.3719 9.91431 22.3719C10.1526 22.3719 10.3677 22.2077 10.4226 21.9655C10.4864 21.6845 10.3103 21.4051 10.0293 21.3413Z" fill="#484848"/>
<path d="M21.2735 14.2694C20.9926 14.2057 20.713 14.3817 20.6493 14.6628C19.899 17.9695 17.2776 20.5909 13.9709 21.3411C13.6899 21.4049 13.5137 21.6844 13.5775 21.9654C13.6324 22.2075 13.8475 22.3718 14.0858 22.3718C14.1241 22.3718 14.1629 22.3675 14.2017 22.3587C16.0206 21.9461 17.683 21.027 19.009 19.7009C20.3351 18.3749 21.2542 16.7125 21.6669 14.8937C21.7307 14.6126 21.5545 14.3331 21.2735 14.2694Z" fill="#484848"/>
<path d="M13.9709 4.04184C17.2773 4.79217 19.8987 7.41346 20.649 10.72C20.7039 10.9621 20.9191 11.1264 21.1573 11.1264C21.1956 11.1264 21.2344 11.1222 21.2732 11.1133C21.5543 11.0496 21.7304 10.77 21.6666 10.4891C21.2538 8.67028 20.3348 7.00804 19.0088 5.68204C17.6828 4.35604 16.0205 3.43701 14.2017 3.02428C13.9208 2.96053 13.6412 3.13659 13.5775 3.4176C13.5137 3.69857 13.6899 3.97809 13.9709 4.04184Z" fill="#484848"/>
<path d="M12.0002 5.90892C12.2884 5.90892 12.522 5.67534 12.522 5.3872V1.21312C12.522 0.924984 12.2884 0.691406 12.0002 0.691406C11.7121 0.691406 11.4785 0.924984 11.4785 1.21312V5.38716C11.4785 5.67534 11.7121 5.90892 12.0002 5.90892Z" fill="#484848"/>
<path d="M12.0002 19.4736C11.7121 19.4736 11.4785 19.7072 11.4785 19.9954V24.1694C11.4785 24.4575 11.7121 24.6911 12.0002 24.6911C12.2884 24.6911 12.522 24.4575 12.522 24.1694V19.9954C12.522 19.7072 12.2884 19.4736 12.0002 19.4736Z" fill="#484848"/>
<path d="M23.479 12.1699H19.3049C19.0168 12.1699 18.7832 12.4035 18.7832 12.6916C18.7832 12.9798 19.0168 13.2134 19.3049 13.2134H23.479C23.7671 13.2134 24.0007 12.9798 24.0007 12.6916C24.0007 12.4035 23.7671 12.1699 23.479 12.1699Z" fill="#484848"/>
<path d="M5.21752 12.6912C5.21752 12.403 4.98394 12.1694 4.6958 12.1694H0.521719C0.233578 12.1694 0 12.403 0 12.6912C0 12.9793 0.233578 13.2129 0.521719 13.2129H4.69575C4.98394 13.2129 5.21752 12.9793 5.21752 12.6912Z" fill="#484848"/>
</svg>
