<svg width="20" height="20" viewBox="0 0 20 20" fill="none" xmlns="http://www.w3.org/2000/svg">
<path d="M15.7898 11.046V7.88808C15.7898 6.35263 15.1799 4.88006 14.0941 3.79432C13.0084 2.70859 11.5358 2.09863 10.0004 2.09863C8.46493 2.09863 6.99236 2.70859 5.90663 3.79432C4.8209 4.88006 4.21094 6.35263 4.21094 7.88808V11.046C4.21094 12.5814 4.8209 14.054 5.90663 15.1397C6.99236 16.2255 8.46493 16.8354 10.0004 16.8354C11.5358 16.8354 13.0084 16.2255 14.0941 15.1397C15.1799 14.054 15.7898 12.5814 15.7898 11.046ZM5.26356 11.046V7.88808C5.26356 6.6318 5.76262 5.42697 6.65095 4.53864C7.53928 3.65032 8.7441 3.15126 10.0004 3.15126C11.2567 3.15126 12.4615 3.65032 13.3498 4.53864C14.2382 5.42697 14.7372 6.6318 14.7372 7.88808V11.046C14.7372 12.3022 14.2382 13.5071 13.3498 14.3954C12.4615 15.2837 11.2567 15.7828 10.0004 15.7828C8.7441 15.7828 7.53928 15.2837 6.65095 14.3954C5.76262 13.5071 5.26356 12.3022 5.26356 11.046Z" fill="#232859"/>
<path d="M18.421 6.83571H17.8157C17.5476 4.95386 16.6094 3.23194 15.1736 1.98623C13.7379 0.740527 11.9008 0.0546875 9.99996 0.0546875C8.0991 0.0546875 6.26206 0.740527 4.82627 1.98623C3.39048 3.23194 2.45235 4.95386 2.1842 6.83571H1.57894C1.16018 6.83571 0.75857 7.00206 0.462461 7.29817C0.166352 7.59428 0 7.99589 0 8.41465V11.5725C0 11.9913 0.166352 12.3929 0.462461 12.689C0.75857 12.9851 1.16018 13.1515 1.57894 13.1515H3.15788C3.29747 13.1515 3.43134 13.096 3.53004 12.9973C3.62874 12.8986 3.6842 12.7647 3.6842 12.6252V7.36202C3.68582 7.23587 3.64207 7.11333 3.56093 7.01673C3.47978 6.92012 3.36663 6.85588 3.24209 6.83571C3.49691 5.22661 4.31752 3.76124 5.55632 2.70317C6.79512 1.64511 8.37081 1.0638 9.99996 1.0638C11.6291 1.0638 13.2048 1.64511 14.4436 2.70317C15.6824 3.76124 16.503 5.22661 16.7578 6.83571C16.6333 6.85588 16.5201 6.92012 16.439 7.01673C16.3578 7.11333 16.3141 7.23587 16.3157 7.36202V12.6252C16.3157 12.7647 16.3712 12.8986 16.4699 12.9973C16.5686 13.096 16.7024 13.1515 16.842 13.1515C16.8412 14.5037 16.3671 15.813 15.5019 16.8523C14.6366 17.8915 13.4349 18.5951 12.1052 18.8409C12.1303 18.6546 12.1148 18.4651 12.0598 18.2854C12.0048 18.1056 11.9117 17.9399 11.7868 17.7995C11.6618 17.659 11.508 17.5472 11.3359 17.4717C11.1638 17.3962 10.9774 17.3588 10.7894 17.362H9.7368C9.38784 17.362 9.05316 17.5006 8.8064 17.7474C8.55965 17.9941 8.42102 18.3288 8.42102 18.6778C8.42102 19.0267 8.55965 19.3614 8.8064 19.6082C9.05316 19.8549 9.38784 19.9935 9.7368 19.9935H11.0526C12.8672 19.9935 14.6075 19.2727 15.8907 17.9896C17.1738 16.7064 17.8947 14.9661 17.8947 13.1515H18.421C18.8397 13.1515 19.2413 12.9851 19.5375 12.689C19.8336 12.3929 19.9999 11.9913 19.9999 11.5725V8.41465C19.9999 7.99589 19.8336 7.59428 19.5375 7.29817C19.2413 7.00206 18.8397 6.83571 18.421 6.83571ZM2.63157 12.0988H1.57894C1.43935 12.0988 1.30548 12.0434 1.20678 11.9447C1.10808 11.846 1.05263 11.7121 1.05263 11.5725V8.41465C1.05263 8.27506 1.10808 8.14119 1.20678 8.04249C1.30548 7.94378 1.43935 7.88833 1.57894 7.88833H2.63157V12.0988ZM9.47365 18.6778C9.47365 18.3409 9.78417 18.4146 10.7894 18.4146C10.8592 18.4146 10.9262 18.4423 10.9755 18.4917C11.0249 18.541 11.0526 18.608 11.0526 18.6778C11.0526 18.7476 11.0249 18.8145 10.9755 18.8638C10.9262 18.9132 10.8592 18.9409 10.7894 18.9409C9.83154 18.9409 9.47365 19.0251 9.47365 18.6778ZM18.9473 11.5725C18.9473 11.7121 18.8918 11.846 18.7931 11.9447C18.6944 12.0434 18.5606 12.0988 18.421 12.0988H17.3684V7.88833H18.421C18.5606 7.88833 18.6944 7.94378 18.7931 8.04249C18.8918 8.14119 18.9473 8.27506 18.9473 8.41465V11.5725Z" fill="#232859"/>
<path d="M11.9522 13.5251C12.0513 13.426 12.107 13.2916 12.107 13.1514C12.107 13.0113 12.0513 12.8769 11.9522 12.7778C11.8531 12.6786 11.7187 12.623 11.5785 12.623C11.4384 12.623 11.3039 12.6786 11.2048 12.7778C11.0469 12.9366 10.8591 13.0626 10.6522 13.1486C10.4454 13.2346 10.2236 13.2789 9.99958 13.2789C9.77557 13.2789 9.55378 13.2346 9.34694 13.1486C9.1401 13.0626 8.95229 12.9366 8.79432 12.7778C8.74539 12.7284 8.68718 12.6893 8.62304 12.6625C8.55891 12.6358 8.49011 12.6221 8.42064 12.6221C8.35116 12.6221 8.28236 12.6358 8.21823 12.6625C8.15409 12.6893 8.09588 12.7284 8.04695 12.7778C7.18906 13.6356 10.1522 15.3251 11.9522 13.5251Z" fill="#232859"/>
</svg>
