<svg width="17" height="22" viewBox="0 0 17 22" fill="none" xmlns="http://www.w3.org/2000/svg">
<path d="M14.6022 0H1.49173C0.665294 0 0 0.66853 0 1.49432V20.5063C0 21.3295 0.665294 22 1.49173 22H14.6022C15.426 22 16.0945 21.3302 16.0945 20.5063V1.49432C16.0958 0.66853 15.4267 0 14.6022 0ZM8.0476 21.4402C7.55704 21.4402 7.16032 21.0435 7.16032 20.5536C7.16032 20.063 7.55704 19.6656 8.0476 19.6656C8.53686 19.6656 8.93487 20.063 8.93487 20.5536C8.93487 21.0435 8.53686 21.4402 8.0476 21.4402ZM14.5847 18.8884H1.5105V1.79526H14.5847V18.8884Z" fill="currentColor"/>
</svg>
