<svg width="24" height="25" viewBox="0 0 24 25" fill="none" xmlns="http://www.w3.org/2000/svg">
<g clip-path="url(#clip0_629_35367)">
<path d="M23.7896 4.82534C23.7314 4.62781 23.5698 4.47786 23.3685 4.4345L20.8183 3.88484L20.2686 1.33461C20.2252 1.13328 20.0753 0.97175 19.8777 0.913578C19.6801 0.855359 19.4666 0.909781 19.321 1.05537L16.0229 4.35345C14.4588 3.50267 12.6994 3.05459 10.9065 3.05459C8.04338 3.05459 5.35158 4.16956 3.32709 6.19409C1.30247 8.21862 0.1875 10.9104 0.1875 13.7735C0.1875 16.6366 1.30247 19.3284 3.32705 21.3529C5.35153 23.3774 8.04333 24.4925 10.9065 24.4925C13.7696 24.4925 16.4613 23.3775 18.4859 21.3529C20.5104 19.3284 21.6254 16.6366 21.6254 13.7735C21.6254 11.993 21.1829 10.244 20.3427 8.68719L23.6477 5.38208C23.7934 5.23644 23.8478 5.02287 23.7896 4.82534ZM13.2407 13.7735C13.2407 15.0606 12.1936 16.1077 10.9065 16.1077C9.61936 16.1077 8.57222 15.0606 8.57222 13.7735C8.57222 12.4864 9.61936 11.4393 10.9065 11.4393C11.3474 11.4393 11.7601 11.5622 12.1123 11.7755L10.5091 13.3753C10.2893 13.5948 10.2888 13.9509 10.5082 14.1709C10.6181 14.281 10.7623 14.336 10.9064 14.336C11.0501 14.336 11.1939 14.2812 11.3038 14.1717L12.9068 12.572C13.1186 12.9232 13.2407 13.3343 13.2407 13.7735ZM12.9236 10.9659C12.3553 10.5565 11.6588 10.3143 10.9065 10.3143C8.99906 10.3143 7.44722 11.8661 7.44722 13.7735C7.44722 15.6809 8.99902 17.2327 10.9065 17.2327C12.8139 17.2327 14.3657 15.6809 14.3657 13.7735C14.3657 13.0237 14.1252 12.3295 13.7183 11.7622L15.5048 9.97944C16.3576 11.0112 16.8706 12.3335 16.8706 13.7735C16.8706 17.0621 14.1951 19.7376 10.9065 19.7376C7.61794 19.7376 4.94245 17.0621 4.94245 13.7735C4.94245 10.4849 7.61794 7.80941 10.9065 7.80941C12.3509 7.80941 13.677 8.32569 14.7101 9.18322L12.9236 10.9659ZM10.9065 23.3675C5.61633 23.3675 1.3125 19.0636 1.3125 13.7735C1.3125 8.48337 5.61633 4.17959 10.9065 4.17959C12.4857 4.17959 14.0356 4.56758 15.4181 5.3052C15.4191 5.31017 15.4193 5.31519 15.4204 5.32011L15.9799 7.91605L15.5088 8.38611C14.2695 7.3258 12.6615 6.68441 10.9065 6.68441C6.9975 6.68441 3.81741 9.86455 3.81741 13.7735C3.81741 17.6825 6.99755 20.8626 10.9065 20.8626C14.8154 20.8626 17.9955 17.6824 17.9955 13.7735C17.9955 12.0237 17.358 10.4203 16.3034 9.18252L16.7677 8.71911L19.383 9.28273C19.3839 9.28292 19.3849 9.28302 19.3859 9.2832C20.1162 10.6606 20.5003 12.2033 20.5003 13.7735C20.5004 19.0636 16.1965 23.3675 10.9065 23.3675ZM19.3205 8.11841L17.7162 7.77266L19.0549 6.43677C19.2748 6.2173 19.2752 5.86119 19.0558 5.6413C18.8363 5.42136 18.4802 5.42098 18.2603 5.64045L16.927 6.97091L16.5847 5.38264L19.3864 2.58092L19.795 4.47673C19.8416 4.69278 20.0104 4.86153 20.2264 4.90808L22.1222 5.31669L19.3205 8.11841Z" fill="#484848"/>
</g>
<defs>
<clipPath id="clip0_629_35367">
<rect width="24" height="24" fill="white" transform="translate(0 0.691406)"/>
</clipPath>
</defs>
</svg>
