<svg width="20" height="20" viewBox="0 0 20 20" fill="none" xmlns="http://www.w3.org/2000/svg">
<path fill-rule="evenodd" clip-rule="evenodd" d="M11.1111 13.7778H12.3333C12.6707 13.7778 12.9444 14.0516 12.9444 14.3889C12.9444 14.7262 12.6707 15 12.3333 15H8.66667C8.32933 15 8.05556 14.7262 8.05556 14.3889C8.05556 14.0516 8.32933 13.7778 8.66667 13.7778H9.88889V5.22222H6.22222V6.44444C6.22222 6.78178 5.94844 7.05556 5.61111 7.05556C5.27378 7.05556 5 6.78178 5 6.44444V4.61111C5 4.27378 5.27378 4 5.61111 4H15.3889C15.7262 4 16 4.27378 16 4.61111V6.44444C16 6.78178 15.7262 7.05556 15.3889 7.05556C15.0516 7.05556 14.7778 6.78178 14.7778 6.44444V5.22222H11.1111V13.7778Z" fill="#6B7280"/>
</svg>
