<svg width="49" height="49" viewBox="0 0 49 49" fill="none" xmlns="http://www.w3.org/2000/svg">
<g clip-path="url(#clip0_423_49042)">
<path d="M10.7215 12.6934C10.2047 12.6934 9.78516 13.1129 9.78516 13.6297C9.78516 14.1466 10.2047 14.5661 10.7215 14.5661C11.2384 14.5661 11.6579 14.1466 11.6579 13.6297C11.6579 13.1129 11.2384 12.6934 10.7215 12.6934Z" fill="#635BFF" fill-opacity="0.7"/>
<path d="M44.5181 20.702L43.1633 17.9922C42.6843 17.0341 41.7216 16.4391 40.6507 16.4391H32.8192V9.88472C32.8192 8.33586 31.5591 7.07568 30.0101 7.07568H3.23091C1.68196 7.07568 0.421875 8.33576 0.421875 9.88472V34.2295C0.421875 35.7783 1.68196 37.0385 3.23091 37.0385H6.03994C6.03994 38.4762 6.58351 39.7891 7.47503 40.7838H1.35825C0.84109 40.7838 0.421875 41.2031 0.421875 41.7202C0.421875 42.2372 0.84109 42.6566 1.35825 42.6566H47.4261C47.9432 42.6566 48.3624 42.2372 48.3624 41.7202C48.3624 41.2031 47.9432 40.7838 47.4261 40.7838H45.0546C45.9462 39.789 46.4897 38.4762 46.4897 37.0385C46.4897 36.9851 46.4872 36.932 46.4857 36.8787C47.5776 36.4933 48.3623 35.4516 48.3623 34.2295V29.0534C48.3623 27.9607 48.5787 28.9808 44.5181 20.702ZM43.102 22.057L45.911 27.6751H36.5645V22.057H43.102ZM2.29453 29.5478H4.16719V31.4204H2.29453V29.5478ZM11.6579 40.7838C9.59274 40.7838 7.9126 39.1036 7.9126 37.0385C7.9126 36.7834 7.93788 36.5324 7.98845 36.2883C8.34062 34.5528 9.88386 33.2931 11.6579 33.2931C13.432 33.2931 14.9753 34.5527 15.3274 36.2883C15.3277 36.2897 15.3279 36.2909 15.3282 36.2922C15.378 36.5323 15.4032 36.7834 15.4032 37.0385C15.4032 39.1037 13.7231 40.7838 11.6579 40.7838ZM11.6579 31.4204C9.25883 31.4204 7.14159 32.9573 6.36102 35.1657H3.23091C2.71459 35.1657 2.29453 34.7457 2.29453 34.2294V33.293H5.10357C5.62073 33.293 6.03994 32.8737 6.03994 32.3566V28.6113C6.03994 28.0942 5.62073 27.6749 5.10357 27.6749H2.29453V9.88472C2.29453 9.3684 2.71459 8.94834 3.23091 8.94834H30.0101C30.5264 8.94834 30.9465 9.3684 30.9465 9.88472C30.9465 10.5813 30.9465 32.9203 30.9465 35.1658H16.9543C16.1724 32.9562 14.056 31.4204 11.6579 31.4204ZM15.8408 40.7838C16.7324 39.789 17.2759 38.4762 17.2759 37.0385C17.9948 37.0385 34.9475 37.0385 35.2536 37.0385C35.2536 38.4762 35.7971 39.7891 36.6886 40.7838H15.8408ZM40.8716 40.7838C38.8064 40.7838 37.1263 39.1036 37.1263 37.0385C37.1263 36.7834 37.1516 36.5324 37.2022 36.2883C37.5543 34.5528 39.0976 33.2931 40.8716 33.2931C42.6457 33.2931 44.189 34.5527 44.5411 36.2883C44.5414 36.2897 44.5416 36.2909 44.5419 36.2922C44.5917 36.5323 44.6169 36.7834 44.6169 37.0385C44.617 39.1037 42.9368 40.7838 40.8716 40.7838ZM46.4897 34.2295C46.4897 34.5409 46.3362 34.8165 46.1017 34.9869C45.271 32.8736 43.2044 31.4205 40.8716 31.4205C38.4725 31.4205 36.3553 32.9574 35.5747 35.1658H32.8191V18.3117H40.6506C41.0076 18.3117 41.3285 18.5102 41.4882 18.8296L42.1656 20.1844H35.6282C35.111 20.1844 34.6918 20.6037 34.6918 21.1208V28.6115C34.6918 29.1285 35.111 29.5479 35.6282 29.5479H46.4897V34.2295Z" fill="#635BFF" fill-opacity="0.7"/>
<path d="M26.2655 12.6934H14.4676C13.9505 12.6934 13.5312 13.1127 13.5312 13.6297C13.5312 14.1468 13.9505 14.5661 14.4676 14.5661H26.2655C26.7827 14.5661 27.2019 14.1468 27.2019 13.6297C27.2019 13.1127 26.7826 12.6934 26.2655 12.6934Z" fill="#635BFF" fill-opacity="0.7"/>
<path d="M26.2624 16.439H18.2098C17.6927 16.439 17.2734 16.8583 17.2734 17.3753C17.2734 17.8924 17.6927 18.3117 18.2098 18.3117H26.2624C26.7795 18.3117 27.1987 17.8924 27.1987 17.3753C27.1987 16.8583 26.7794 16.439 26.2624 16.439Z" fill="#635BFF" fill-opacity="0.7"/>
<path d="M40.8688 35.1655C39.8361 35.1655 38.9961 36.0056 38.9961 37.0382C38.9961 38.0708 39.8362 38.9108 40.8688 38.9108C41.9014 38.9108 42.7414 38.0707 42.7414 37.0382C42.7414 36.0055 41.9014 35.1655 40.8688 35.1655Z" fill="#635BFF" fill-opacity="0.7"/>
<path d="M11.6578 35.1655C10.6252 35.1655 9.78516 36.0056 9.78516 37.0382C9.78516 38.0708 10.6253 38.9108 11.6578 38.9108C12.6904 38.9108 13.5305 38.0707 13.5305 37.0382C13.5305 36.0055 12.6904 35.1655 11.6578 35.1655Z" fill="#635BFF" fill-opacity="0.7"/>
</g>
<defs>
<clipPath id="clip0_423_49042">
<rect width="47.9424" height="47.9424" fill="white" transform="translate(0.421875 0.894531)"/>
</clipPath>
</defs>
</svg>
