<svg width="16" height="16" viewBox="0 0 16 16" fill="none" xmlns="http://www.w3.org/2000/svg">
<path d="M11.8743 5.522C11.6582 4.65818 11.1597 3.89132 10.458 3.34319C9.75623 2.79505 8.89149 2.49707 8.00105 2.49655C7.11061 2.49604 6.24553 2.79302 5.54316 3.34033C4.84079 3.88765 4.3414 4.65394 4.1243 5.5175C3.10021 5.61361 2.15251 6.10053 1.47804 6.87711C0.803576 7.6537 0.45419 8.66025 0.502457 9.68771C0.550725 10.7152 0.992936 11.6845 1.73724 12.3945C2.48153 13.1044 3.47071 13.5003 4.4993 13.5H5.9993C6.13191 13.5 6.25908 13.4473 6.35285 13.3536C6.44662 13.2598 6.4993 13.1326 6.4993 13C6.4993 12.8674 6.44662 12.7402 6.35285 12.6464C6.25908 12.5527 6.13191 12.5 5.9993 12.5H4.4993C4.10533 12.5012 3.715 12.4247 3.35058 12.275C2.98616 12.1253 2.6548 11.9053 2.37541 11.6275C1.81116 11.0665 1.49287 10.3044 1.49055 9.50875C1.48823 8.7131 1.80207 7.94912 2.36304 7.38487C2.92401 6.82062 3.68615 6.50232 4.4818 6.5C4.61009 6.50966 4.7374 6.47132 4.83903 6.39242C4.94065 6.31352 5.00935 6.19969 5.0318 6.073C5.13361 5.35903 5.48959 4.70576 6.03436 4.23317C6.57912 3.76057 7.2761 3.50038 7.9973 3.50038C8.71849 3.50038 9.41547 3.76057 9.96024 4.23317C10.505 4.70576 10.861 5.35903 10.9628 6.073C10.9889 6.19529 11.0567 6.30471 11.1546 6.38258C11.2524 6.46046 11.3743 6.50196 11.4993 6.5C12.2949 6.5 13.058 6.81607 13.6206 7.37868C14.1832 7.94129 14.4993 8.70435 14.4993 9.5C14.4993 10.2957 14.1832 11.0587 13.6206 11.6213C13.058 12.1839 12.2949 12.5 11.4993 12.5H9.9993C9.86669 12.5 9.73951 12.5527 9.64574 12.6464C9.55197 12.7402 9.4993 12.8674 9.4993 13C9.4993 13.1326 9.55197 13.2598 9.64574 13.3536C9.73951 13.4473 9.86669 13.5 9.9993 13.5H11.4993C12.5204 13.4893 13.4987 13.0885 14.2338 12.3798C14.9689 11.6711 15.4051 10.708 15.453 9.68803C15.501 8.66804 15.157 7.66833 14.4916 6.89376C13.8263 6.11919 12.8899 5.62842 11.8743 5.522Z" fill="#90A4AE"/>
<path d="M10.1462 9.8535C10.2405 9.94458 10.3668 9.99498 10.4979 9.99384C10.629 9.9927 10.7544 9.94011 10.8471 9.84741C10.9398 9.75471 10.9924 9.6293 10.9936 9.4982C10.9947 9.3671 10.9443 9.2408 10.8532 9.1465L8.35322 6.6465C8.25945 6.55276 8.1323 6.50011 7.99971 6.50011C7.86713 6.50011 7.73998 6.55276 7.64621 6.6465L5.14622 9.1465C5.05514 9.2408 5.00474 9.3671 5.00588 9.4982C5.00702 9.6293 5.0596 9.75471 5.15231 9.84741C5.24501 9.94011 5.37042 9.9927 5.50151 9.99384C5.63261 9.99498 5.75891 9.94458 5.85321 9.8535L7.49971 8.207V14.5C7.49971 14.6326 7.55239 14.7598 7.64616 14.8536C7.73993 14.9473 7.86711 15 7.99971 15C8.13232 15 8.2595 14.9473 8.35327 14.8536C8.44704 14.7598 8.49971 14.6326 8.49971 14.5V8.207L10.1462 9.8535Z" fill="#90A4AE"/>
</svg>
