<svg width="33" height="32" viewBox="0 0 33 32" fill="none" xmlns="http://www.w3.org/2000/svg">
<path d="M30.2129 17.3335C29.8565 17.3335 29.5147 17.474 29.2627 17.724C29.0107 17.9741 28.8691 18.3132 28.8691 18.6668V24.2842C28.8681 25.2694 28.4732 26.2139 27.7711 26.9106C27.069 27.6073 26.117 27.9991 25.1241 28.0002H8.42667C7.43376 27.9991 6.48181 27.6073 5.77971 26.9106C5.07761 26.2139 4.68271 25.2694 4.68164 24.2842V18.6668C4.68164 18.3132 4.54007 17.9741 4.28807 17.724C4.03606 17.474 3.69428 17.3335 3.33789 17.3335C2.98151 17.3335 2.63972 17.474 2.38772 17.724C2.13571 17.9741 1.99414 18.3132 1.99414 18.6668V24.2842C1.99592 25.9764 2.6742 27.5988 3.88015 28.7954C5.0861 29.992 6.7212 30.6651 8.42667 30.6668H25.1241C26.8296 30.6651 28.4647 29.992 29.6706 28.7954C30.8766 27.5988 31.5549 25.9764 31.5566 24.2842V18.6668C31.5566 18.3132 31.4151 17.9741 31.1631 17.724C30.9111 17.474 30.5693 17.3335 30.2129 17.3335Z" fill="#2563EB"/>
<path d="M9.66203 11.6092L15.4308 5.88521V22.6665C15.4308 23.0202 15.5723 23.3593 15.8243 23.6094C16.0763 23.8594 16.4181 23.9999 16.7745 23.9999C17.1309 23.9999 17.4727 23.8594 17.7247 23.6094C17.9767 23.3593 18.1183 23.0202 18.1183 22.6665V5.88521L23.887 11.6092C24.1404 11.8521 24.4798 11.9865 24.8322 11.9834C25.1845 11.9804 25.5215 11.8402 25.7707 11.593C26.0198 11.3458 26.1611 11.0113 26.1642 10.6617C26.1673 10.3122 26.0318 9.97535 25.787 9.72388L17.7245 1.72388C17.4725 1.47392 17.1308 1.3335 16.7745 1.3335C16.4182 1.3335 16.0765 1.47392 15.8245 1.72388L7.76197 9.72388C7.5172 9.97535 7.38175 10.3122 7.38482 10.6617C7.38788 11.0113 7.5292 11.3458 7.77834 11.593C8.02748 11.8402 8.36451 11.9804 8.71684 11.9834C9.06917 11.9865 9.4086 11.8521 9.66203 11.6092Z" fill="#2563EB"/>
</svg>
