<svg width="49" height="49" viewBox="0 0 49 49" fill="none" xmlns="http://www.w3.org/2000/svg">
<g clip-path="url(#clip0_423_49046)">
<path d="M41.6948 7.91548C37.1673 3.38801 31.1476 0.894531 24.7447 0.894531C18.3417 0.894531 12.322 3.38801 7.79448 7.91548C3.26682 12.4431 0.773438 18.4628 0.773438 24.8657C0.773438 31.2687 3.26682 37.2884 7.79448 41.816C12.322 46.3435 18.3417 48.837 24.7447 48.837C31.1476 48.837 37.1673 46.3435 41.6948 41.816C46.2225 37.2884 48.7159 31.2687 48.7159 24.8657C48.7159 18.4628 46.2225 12.4431 41.6948 7.91548ZM40.3706 40.4917C36.1968 44.6656 30.6474 46.9642 24.7447 46.9642C18.8419 46.9642 13.2925 44.6656 9.1187 40.4917C4.9448 36.3179 2.64619 30.7685 2.64619 24.8657C2.64619 18.963 4.9448 13.4136 9.1187 9.23979C13.2925 5.0659 18.8419 2.76728 24.7447 2.76728C30.6474 2.76728 36.1968 5.0659 40.3706 9.23979C44.5445 13.4136 46.8431 18.963 46.8431 24.8657C46.8431 30.7685 44.5445 36.3179 40.3706 40.4917Z" fill="#635BFF" fill-opacity="0.7"/>
<path d="M39.5225 13.0607C36.8969 9.77761 33.2115 7.43564 29.1452 6.46612C28.6424 6.34682 28.1371 6.65676 28.0171 7.15979C27.8972 7.66281 28.2078 8.16789 28.7108 8.28784C32.3733 9.16101 35.6936 11.2715 38.0599 14.2304C40.4969 17.2775 41.785 20.9551 41.785 24.8657C41.785 34.2627 34.1399 41.9077 24.7429 41.9077C24.3195 41.9077 23.8997 41.8916 23.4839 41.8611C23.5415 40.3819 23.7901 38.9972 24.1787 37.716C24.8895 37.8337 25.6076 37.8927 26.3283 37.8927C26.8397 37.8927 27.3528 37.863 27.8652 37.8035C31.3703 37.3964 34.512 35.6357 36.7116 32.8456C38.9108 30.0558 39.8894 26.5903 39.467 23.0875C39.1346 20.3318 37.9715 17.7957 36.1032 15.7537C35.9175 15.5507 35.6521 15.4392 35.377 15.45C35.102 15.4604 34.8456 15.5912 34.6757 15.8076C33.5772 17.2074 32.1353 18.2375 30.5059 18.7864C27.6689 19.7421 25.214 21.6654 23.5935 24.202C22.9953 25.1385 22.5222 26.1436 22.1794 27.1895C20.9596 24.7523 18.6771 22.9009 15.8851 22.3206C14.8231 22.0999 13.8414 21.5628 13.046 20.7676C12.8515 20.5731 12.5817 20.4735 12.3069 20.4965C12.0327 20.5191 11.7824 20.6611 11.6222 20.8848C10.511 22.4383 9.92365 24.2717 9.92365 26.1869C9.92365 28.6218 10.8802 30.9151 12.6171 32.6444C14.3445 34.3641 16.6262 35.3098 19.0461 35.3098C19.0598 35.3098 19.0734 35.3098 19.0871 35.3097C19.6966 35.3071 20.2993 35.243 20.8902 35.1214C21.341 36.5915 21.5336 38.4754 21.5205 41.3024C21.52 41.4006 21.5195 41.5 21.5191 41.6006C13.6585 40.0893 7.70088 33.1608 7.70088 24.8657C7.70088 20.9551 8.98895 17.2775 11.4259 14.2304C13.7922 11.2715 17.1124 9.16101 20.775 8.28784C21.278 8.16789 21.5886 7.66281 21.4687 7.15979C21.3487 6.65676 20.8437 6.34636 20.3406 6.46612C16.2743 7.43564 12.5889 9.77761 9.96335 13.0607C7.29674 16.3951 5.82812 20.5876 5.82812 24.8657C5.82812 35.2953 14.3133 43.7805 24.7429 43.7805C35.1725 43.7805 43.6577 35.2953 43.6577 24.8657C43.6577 20.5876 42.1891 16.3951 39.5225 13.0607ZM25.1717 25.2102C26.5631 23.032 28.6699 21.3809 31.1038 20.5611C32.7256 20.0148 34.1915 19.079 35.3971 17.8281C36.606 19.4223 37.3649 21.2986 37.6077 23.3118C37.9701 26.3164 37.1296 29.2906 35.2409 31.6863C33.352 34.0823 30.6559 35.5941 27.6492 35.9433C26.7095 36.0524 25.7687 36.0435 24.8408 35.9202C26.1722 32.8696 28.2836 30.5507 30.3113 29.1451C30.7363 28.8506 30.8419 28.2671 30.5473 27.8421C30.2527 27.4171 29.6694 27.3114 29.2443 27.606C27.2521 28.987 25.1868 31.1531 23.7053 33.9665C23.6037 33.5418 23.5253 33.1102 23.4725 32.6727C23.1583 30.0675 23.7617 27.4171 25.1717 25.2102ZM19.079 33.4369C19.0681 33.437 19.0573 33.437 19.0464 33.437C17.125 33.437 15.3122 32.685 13.9384 31.3172C12.5572 29.9419 11.7965 28.12 11.7965 26.1869C11.7965 25.0126 12.0741 23.8773 12.6063 22.8532C13.4737 23.4929 14.4583 23.9367 15.504 24.1542C18.8452 24.8485 21.2703 27.8337 21.2703 31.2524C21.2703 31.4222 21.2641 31.5914 21.2525 31.7598C20.5715 30.7597 19.6763 29.6778 18.4985 28.4364C18.1426 28.0613 17.5499 28.0456 17.1748 28.4016C16.7996 28.7576 16.784 29.3502 17.1399 29.7254C18.4562 31.1128 19.4346 32.1444 20.129 33.3558C19.7829 33.4077 19.4324 33.4354 19.079 33.4369Z" fill="#635BFF" fill-opacity="0.7"/>
<path d="M24.745 7.82392C25.2621 7.82392 25.6813 7.40469 25.6813 6.88755C25.6813 6.3704 25.2621 5.95117 24.745 5.95117C24.2278 5.95117 23.8086 6.3704 23.8086 6.88755C23.8086 7.40469 24.2278 7.82392 24.745 7.82392Z" fill="#635BFF" fill-opacity="0.7"/>
</g>
<defs>
<clipPath id="clip0_423_49046">
<rect width="47.9424" height="47.9424" fill="white" transform="translate(0.773438 0.894531)"/>
</clipPath>
</defs>
</svg>
