<svg width="48" height="33" viewBox="0 0 48 33" fill="none" xmlns="http://www.w3.org/2000/svg">
<rect y="0.25" width="48" height="32" rx="4" fill="#224DBA"/>
<path d="M14.566 21.1473H11.8313L9.78068 13.1473C9.68335 12.7793 9.47668 12.454 9.17268 12.3007C8.38477 11.8933 7.53959 11.6078 6.66602 11.454V11.146H11.0713C11.6793 11.146 12.1353 11.6087 12.2113 12.146L13.2753 17.9167L16.0087 11.146H18.6673L14.566 21.146V21.1473ZM20.1873 21.1473H17.6047L19.7327 11.146H22.3153L20.1887 21.146L20.1873 21.1473ZM25.6553 13.918C25.7313 13.3793 26.1873 13.0713 26.7193 13.0713C27.5814 12.9923 28.4486 13.1519 29.226 13.5327L29.682 11.3793C28.9332 11.0783 28.1344 10.9213 27.3273 10.9167C24.8207 10.9167 22.9967 12.302 22.9967 14.2247C22.9967 15.6873 24.2887 16.4553 25.2007 16.918C26.1873 17.3793 26.5673 17.6873 26.4913 18.1487C26.4913 18.8407 25.7313 19.1487 24.9727 19.1487C24.0525 19.1371 23.1456 18.927 22.314 18.5327L21.858 20.6873C22.7502 21.0504 23.7054 21.2335 24.6687 21.226C27.4793 21.302 29.226 19.918 29.226 17.8407C29.226 15.2247 25.6553 15.0713 25.6553 13.918ZM38.2647 21.1473L36.2127 11.146H34.01C33.7751 11.1495 33.547 11.2252 33.3567 11.3628C33.1663 11.5005 33.0229 11.6934 32.946 11.9153L29.1487 21.1473H31.8073L32.338 19.686H35.6047L35.9087 21.1473H38.2633H38.2647ZM34.3913 13.838L35.1513 17.6073H33.0233L34.3913 13.838Z" fill="white"/>
</svg>
