<svg width="32" height="8" viewBox="0 0 32 8" fill="none" xmlns="http://www.w3.org/2000/svg">
<g clip-path="url(#clip0_423_51607)">
<path d="M11.7753 3.21024V3.61654H11.7877C11.9339 3.39901 12.1766 3.14282 12.7146 3.14282C13.1331 3.14282 13.4542 3.35586 13.5918 3.67767H13.6042C13.7217 3.51497 13.8565 3.39182 14.0075 3.30462C14.1861 3.20125 14.3849 3.14192 14.6353 3.14192C15.2019 3.14192 15.7036 3.51047 15.7036 4.43994V6.20268H14.8397V4.56309C14.8397 4.09206 14.6697 3.81969 14.3161 3.81969C14.0571 3.81969 13.8689 3.98329 13.7972 4.18465C13.7724 4.25386 13.7609 4.34825 13.7609 4.42735V6.20358H12.8971V4.49657C12.8971 4.09656 12.7337 3.8188 12.3849 3.8188C12.1059 3.8188 11.931 4.02554 11.8594 4.20263C11.8288 4.27813 11.8192 4.36533 11.8192 4.44713V6.20268H10.9544V3.21024H11.7753ZM20.1622 3.21024V3.77475H20.1861C20.3447 3.34328 20.7212 3.14282 21.0519 3.14282C21.135 3.14282 21.1809 3.14911 21.2477 3.1617V3.94554C21.1684 3.93475 21.0949 3.92397 20.9917 3.92397C20.6171 3.92397 20.3562 4.12892 20.2903 4.44982C20.2759 4.51634 20.2712 4.58826 20.2712 4.67095V6.20358H19.3844V3.21024H20.1622ZM22.4518 2.21875V3.1608H23.2009V3.92307H22.4518V5.04759C22.4518 5.41165 22.5502 5.58783 22.8426 5.58783C22.9802 5.58783 23.0815 5.57165 23.1694 5.55098L23.1808 6.18291C23.0633 6.22426 22.813 6.2692 22.5588 6.2692C22.2597 6.2692 22.0103 6.17122 21.8584 6.01931C21.6844 5.84582 21.6042 5.56177 21.6042 5.15726V2.21875H22.4518ZM10.3524 6.20268H9.49242V2.21875H10.3524V6.20268ZM8.05908 5.13389C8.05908 5.18872 8.0543 5.24625 8.03806 5.29569C7.97117 5.50334 7.74279 5.67862 7.45803 5.67862C7.2201 5.67862 7.0309 5.55188 7.0309 5.28311C7.0309 4.87231 7.5125 4.75815 8.06004 4.76084V5.13389H8.05908ZM8.91813 4.41746C8.91813 3.73879 8.61044 3.14282 7.56983 3.14282C7.03567 3.14282 6.61141 3.28395 6.38016 3.4098L6.54929 3.95453C6.76047 3.82868 7.09779 3.72531 7.41694 3.72531C7.94537 3.72441 8.03137 4.00667 8.03137 4.18735V4.23049C6.87992 4.22869 6.15274 4.60354 6.15274 5.3676C6.15274 5.83413 6.52254 6.271 7.16659 6.271C7.56315 6.271 7.89377 6.12268 8.09253 5.88447H8.11164C8.11164 5.88447 8.24351 6.40134 8.96782 6.20358C8.9296 5.98785 8.91718 5.75863 8.91718 5.48266V4.41746H8.91813ZM1.83264 2.21875C1.92151 2.64033 2.17378 3.86464 2.17378 3.86464C2.27984 4.36802 2.37731 4.89568 2.45089 5.31277H2.46427C2.53593 4.86961 2.64869 4.44982 2.76909 3.93026L3.19432 2.21875H4.13554L4.53306 3.97431C4.63721 4.46241 4.72035 4.83905 4.78628 5.29299H4.7987C4.87037 4.83455 4.96402 4.44263 5.06626 3.94105L5.44849 2.21875H6.35149L5.23253 6.20268C4.51968 6.3492 4.24639 6.07953 4.14892 5.65166C4.05146 5.22288 3.86034 4.40758 3.86034 4.40758C3.76192 3.96082 3.68548 3.64621 3.63196 3.18777H3.61859C3.54214 3.64171 3.46187 3.95992 3.34338 4.40668L2.8742 6.20358C2.14607 6.34022 1.8938 6.13796 1.75428 5.58873C1.63388 5.11861 0.882812 2.21965 0.882812 2.21965H1.83264V2.21875ZM17.9511 5.13389C17.9511 5.18872 17.9463 5.24625 17.93 5.29569C17.8631 5.50334 17.6348 5.67862 17.35 5.67862C17.1121 5.67862 16.9229 5.55188 16.9229 5.28311C16.9229 4.87231 17.4045 4.75815 17.952 4.76084V5.13389H17.9511ZM18.8101 4.41746C18.8101 3.73879 18.5024 3.14282 17.4618 3.14282C16.9277 3.14282 16.5034 3.28395 16.2721 3.4098L16.4413 3.95453C16.6524 3.82868 16.9898 3.72531 17.3089 3.72531C17.8364 3.72441 17.9233 4.00667 17.9233 4.18735V4.23049C16.7728 4.22869 16.0457 4.60354 16.0457 5.3676C16.0457 5.83413 16.4164 6.271 17.0595 6.271C17.4551 6.271 17.7867 6.12268 17.9845 5.88447H18.0046C18.0046 5.88447 18.1364 6.40134 18.8608 6.20358C18.8225 5.98785 18.8101 5.75863 18.8101 5.48266V4.41746Z" fill="#041E42"/>
<path d="M26.6874 4.83055C26.7722 4.97604 26.7665 5.13843 26.676 5.21258L25.112 6.29296C24.9491 6.38589 24.7053 6.27325 24.5672 6.03765C24.4281 5.80111 24.4529 5.53735 24.6157 5.44443L26.3474 4.65033C26.456 4.60903 26.6026 4.68506 26.6874 4.83055ZM28.7457 4.83055C28.8315 4.68506 28.9772 4.60997 29.0858 4.64939L30.8184 5.44349C30.9812 5.53641 31.0051 5.80017 30.8669 6.03671C30.7279 6.27231 30.4831 6.38401 30.3212 6.29202L28.7572 5.21164C28.6676 5.13843 28.661 4.9751 28.7457 4.83055ZM27.7161 5.41627C27.8866 5.41627 28.0266 5.50262 28.0457 5.6162L28.2143 7.49161C28.2143 7.67746 27.9942 7.82952 27.7171 7.82952C27.4408 7.82952 27.2199 7.67746 27.2199 7.49161L27.3875 5.6162C27.4065 5.50262 27.5466 5.41627 27.7161 5.41627ZM28.7572 3.27804L30.3212 2.19672C30.4831 2.10379 30.7279 2.21549 30.8669 2.45203C31.0051 2.68857 30.9812 2.95233 30.8184 3.04525L29.0858 3.84028C28.9772 3.87971 28.8305 3.80461 28.7457 3.65912C28.661 3.51363 28.6676 3.35125 28.7572 3.27804ZM26.3474 3.84028L24.6157 3.04525C24.4538 2.95233 24.4291 2.68857 24.5672 2.45203C24.7053 2.21549 24.9501 2.10379 25.112 2.19672L26.676 3.27804C26.7665 3.35031 26.7722 3.51363 26.6874 3.65912C26.6026 3.80461 26.456 3.87971 26.3474 3.84028ZM27.3875 2.87348L27.2199 0.998068C27.2199 0.812217 27.4399 0.660156 27.7171 0.660156C27.9942 0.660156 28.2143 0.812217 28.2143 0.998068L28.0457 2.87348C28.0266 2.98612 27.8866 3.07341 27.7161 3.07341C27.5466 3.07341 27.4065 2.98612 27.3875 2.87348ZM31.2898 6.28545V6.23852H31.3327C31.347 6.23852 31.3565 6.24791 31.3565 6.26199C31.3565 6.27513 31.347 6.28545 31.3327 6.28545H31.2898ZM31.2546 6.37087C31.2546 6.37556 31.2584 6.38025 31.2641 6.38025H31.2822C31.287 6.38025 31.2918 6.37556 31.2918 6.37087V6.31737H31.3213L31.3451 6.37368C31.347 6.37744 31.3499 6.38025 31.3537 6.38025H31.3756C31.3822 6.38025 31.387 6.37368 31.3841 6.36711C31.3756 6.35022 31.367 6.33238 31.3584 6.31455C31.3727 6.30986 31.3946 6.29578 31.3946 6.26199C31.3946 6.22632 31.3651 6.20567 31.3356 6.20567H31.2641C31.2594 6.20567 31.2546 6.21036 31.2546 6.21505V6.37087ZM31.1775 6.29296C31.1775 6.21693 31.2403 6.15498 31.3175 6.15498C31.3946 6.15498 31.4575 6.21599 31.4575 6.29296C31.4575 6.36899 31.3956 6.43094 31.3175 6.43094C31.2394 6.43094 31.1775 6.36899 31.1775 6.29296ZM31.1441 6.29296C31.1441 6.38683 31.2213 6.46379 31.3175 6.46379C31.4127 6.46379 31.4908 6.38683 31.4908 6.29296C31.4908 6.1991 31.4127 6.12213 31.3175 6.12213C31.2213 6.12213 31.1441 6.1991 31.1441 6.29296Z" fill="#FFC124"/>
</g>
<defs>
<clipPath id="clip0_423_51607">
<rect width="30.6077" height="7.16936" fill="white" transform="translate(0.914062 0.660156)"/>
</clipPath>
</defs>
</svg>
